<svg width="48" height="48" viewBox="0 0 48 48" fill="none" xmlns="http://www.w3.org/2000/svg">
<g clip-path="url(#clip0_70715_256)">
<path d="M33.2982 37.0005C32.9796 36.6697 32.3918 36.5748 31.9597 36.9883C31.9567 36.9912 31.9536 36.9942 31.9505 36.9972C31.5241 37.4165 31.6012 38.007 31.9221 38.3354C32.0925 38.51 32.3384 38.6175 32.596 38.6175C32.8233 38.6175 33.0595 38.5338 33.2607 38.3385C33.69 37.9222 33.617 37.3311 33.2982 37.0005Z" fill="#FF3F3A"/>
<path d="M41.7865 18.9529C41.6065 18.4673 41.0673 18.2197 40.5818 18.3994C40.0964 18.5792 39.8486 19.1184 40.0284 19.6039C40.8376 21.7887 41.2479 24.0889 41.2479 26.4408C41.2479 37.295 32.4173 46.1255 21.5633 46.1255C17.5356 46.1255 13.6638 44.9178 10.3661 42.633C9.94081 42.3381 9.35665 42.444 9.06181 42.8696C8.76687 43.2951 8.87281 43.8791 9.29843 44.1739C12.9112 46.6771 17.1522 48.0002 21.5633 48.0002C27.3221 48.0002 32.7361 45.7576 36.8082 41.6855C40.8802 37.6135 43.1228 32.1994 43.1228 26.4408C43.1226 23.866 42.673 21.3467 41.7865 18.9529Z" fill="#FF3F3A"/>
<path d="M28.8234 6.13401C26.4978 5.30245 24.0553 4.88086 21.5636 4.88086C15.8048 4.88086 10.3909 7.12345 6.31876 11.1954C2.24674 15.2676 0.00415039 20.6816 0.00415039 26.4403C0.00415039 30.9061 1.35752 35.1906 3.91821 38.8308C4.10064 39.0903 4.3908 39.2289 4.68573 39.2289C4.87202 39.2289 5.06017 39.1735 5.22414 39.0581C5.64761 38.7602 5.74942 38.1755 5.45158 37.7521C3.1143 34.4294 1.87887 30.5179 1.87887 26.4402C1.87887 15.5861 10.7094 6.75557 21.5635 6.75557C23.8396 6.75557 26.0697 7.14032 28.1921 7.89923C28.6795 8.0736 29.2161 7.81973 29.3903 7.33223C29.5647 6.84482 29.3108 6.30839 28.8234 6.13401Z" fill="#FF3F3A"/>
<path d="M47.9249 7.77379C47.7797 7.42344 47.438 7.19516 47.0588 7.19516H42.1335L42.6632 6.66548C43.0292 6.29948 43.0292 5.70585 42.6632 5.33976C42.2971 4.97376 41.7036 4.97376 41.3374 5.33976L40.801 5.8762V0.937456C40.801 0.558426 40.5725 0.21652 40.2224 0.0713954C39.872 -0.0737293 39.4688 0.0065205 39.2009 0.274551L30.9374 8.53804C30.7616 8.71382 30.6628 8.95222 30.6628 9.20085V12.4526C27.959 10.6839 24.8419 9.75538 21.5623 9.75538C12.3622 9.75538 4.8772 17.2404 4.8772 26.4405C4.8772 35.6406 12.3622 43.1256 21.5623 43.1256C24.6159 43.1256 27.6034 42.2928 30.2016 40.7175C30.6443 40.4491 30.7855 39.8726 30.5172 39.4299C30.2489 38.9873 29.6724 38.8459 29.2297 39.1144C26.9245 40.5121 24.2732 41.2508 21.5623 41.2508C13.3959 41.2508 6.75191 34.607 6.75191 26.4404C6.75191 18.2739 13.3959 11.63 21.5623 11.63C24.897 11.63 28.0421 12.7108 30.6628 14.7556V16.0142L28.9546 17.7224C26.9597 16.0283 24.3786 15.0044 21.5623 15.0044C15.2565 15.0044 10.1264 20.1345 10.1264 26.4403C10.1264 32.7461 15.2565 37.8762 21.5623 37.8762C27.8681 37.8762 32.9982 32.7461 32.9982 26.4403C32.9982 23.6242 31.9745 21.043 30.2802 19.048L31.9952 17.3331H33.2422C35.263 19.9229 36.3726 23.1446 36.3726 26.4403C36.3726 29.2038 35.6068 31.8992 34.158 34.235C33.8851 34.6748 34.0205 35.2527 34.4606 35.5256C34.6145 35.621 34.7851 35.6665 34.9537 35.6665C35.2674 35.6665 35.5738 35.5091 35.7513 35.2232C37.3844 32.5904 38.2474 29.5534 38.2474 26.4403C38.2474 23.2025 37.2964 20.0278 35.5429 17.3331H38.7951C39.0438 17.3331 39.2821 17.2343 39.4579 17.0585L47.7214 8.795C47.9897 8.52725 48.0699 8.12404 47.9249 7.77379ZM31.1237 26.4405C31.1237 31.7125 26.8345 36.0017 21.5625 36.0017C16.2905 36.0017 12.0013 31.7125 12.0013 26.4405C12.0013 21.1685 16.2905 16.8793 21.5625 16.8793C23.8617 16.8793 25.9737 17.6952 27.6248 19.0525L25.49 21.1874C24.3943 20.3661 23.0343 19.879 21.5626 19.879C17.9445 19.879 15.0011 22.8225 15.0011 26.4405C15.0011 30.0586 17.9446 33.0021 21.5626 33.0021C25.1807 33.0021 28.1242 30.0585 28.1242 26.4405C28.1242 24.9688 27.637 23.6088 26.8157 22.513L28.9506 20.3782C30.3078 22.0293 31.1237 24.1413 31.1237 26.4405ZM20.8997 27.1034C21.0828 27.2865 21.3226 27.378 21.5625 27.378C21.8024 27.378 22.0422 27.2865 22.2253 27.1034L25.4708 23.8579C25.9622 24.599 26.2493 25.4867 26.2493 26.4405C26.2493 29.0248 24.1468 31.1273 21.5625 31.1273C18.9782 31.1273 16.8757 29.0248 16.8757 26.4405C16.8757 23.8562 18.9782 21.7537 21.5625 21.7537C22.5164 21.7537 23.404 22.0408 24.1452 22.5322L20.8997 25.7777C20.5336 26.1437 20.5336 26.7372 20.8997 27.1034ZM32.5377 14.1396V9.58916L38.9264 3.20048V7.75091L32.5377 14.1396ZM38.4071 15.4586H33.8702L40.2589 9.06988H44.7958L38.4071 15.4586Z" fill="#FF3F3A"/>
<path d="M7.62444 40.3401C7.45016 40.1658 7.20838 40.0654 6.96182 40.0654C6.71423 40.0654 6.47244 40.1657 6.2991 40.3401C6.12379 40.5145 6.02441 40.7563 6.02441 41.0028C6.02441 41.2494 6.12379 41.4912 6.2991 41.6656C6.47338 41.8399 6.71432 41.9402 6.96182 41.9402C7.20838 41.9402 7.45016 41.8399 7.62444 41.6656C7.79882 41.4912 7.89922 41.2494 7.89922 41.0028C7.89922 40.7563 7.79891 40.5154 7.62444 40.3401Z" fill="#FF3F3A"/>
</g>
<defs>
<clipPath id="clip0_70715_256">
<rect width="48" height="48" fill="white"/>
</clipPath>
</defs>
</svg>
