<svg width="143" height="26" viewBox="0 0 143 26" fill="none" xmlns="http://www.w3.org/2000/svg">
<path fill-rule="evenodd" clip-rule="evenodd" d="M10.0002 5.70866C8.38936 5.70866 7.08353 7.0145 7.08353 8.62533C7.08353 10.2362 8.38936 11.542 10.0002 11.542C11.611 11.542 12.9169 10.2362 12.9169 8.62533C12.9169 7.0145 11.611 5.70866 10.0002 5.70866ZM5.41686 8.62533C5.41686 6.09402 7.46889 4.04199 10.0002 4.04199C12.5315 4.04199 14.5835 6.09402 14.5835 8.62533C14.5835 11.1566 12.5315 13.2087 10.0002 13.2087C7.46889 13.2087 5.41686 11.1566 5.41686 8.62533Z" fill="#424551"/>
<path fill-rule="evenodd" clip-rule="evenodd" d="M5.08691 15.7087C4.50914 15.7087 4.05755 15.99 3.87424 16.3942C3.62053 16.9536 3.39078 17.6196 3.33656 18.2513C3.31233 18.5337 3.43006 18.7418 3.5923 18.8426C4.44993 19.3753 6.43719 20.292 10.0002 20.292C13.5632 20.292 15.5505 19.3753 16.4081 18.8426C16.5703 18.7418 16.6881 18.5337 16.6638 18.2513C16.6096 17.6196 16.3799 16.9536 16.1261 16.3942C15.9428 15.99 15.4912 15.7087 14.9135 15.7087H5.08691ZM2.35639 15.7058C2.86301 14.5887 3.99428 14.042 5.08691 14.042H14.9135C16.0061 14.042 17.1374 14.5887 17.644 15.7058C17.935 16.3474 18.2472 17.2099 18.3244 18.1088C18.3946 18.9273 18.0544 19.7819 17.2876 20.2583C16.1596 20.959 13.8665 21.9587 10.0002 21.9587C6.13386 21.9587 3.84078 20.959 2.71283 20.2583C1.94595 19.7819 1.60575 18.9273 1.676 18.1088C1.75315 17.2099 2.0654 16.3474 2.35639 15.7058Z" fill="#424551"/>
<path d="M31.32 17.224H35.952V19H29.168V7.432H31.32V17.224ZM40.5288 10.664C41.1421 10.664 41.6968 10.7627 42.1928 10.96C42.6941 11.1573 43.1208 11.4373 43.4728 11.8C43.8248 12.1627 44.0968 12.6053 44.2888 13.128C44.4808 13.6507 44.5768 14.2347 44.5768 14.88C44.5768 15.5307 44.4808 16.1173 44.2888 16.64C44.0968 17.1627 43.8248 17.608 43.4728 17.976C43.1208 18.344 42.6941 18.6267 42.1928 18.824C41.6968 19.0213 41.1421 19.12 40.5288 19.12C39.9154 19.12 39.3581 19.0213 38.8568 18.824C38.3554 18.6267 37.9261 18.344 37.5688 17.976C37.2168 17.608 36.9421 17.1627 36.7448 16.64C36.5528 16.1173 36.4568 15.5307 36.4568 14.88C36.4568 14.2347 36.5528 13.6507 36.7448 13.128C36.9421 12.6053 37.2168 12.1627 37.5688 11.8C37.9261 11.4373 38.3554 11.1573 38.8568 10.96C39.3581 10.7627 39.9154 10.664 40.5288 10.664ZM40.5288 17.6C41.2114 17.6 41.7154 17.3707 42.0408 16.912C42.3714 16.4533 42.5368 15.7813 42.5368 14.896C42.5368 14.0107 42.3714 13.336 42.0408 12.872C41.7154 12.408 41.2114 12.176 40.5288 12.176C39.8354 12.176 39.3234 12.4107 38.9928 12.88C38.6621 13.344 38.4968 14.016 38.4968 14.896C38.4968 15.776 38.6621 16.448 38.9928 16.912C39.3234 17.3707 39.8354 17.6 40.5288 17.6ZM48.9585 10.648C49.3105 10.648 49.6412 10.6853 49.9505 10.76C50.2598 10.8293 50.5425 10.9333 50.7985 11.072H53.1585V11.808C53.1585 11.9307 53.1265 12.0267 53.0625 12.096C52.9985 12.1653 52.8892 12.2133 52.7345 12.24L51.9985 12.376C52.0518 12.5147 52.0918 12.6613 52.1185 12.816C52.1505 12.9707 52.1665 13.1333 52.1665 13.304C52.1665 13.7093 52.0838 14.0773 51.9185 14.408C51.7585 14.7333 51.5345 15.0107 51.2465 15.24C50.9638 15.4693 50.6252 15.648 50.2305 15.776C49.8412 15.8987 49.4172 15.96 48.9585 15.96C48.6492 15.96 48.3478 15.9307 48.0545 15.872C47.7985 16.0267 47.6705 16.2 47.6705 16.392C47.6705 16.5573 47.7452 16.68 47.8945 16.76C48.0492 16.8347 48.2492 16.888 48.4945 16.92C48.7452 16.952 49.0278 16.9733 49.3425 16.984C49.6572 16.9893 49.9798 17.0053 50.3105 17.032C50.6412 17.0587 50.9638 17.1067 51.2785 17.176C51.5932 17.24 51.8732 17.344 52.1185 17.488C52.3692 17.632 52.5692 17.8293 52.7185 18.08C52.8732 18.3253 52.9505 18.6427 52.9505 19.032C52.9505 19.3947 52.8598 19.7467 52.6785 20.088C52.5025 20.4293 52.2438 20.7333 51.9025 21C51.5665 21.2667 51.1532 21.48 50.6625 21.64C50.1718 21.8053 49.6118 21.888 48.9825 21.888C48.3585 21.888 47.8172 21.8267 47.3585 21.704C46.8998 21.5867 46.5185 21.4267 46.2145 21.224C45.9158 21.0267 45.6918 20.7973 45.5425 20.536C45.3932 20.2747 45.3185 20.0027 45.3185 19.72C45.3185 19.336 45.4358 19.0133 45.6705 18.752C45.9052 18.4907 46.2305 18.2827 46.6465 18.128C46.4438 18.016 46.2812 17.8667 46.1585 17.68C46.0358 17.4933 45.9745 17.2507 45.9745 16.952C45.9745 16.8293 45.9958 16.704 46.0385 16.576C46.0812 16.4427 46.1452 16.312 46.2305 16.184C46.3212 16.056 46.4332 15.936 46.5665 15.824C46.6998 15.7067 46.8572 15.6027 47.0385 15.512C46.6225 15.288 46.2945 14.9893 46.0545 14.616C45.8198 14.2427 45.7025 13.8053 45.7025 13.304C45.7025 12.8987 45.7825 12.5333 45.9425 12.208C46.1078 11.8773 46.3345 11.5973 46.6225 11.368C46.9158 11.1333 47.2598 10.9547 47.6545 10.832C48.0545 10.7093 48.4892 10.648 48.9585 10.648ZM51.1265 19.368C51.1265 19.208 51.0785 19.0773 50.9825 18.976C50.8865 18.8747 50.7558 18.7973 50.5905 18.744C50.4252 18.6853 50.2305 18.6427 50.0065 18.616C49.7878 18.5893 49.5532 18.5707 49.3025 18.56C49.0572 18.544 48.8012 18.5307 48.5345 18.52C48.2732 18.504 48.0198 18.48 47.7745 18.448C47.5505 18.5707 47.3692 18.7173 47.2305 18.888C47.0972 19.0533 47.0305 19.2453 47.0305 19.464C47.0305 19.608 47.0652 19.7413 47.1345 19.864C47.2092 19.992 47.3238 20.1013 47.4785 20.192C47.6385 20.2827 47.8438 20.352 48.0945 20.4C48.3452 20.4533 48.6518 20.48 49.0145 20.48C49.3825 20.48 49.6998 20.4507 49.9665 20.392C50.2332 20.3387 50.4518 20.2613 50.6225 20.16C50.7985 20.064 50.9265 19.9467 51.0065 19.808C51.0865 19.6747 51.1265 19.528 51.1265 19.368ZM48.9585 14.696C49.2038 14.696 49.4172 14.664 49.5985 14.6C49.7798 14.5307 49.9292 14.4373 50.0465 14.32C50.1692 14.2027 50.2598 14.0613 50.3185 13.896C50.3825 13.7307 50.4145 13.5493 50.4145 13.352C50.4145 12.9467 50.2918 12.6267 50.0465 12.392C49.8065 12.152 49.4438 12.032 48.9585 12.032C48.4732 12.032 48.1078 12.152 47.8625 12.392C47.6225 12.6267 47.5025 12.9467 47.5025 13.352C47.5025 13.544 47.5318 13.7227 47.5905 13.888C47.6545 14.0533 47.7452 14.1973 47.8625 14.32C47.9852 14.4373 48.1372 14.5307 48.3185 14.6C48.5052 14.664 48.7185 14.696 48.9585 14.696ZM59.5975 10.792V19H57.6215V10.792H59.5975ZM59.8935 8.4C59.8935 8.57067 59.8588 8.73067 59.7895 8.88C59.7202 9.02933 59.6268 9.16 59.5095 9.272C59.3975 9.384 59.2642 9.47467 59.1095 9.544C58.9548 9.608 58.7895 9.64 58.6135 9.64C58.4428 9.64 58.2802 9.608 58.1255 9.544C57.9762 9.47467 57.8455 9.384 57.7335 9.272C57.6215 9.16 57.5308 9.02933 57.4615 8.88C57.3975 8.73067 57.3655 8.57067 57.3655 8.4C57.3655 8.224 57.3975 8.05867 57.4615 7.904C57.5308 7.74933 57.6215 7.616 57.7335 7.504C57.8455 7.392 57.9762 7.304 58.1255 7.24C58.2802 7.17067 58.4428 7.136 58.6135 7.136C58.7895 7.136 58.9548 7.17067 59.1095 7.24C59.2642 7.304 59.3975 7.392 59.5095 7.504C59.6268 7.616 59.7202 7.74933 59.7895 7.904C59.8588 8.05867 59.8935 8.224 59.8935 8.4ZM61.8372 19V10.792H63.0453C63.3013 10.792 63.4693 10.912 63.5493 11.152L63.6853 11.8C63.8506 11.6293 64.0239 11.4747 64.2053 11.336C64.3919 11.1973 64.5866 11.0773 64.7893 10.976C64.9973 10.8747 65.2186 10.7973 65.4533 10.744C65.6879 10.6907 65.9439 10.664 66.2213 10.664C66.6693 10.664 67.0666 10.7413 67.4133 10.896C67.7599 11.0453 68.0479 11.2587 68.2773 11.536C68.5119 11.808 68.6879 12.136 68.8053 12.52C68.9279 12.8987 68.9893 13.3173 68.9893 13.776V19H67.0133V13.776C67.0133 13.2747 66.8959 12.888 66.6613 12.616C66.4319 12.3387 66.0853 12.2 65.6213 12.2C65.2799 12.2 64.9599 12.2773 64.6613 12.432C64.3626 12.5867 64.0799 12.7973 63.8133 13.064V19H61.8372ZM74.7128 19.024C74.6648 19.1467 74.6034 19.2533 74.5288 19.344C74.4541 19.4347 74.3688 19.5093 74.2728 19.568C74.1768 19.632 74.0754 19.68 73.9688 19.712C73.8621 19.744 73.7581 19.76 73.6568 19.76H72.8247L77.4968 7.808C77.5874 7.584 77.7181 7.41333 77.8888 7.296C78.0594 7.17333 78.2648 7.112 78.5048 7.112H79.3448L74.7128 19.024ZM85.642 14.48V19H83.49V7.432H87.018C87.8073 7.432 88.482 7.51467 89.042 7.68C89.6073 7.84 90.0687 8.06667 90.426 8.36C90.7887 8.65333 91.0527 9.00533 91.218 9.416C91.3887 9.82133 91.474 10.2693 91.474 10.76C91.474 11.1493 91.4153 11.5173 91.298 11.864C91.186 12.2107 91.0207 12.5253 90.802 12.808C90.5887 13.0907 90.322 13.3387 90.002 13.552C89.6873 13.7653 89.3273 13.936 88.922 14.064C89.194 14.2187 89.4287 14.44 89.626 14.728L92.522 19H90.586C90.3993 19 90.2393 18.9627 90.106 18.888C89.978 18.8133 89.8687 18.7067 89.778 18.568L87.346 14.864C87.2553 14.7253 87.154 14.6267 87.042 14.568C86.9353 14.5093 86.7753 14.48 86.562 14.48H85.642ZM85.642 12.936H86.986C87.3913 12.936 87.7433 12.8853 88.042 12.784C88.346 12.6827 88.594 12.544 88.786 12.368C88.9833 12.1867 89.13 11.9733 89.226 11.728C89.322 11.4827 89.37 11.2133 89.37 10.92C89.37 10.3333 89.1753 9.88267 88.786 9.568C88.402 9.25333 87.8127 9.096 87.018 9.096H85.642V12.936ZM97.1824 10.664C97.6997 10.664 98.1744 10.7467 98.6064 10.912C99.0437 11.0773 99.4197 11.32 99.7344 11.64C100.049 11.9547 100.294 12.344 100.47 12.808C100.646 13.2667 100.734 13.792 100.734 14.384C100.734 14.5333 100.726 14.6587 100.71 14.76C100.7 14.856 100.676 14.9333 100.638 14.992C100.606 15.0453 100.561 15.0853 100.502 15.112C100.444 15.1333 100.369 15.144 100.278 15.144H95.2064C95.265 15.9867 95.4917 16.6053 95.8864 17C96.281 17.3947 96.8037 17.592 97.4544 17.592C97.7744 17.592 98.049 17.5547 98.2784 17.48C98.513 17.4053 98.7157 17.3227 98.8864 17.232C99.0624 17.1413 99.2144 17.0587 99.3424 16.984C99.4757 16.9093 99.6037 16.872 99.7264 16.872C99.8064 16.872 99.8757 16.888 99.9344 16.92C99.993 16.952 100.044 16.9973 100.086 17.056L100.662 17.776C100.444 18.032 100.198 18.248 99.9264 18.424C99.6544 18.5947 99.369 18.7333 99.0704 18.84C98.777 18.9413 98.4757 19.0133 98.1664 19.056C97.8624 19.0987 97.5664 19.12 97.2784 19.12C96.7077 19.12 96.177 19.0267 95.6864 18.84C95.1957 18.648 94.769 18.368 94.4064 18C94.0437 17.6267 93.7584 17.168 93.5504 16.624C93.3424 16.0747 93.2384 15.44 93.2384 14.72C93.2384 14.16 93.329 13.6347 93.5104 13.144C93.6917 12.648 93.9504 12.2187 94.2864 11.856C94.6277 11.488 95.041 11.1973 95.5264 10.984C96.017 10.7707 96.569 10.664 97.1824 10.664ZM97.2224 12.08C96.6464 12.08 96.1957 12.2427 95.8704 12.568C95.545 12.8933 95.337 13.3547 95.2464 13.952H98.9584C98.9584 13.696 98.9237 13.456 98.8544 13.232C98.785 13.0027 98.6784 12.8027 98.5344 12.632C98.3904 12.4613 98.209 12.328 97.9904 12.232C97.7717 12.1307 97.5157 12.08 97.2224 12.08ZM105.177 10.648C105.529 10.648 105.86 10.6853 106.169 10.76C106.479 10.8293 106.761 10.9333 107.017 11.072H109.377V11.808C109.377 11.9307 109.345 12.0267 109.281 12.096C109.217 12.1653 109.108 12.2133 108.953 12.24L108.217 12.376C108.271 12.5147 108.311 12.6613 108.337 12.816C108.369 12.9707 108.385 13.1333 108.385 13.304C108.385 13.7093 108.303 14.0773 108.137 14.408C107.977 14.7333 107.753 15.0107 107.465 15.24C107.183 15.4693 106.844 15.648 106.449 15.776C106.06 15.8987 105.636 15.96 105.177 15.96C104.868 15.96 104.567 15.9307 104.273 15.872C104.017 16.0267 103.889 16.2 103.889 16.392C103.889 16.5573 103.964 16.68 104.113 16.76C104.268 16.8347 104.468 16.888 104.713 16.92C104.964 16.952 105.247 16.9733 105.561 16.984C105.876 16.9893 106.199 17.0053 106.529 17.032C106.86 17.0587 107.183 17.1067 107.497 17.176C107.812 17.24 108.092 17.344 108.337 17.488C108.588 17.632 108.788 17.8293 108.937 18.08C109.092 18.3253 109.169 18.6427 109.169 19.032C109.169 19.3947 109.079 19.7467 108.897 20.088C108.721 20.4293 108.463 20.7333 108.121 21C107.785 21.2667 107.372 21.48 106.881 21.64C106.391 21.8053 105.831 21.888 105.201 21.888C104.577 21.888 104.036 21.8267 103.577 21.704C103.119 21.5867 102.737 21.4267 102.433 21.224C102.135 21.0267 101.911 20.7973 101.761 20.536C101.612 20.2747 101.537 20.0027 101.537 19.72C101.537 19.336 101.655 19.0133 101.889 18.752C102.124 18.4907 102.449 18.2827 102.865 18.128C102.663 18.016 102.5 17.8667 102.377 17.68C102.255 17.4933 102.193 17.2507 102.193 16.952C102.193 16.8293 102.215 16.704 102.257 16.576C102.3 16.4427 102.364 16.312 102.449 16.184C102.54 16.056 102.652 15.936 102.785 15.824C102.919 15.7067 103.076 15.6027 103.257 15.512C102.841 15.288 102.513 14.9893 102.273 14.616C102.039 14.2427 101.921 13.8053 101.921 13.304C101.921 12.8987 102.001 12.5333 102.161 12.208C102.327 11.8773 102.553 11.5973 102.841 11.368C103.135 11.1333 103.479 10.9547 103.873 10.832C104.273 10.7093 104.708 10.648 105.177 10.648ZM107.345 19.368C107.345 19.208 107.297 19.0773 107.201 18.976C107.105 18.8747 106.975 18.7973 106.809 18.744C106.644 18.6853 106.449 18.6427 106.225 18.616C106.007 18.5893 105.772 18.5707 105.521 18.56C105.276 18.544 105.02 18.5307 104.753 18.52C104.492 18.504 104.239 18.48 103.993 18.448C103.769 18.5707 103.588 18.7173 103.449 18.888C103.316 19.0533 103.249 19.2453 103.249 19.464C103.249 19.608 103.284 19.7413 103.353 19.864C103.428 19.992 103.543 20.1013 103.697 20.192C103.857 20.2827 104.063 20.352 104.313 20.4C104.564 20.4533 104.871 20.48 105.233 20.48C105.601 20.48 105.919 20.4507 106.185 20.392C106.452 20.3387 106.671 20.2613 106.841 20.16C107.017 20.064 107.145 19.9467 107.225 19.808C107.305 19.6747 107.345 19.528 107.345 19.368ZM105.177 14.696C105.423 14.696 105.636 14.664 105.817 14.6C105.999 14.5307 106.148 14.4373 106.265 14.32C106.388 14.2027 106.479 14.0613 106.537 13.896C106.601 13.7307 106.633 13.5493 106.633 13.352C106.633 12.9467 106.511 12.6267 106.265 12.392C106.025 12.152 105.663 12.032 105.177 12.032C104.692 12.032 104.327 12.152 104.081 12.392C103.841 12.6267 103.721 12.9467 103.721 13.352C103.721 13.544 103.751 13.7227 103.809 13.888C103.873 14.0533 103.964 14.1973 104.081 14.32C104.204 14.4373 104.356 14.5307 104.537 14.6C104.724 14.664 104.937 14.696 105.177 14.696ZM112.723 10.792V19H110.747V10.792H112.723ZM113.019 8.4C113.019 8.57067 112.984 8.73067 112.915 8.88C112.845 9.02933 112.752 9.16 112.635 9.272C112.523 9.384 112.389 9.47467 112.235 9.544C112.08 9.608 111.915 9.64 111.739 9.64C111.568 9.64 111.405 9.608 111.251 9.544C111.101 9.47467 110.971 9.384 110.859 9.272C110.747 9.16 110.656 9.02933 110.587 8.88C110.523 8.73067 110.491 8.57067 110.491 8.4C110.491 8.224 110.523 8.05867 110.587 7.904C110.656 7.74933 110.747 7.616 110.859 7.504C110.971 7.392 111.101 7.304 111.251 7.24C111.405 7.17067 111.568 7.136 111.739 7.136C111.915 7.136 112.08 7.17067 112.235 7.24C112.389 7.304 112.523 7.392 112.635 7.504C112.752 7.616 112.845 7.74933 112.915 7.904C112.984 8.05867 113.019 8.224 113.019 8.4ZM119.834 12.392C119.781 12.4773 119.725 12.5387 119.666 12.576C119.608 12.608 119.533 12.624 119.442 12.624C119.346 12.624 119.242 12.5973 119.13 12.544C119.024 12.4907 118.898 12.432 118.754 12.368C118.61 12.2987 118.445 12.2373 118.258 12.184C118.077 12.1307 117.861 12.104 117.61 12.104C117.221 12.104 116.914 12.1867 116.69 12.352C116.466 12.5173 116.354 12.7333 116.354 13C116.354 13.176 116.41 13.3253 116.522 13.448C116.64 13.5653 116.792 13.6693 116.978 13.76C117.17 13.8507 117.386 13.9333 117.626 14.008C117.866 14.0773 118.112 14.1547 118.362 14.24C118.613 14.3253 118.858 14.424 119.098 14.536C119.338 14.6427 119.552 14.7813 119.738 14.952C119.93 15.1173 120.082 15.3173 120.194 15.552C120.312 15.7867 120.37 16.0693 120.37 16.4C120.37 16.7947 120.298 17.16 120.154 17.496C120.01 17.8267 119.8 18.1147 119.522 18.36C119.245 18.6 118.901 18.7893 118.49 18.928C118.085 19.0613 117.618 19.128 117.09 19.128C116.808 19.128 116.53 19.1013 116.258 19.048C115.992 19 115.733 18.9307 115.482 18.84C115.237 18.7493 115.008 18.6427 114.794 18.52C114.586 18.3973 114.402 18.264 114.242 18.12L114.698 17.368C114.757 17.2773 114.826 17.208 114.906 17.16C114.986 17.112 115.088 17.088 115.21 17.088C115.333 17.088 115.448 17.1227 115.554 17.192C115.666 17.2613 115.794 17.336 115.938 17.416C116.082 17.496 116.25 17.5707 116.442 17.64C116.64 17.7093 116.888 17.744 117.186 17.744C117.421 17.744 117.621 17.7173 117.786 17.664C117.957 17.6053 118.096 17.5307 118.202 17.44C118.314 17.3493 118.394 17.2453 118.442 17.128C118.496 17.0053 118.522 16.88 118.522 16.752C118.522 16.56 118.464 16.4027 118.346 16.28C118.234 16.1573 118.082 16.0507 117.89 15.96C117.704 15.8693 117.488 15.7893 117.242 15.72C117.002 15.6453 116.754 15.5653 116.498 15.48C116.248 15.3947 116 15.296 115.754 15.184C115.514 15.0667 115.298 14.92 115.106 14.744C114.92 14.568 114.768 14.352 114.65 14.096C114.538 13.84 114.482 13.5307 114.482 13.168C114.482 12.832 114.549 12.512 114.682 12.208C114.816 11.904 115.01 11.64 115.266 11.416C115.528 11.1867 115.85 11.0053 116.234 10.872C116.624 10.7333 117.072 10.664 117.578 10.664C118.144 10.664 118.658 10.7573 119.122 10.944C119.586 11.1307 119.973 11.376 120.282 11.68L119.834 12.392ZM124.643 19.128C123.933 19.128 123.387 18.928 123.003 18.528C122.619 18.1227 122.427 17.5653 122.427 16.856V12.272H121.595C121.488 12.272 121.395 12.2373 121.315 12.168C121.24 12.0987 121.203 11.9947 121.203 11.856V11.072L122.523 10.856L122.939 8.616C122.96 8.50933 123.008 8.42667 123.083 8.368C123.163 8.30933 123.261 8.28 123.379 8.28H124.403V10.864H126.563V12.272H124.403V16.72C124.403 16.976 124.467 17.176 124.595 17.32C124.723 17.464 124.893 17.536 125.107 17.536C125.229 17.536 125.331 17.5227 125.411 17.496C125.496 17.464 125.568 17.432 125.627 17.4C125.691 17.368 125.747 17.3387 125.795 17.312C125.843 17.28 125.891 17.264 125.939 17.264C125.997 17.264 126.045 17.28 126.083 17.312C126.12 17.3387 126.16 17.3813 126.203 17.44L126.795 18.4C126.507 18.64 126.176 18.8213 125.803 18.944C125.429 19.0667 125.043 19.128 124.643 19.128ZM131.526 10.664C132.043 10.664 132.518 10.7467 132.95 10.912C133.387 11.0773 133.763 11.32 134.078 11.64C134.393 11.9547 134.638 12.344 134.814 12.808C134.99 13.2667 135.078 13.792 135.078 14.384C135.078 14.5333 135.07 14.6587 135.054 14.76C135.043 14.856 135.019 14.9333 134.982 14.992C134.95 15.0453 134.905 15.0853 134.846 15.112C134.787 15.1333 134.713 15.144 134.622 15.144H129.55C129.609 15.9867 129.835 16.6053 130.23 17C130.625 17.3947 131.147 17.592 131.798 17.592C132.118 17.592 132.393 17.5547 132.622 17.48C132.857 17.4053 133.059 17.3227 133.23 17.232C133.406 17.1413 133.558 17.0587 133.686 16.984C133.819 16.9093 133.947 16.872 134.07 16.872C134.15 16.872 134.219 16.888 134.278 16.92C134.337 16.952 134.387 16.9973 134.43 17.056L135.006 17.776C134.787 18.032 134.542 18.248 134.27 18.424C133.998 18.5947 133.713 18.7333 133.414 18.84C133.121 18.9413 132.819 19.0133 132.51 19.056C132.206 19.0987 131.91 19.12 131.622 19.12C131.051 19.12 130.521 19.0267 130.03 18.84C129.539 18.648 129.113 18.368 128.75 18C128.387 17.6267 128.102 17.168 127.894 16.624C127.686 16.0747 127.582 15.44 127.582 14.72C127.582 14.16 127.673 13.6347 127.854 13.144C128.035 12.648 128.294 12.2187 128.63 11.856C128.971 11.488 129.385 11.1973 129.87 10.984C130.361 10.7707 130.913 10.664 131.526 10.664ZM131.566 12.08C130.99 12.08 130.539 12.2427 130.214 12.568C129.889 12.8933 129.681 13.3547 129.59 13.952H133.302C133.302 13.696 133.267 13.456 133.198 13.232C133.129 13.0027 133.022 12.8027 132.878 12.632C132.734 12.4613 132.553 12.328 132.334 12.232C132.115 12.1307 131.859 12.08 131.566 12.08ZM136.681 19V10.792H137.841C138.044 10.792 138.185 10.8293 138.265 10.904C138.345 10.9787 138.398 11.1067 138.425 11.288L138.545 12.28C138.838 11.7733 139.182 11.3733 139.577 11.08C139.972 10.7867 140.414 10.64 140.905 10.64C141.31 10.64 141.646 10.7333 141.913 10.92L141.657 12.4C141.641 12.496 141.606 12.5653 141.553 12.608C141.5 12.6453 141.428 12.664 141.337 12.664C141.257 12.664 141.148 12.6453 141.009 12.608C140.87 12.5707 140.686 12.552 140.457 12.552C140.046 12.552 139.694 12.6667 139.401 12.896C139.108 13.12 138.86 13.4507 138.657 13.888V19H136.681Z" fill="#424551"/>
</svg>
