<svg width="16" height="16" viewBox="0 0 16 16" fill="none" xmlns="http://www.w3.org/2000/svg">
<g clip-path="url(#clip0_2492_17665)">
<path d="M8 15.3337C12.0434 15.3337 15.3333 12.044 15.3333 8.00033C15.3333 7.30238 15.2359 6.61458 15.043 5.95588C14.948 5.63197 14.6097 5.44592 14.2849 5.54096C13.9607 5.6357 13.7753 5.97512 13.87 6.29903C14.0298 6.84629 14.1111 7.4189 14.1111 8.00033C14.1111 11.3699 11.3696 14.1114 8 14.1114C4.63039 14.1114 1.88889 11.3699 1.88889 8.00033C1.88889 4.63071 4.63039 1.88921 8 1.88921C9.22461 1.88921 10.4028 2.24729 11.4072 2.92449C11.6868 3.11323 12.067 3.03908 12.2554 2.75948C12.444 2.47959 12.3704 2.09973 12.0905 1.91115C10.8835 1.09728 9.46915 0.666992 8 0.666992C3.95662 0.666992 0.666672 3.95664 0.666672 8.00033C0.666672 12.044 3.95662 15.3337 8 15.3337Z" fill="#FF3F3A"/>
<path d="M14.8619 1.52885L7.99988 8.3905L5.80457 6.19552C5.54415 5.93526 5.12228 5.93526 4.86186 6.19552C4.60161 6.45593 4.60161 6.87781 4.86186 7.13822L7.52853 9.80489C7.6589 9.93526 7.82915 10.0002 7.99988 10.0002C8.17062 10.0002 8.34087 9.93526 8.47124 9.80489L15.8046 2.47156C16.0648 2.21114 16.0648 1.78927 15.8046 1.52885C15.5442 1.2686 15.1223 1.2686 14.8619 1.52885Z" fill="#FF3F3A"/>
</g>
<defs>
<clipPath id="clip0_2492_17665">
<rect width="16" height="16" fill="white"/>
</clipPath>
</defs>
</svg>
