<svg width="72" height="24" viewBox="0 0 72 24" fill="none" xmlns="http://www.w3.org/2000/svg">
<path fill-rule="evenodd" clip-rule="evenodd" d="M62.7929 6.79289C63.1834 6.40237 63.8166 6.40237 64.2071 6.79289L68.7071 11.2929C69.0976 11.6834 69.0976 12.3166 68.7071 12.7071L64.2071 17.2071C63.8166 17.5976 63.1834 17.5976 62.7929 17.2071C62.4024 16.8166 62.4024 16.1834 62.7929 15.7929L65.5858 13H52C51.4477 13 51 12.5523 51 12C51 11.4477 51.4477 11 52 11H65.5858L62.7929 8.20711C62.4024 7.81658 62.4024 7.18342 62.7929 6.79289Z" fill="#424551"/>
<path fill-rule="evenodd" clip-rule="evenodd" d="M9.20711 17.2071C8.81658 17.5976 8.18342 17.5976 7.79289 17.2071L3.29289 12.7071C2.90237 12.3166 2.90237 11.6834 3.29289 11.2929L7.79289 6.79289C8.18342 6.40237 8.81658 6.40237 9.20711 6.79289C9.59763 7.18342 9.59763 7.81658 9.20711 8.20711L6.41421 11L20 11C20.5523 11 21 11.4477 21 12C21 12.5523 20.5523 13 20 13L6.41421 13L9.20711 15.7929C9.59763 16.1834 9.59763 16.8166 9.20711 17.2071Z" fill="#424551"/>
</svg>
