<svg width="130" height="22" viewBox="0 0 130 22" fill="none" xmlns="http://www.w3.org/2000/svg">
<g clip-path="url(#clip0_70689_668)">
<path d="M-0.000213623 11.1008C-0.000213623 5.00078 3.29979 1.30078 8.69979 1.30078C12.7998 1.30078 16.0998 3.80078 16.6998 7.50078C16.7998 7.90078 16.4998 8.20078 16.0998 8.20078H13.4998C13.1998 8.20078 12.9998 8.00078 12.8998 7.70078C12.3998 5.80078 10.7998 4.60078 8.69979 4.60078C5.79979 4.60078 3.99979 7.10078 3.99979 11.1008C3.99979 15.1008 5.79979 17.6008 8.79979 17.6008C10.8998 17.6008 12.3998 16.5008 12.9998 14.7008C13.0998 14.4008 13.2998 14.2008 13.5998 14.2008H16.1998C16.5998 14.2008 16.8998 14.6008 16.7998 14.9008C16.1998 18.5008 12.9998 20.9008 8.79979 20.9008C3.29979 20.9008 -0.000213623 17.1008 -0.000213623 11.1008Z" fill="white"/>
<path d="M24.2994 20.401H21.3994C21.0994 20.401 20.8994 20.201 20.8994 19.901V2.60104C20.8994 2.20104 21.2994 1.80104 21.6994 1.80104H28.6994C32.7994 1.80104 35.2994 4.10104 35.2994 7.70104C35.2994 9.80104 34.2994 11.701 32.5994 12.701C32.1994 12.901 32.0994 13.401 32.2994 13.701L35.3994 19.601C35.5994 19.901 35.2994 20.301 34.9994 20.301H31.6994C31.4994 20.301 31.2994 20.201 31.1994 20.001L28.2994 14.001C28.1994 13.701 27.8994 13.601 27.5994 13.601H25.2994C24.9994 13.601 24.7994 13.801 24.7994 14.101V20.001C24.8994 20.201 24.5994 20.401 24.2994 20.401ZM24.8994 10.201C24.8994 10.501 25.0994 10.701 25.3994 10.701H28.3994C30.3994 10.701 31.4994 9.60104 31.4994 7.80104C31.4994 6.00104 30.2994 4.90104 28.3994 4.90104H25.4994C25.1994 4.90104 24.9994 5.10104 24.9994 5.40104V10.201H24.8994Z" fill="white"/>
<path d="M51.4996 20.401H40.4996C40.0996 20.401 39.7996 20.101 39.7996 19.701V2.50104C39.7996 2.10104 40.0996 1.80104 40.4996 1.80104H51.4996C51.8996 1.80104 52.1996 2.10104 52.1996 2.50104V4.40104C52.1996 4.80104 51.8996 5.10104 51.4996 5.10104H44.1996C43.8996 5.10104 43.6996 5.30104 43.6996 5.60104V9.00104C43.6996 9.30104 43.8996 9.50104 44.1996 9.50104H50.9996C51.3996 9.50104 51.6996 9.80104 51.6996 10.201V11.901C51.6996 12.301 51.3996 12.601 50.9996 12.601H44.1996C43.8996 12.601 43.6996 12.801 43.6996 13.101V16.901C43.6996 17.201 43.8996 17.401 44.1996 17.401H51.4996C51.8996 17.401 52.1996 17.701 52.1996 18.101V20.001C52.1996 20.101 51.8996 20.401 51.4996 20.401Z" fill="white"/>
<path d="M66.9997 15.901H61.2997C60.9997 15.901 60.7997 16.101 60.6997 16.301L59.5997 20.001C59.4997 20.301 59.2997 20.401 58.9997 20.401H56.3997C55.9997 20.401 55.6997 20.001 55.7997 19.601L61.7997 2.20104C61.8997 2.00104 62.0997 1.80104 62.3997 1.80104H66.0997C66.3997 1.80104 66.5997 2.00104 66.6997 2.20104L72.6997 19.601C72.7997 20.001 72.4997 20.401 72.0997 20.401H69.1997C68.8997 20.401 68.6997 20.201 68.5997 20.001L67.4997 16.301C67.4997 16.101 67.1997 15.901 66.9997 15.901ZM62.0997 13.001H66.1997C66.3997 13.001 66.4997 12.801 66.4997 12.601L64.2997 5.60104H64.0997L61.8997 12.601C61.7997 12.801 61.8997 13.001 62.0997 13.001Z" fill="white"/>
<path d="M78.9999 19.7014V5.50143C78.9999 5.20143 78.7999 5.00143 78.4999 5.00143H74.0999C73.6999 5.00143 73.2999 4.70143 73.2999 4.20143V2.50143C73.2999 2.10143 73.5999 1.70143 74.0999 1.70143H87.6999C88.0999 1.70143 88.4999 2.00143 88.4999 2.50143V4.20143C88.4999 4.60143 88.1999 5.00143 87.6999 5.00143H83.2999C82.9999 5.00143 82.7999 5.20143 82.7999 5.50143V19.8014C82.7999 20.2014 82.4999 20.5014 82.0999 20.5014H79.5999C79.2999 20.4014 78.9999 20.1014 78.9999 19.7014Z" fill="white"/>
<path d="M103.8 20.401H92.7997C92.3997 20.401 92.0996 20.101 92.0996 19.701V2.50104C92.0996 2.10104 92.3997 1.80104 92.7997 1.80104H103.8C104.2 1.80104 104.5 2.10104 104.5 2.50104V4.40104C104.5 4.80104 104.2 5.10104 103.8 5.10104H96.4996C96.1996 5.10104 95.9996 5.30104 95.9996 5.60104V9.00104C95.9996 9.30104 96.1996 9.50104 96.4996 9.50104H103.3C103.7 9.50104 104 9.80104 104 10.201V11.901C104 12.301 103.7 12.601 103.3 12.601H96.4996C96.1996 12.601 95.9996 12.801 95.9996 13.101V16.901C95.9996 17.201 96.1996 17.401 96.4996 17.401H103.8C104.2 17.401 104.5 17.701 104.5 18.101V20.001C104.5 20.101 104.2 20.401 103.8 20.401Z" fill="white"/>
<path d="M117.7 9.7L111.5 1.6C111.1 1.2 110.6 1 110.1 1C109.6 1 109.1 1.2 108.7 1.6C108 2.4 108 3.6 108.7 4.4L113.6 11L108.7 17.6C108 18.4 108 19.6 108.7 20.4C109.1 20.8 109.6 21 110.1 21C110.6 21 111.1 20.8 111.5 20.4L117.7 12.3C118.4 11.7 118.4 10.5 117.7 9.7Z" fill="#FF3F3A"/>
<path d="M120.343 9.7L126.543 1.6C126.943 1.2 127.443 1 127.943 1C128.443 1 128.943 1.2 129.343 1.6C130.043 2.4 130.043 3.6 129.343 4.4L124.443 11L129.343 17.6C130.043 18.4 130.043 19.6 129.343 20.4C128.943 20.8 128.443 21 127.943 21C127.443 21 126.943 20.8 126.543 20.4L120.343 12.3C119.643 11.7 119.643 10.5 120.343 9.7Z" fill="#FF3F3A"/>
</g>
<defs>
<clipPath id="clip0_70689_668">
<rect width="130" height="22" fill="white"/>
</clipPath>
</defs>
</svg>
