<svg width="16" height="16" viewBox="0 0 16 16" fill="none" xmlns="http://www.w3.org/2000/svg">
<g clip-path="url(#clip0_2492_17713)">
<path fill-rule="evenodd" clip-rule="evenodd" d="M10.7118 6.941C11.41 7.47466 11.41 8.52605 10.7118 9.0597L7.65853 11.3933C6.78113 12.0639 5.51553 11.4383 5.51553 10.334V5.66673C5.51553 4.56241 6.78113 3.93678 7.65853 4.60738L10.7118 6.941ZM9.90216 8.00035L6.84887 5.66673L6.84887 10.334L9.90216 8.00035Z" fill="#FF3F3A"/>
<path fill-rule="evenodd" clip-rule="evenodd" d="M7.99996 2.00033C4.68625 2.00033 1.99996 4.68662 1.99996 8.00033C1.99996 11.314 4.68625 14.0003 7.99996 14.0003C11.3137 14.0003 14 11.314 14 8.00033C14 4.68662 11.3137 2.00033 7.99996 2.00033ZM0.666626 8.00033C0.666626 3.95024 3.94987 0.666992 7.99996 0.666992C12.05 0.666992 15.3333 3.95024 15.3333 8.00033C15.3333 12.0504 12.05 15.3337 7.99996 15.3337C3.94987 15.3337 0.666626 12.0504 0.666626 8.00033Z" fill="#FF3F3A"/>
</g>
<defs>
<clipPath id="clip0_2492_17713">
<rect width="16" height="16" fill="white"/>
</clipPath>
</defs>
</svg>
