<svg width="16" height="16" viewBox="0 0 16 16" fill="none" xmlns="http://www.w3.org/2000/svg">
<path fill-rule="evenodd" clip-rule="evenodd" d="M8.00009 2.16634C6.71142 2.16634 5.66676 3.21101 5.66676 4.49967C5.66676 5.78834 6.71142 6.83301 8.00009 6.83301C9.28875 6.83301 10.3334 5.78834 10.3334 4.49967C10.3334 3.21101 9.28875 2.16634 8.00009 2.16634ZM4.33342 4.49967C4.33342 2.47463 5.97505 0.833008 8.00009 0.833008C10.0251 0.833008 11.6668 2.47463 11.6668 4.49967C11.6668 6.52472 10.0251 8.16634 8.00009 8.16634C5.97505 8.16634 4.33342 6.52472 4.33342 4.49967Z" fill="#FF3F3A"/>
<path fill-rule="evenodd" clip-rule="evenodd" d="M4.06946 10.1663C3.60725 10.1663 3.24598 10.3914 3.09933 10.7148C2.89636 11.1623 2.71255 11.6951 2.66918 12.2005C2.64979 12.4264 2.74398 12.5928 2.87377 12.6735C3.55988 13.0997 5.14968 13.833 8.00009 13.833C10.8505 13.833 12.4403 13.0997 13.1264 12.6735C13.2562 12.5928 13.3504 12.4264 13.331 12.2005C13.2876 11.6951 13.1038 11.1623 12.9009 10.7148C12.7542 10.3914 12.3929 10.1663 11.9307 10.1663H4.06946ZM1.88504 10.164C2.29034 9.27039 3.19536 8.83301 4.06946 8.83301H11.9307C12.8048 8.83301 13.7098 9.27039 14.1151 10.164C14.3479 10.6773 14.5977 11.3673 14.6594 12.0864C14.7156 12.7413 14.4435 13.4249 13.83 13.8061C12.9276 14.3666 11.0932 15.1663 8.00009 15.1663C4.90702 15.1663 3.07256 14.3666 2.1702 13.8061C1.55669 13.4249 1.28453 12.7413 1.34073 12.0864C1.40245 11.3673 1.65225 10.6773 1.88504 10.164Z" fill="#FF3F3A"/>
</svg>
