<svg width="244" height="24" viewBox="0 0 244 24" fill="none" xmlns="http://www.w3.org/2000/svg">
<g opacity="0.6">
<path d="M17.5629 1.00458L14.7857 1C11.6655 1 9.64911 3.12509 9.64911 6.41423V8.91055H6.8567C6.6154 8.91055 6.42 9.1115 6.42 9.35937V12.9763C6.42 13.2241 6.61562 13.4249 6.8567 13.4249H9.64911V22.5514C9.64911 22.7993 9.84451 23 10.0858 23H13.7291C13.9704 23 14.1658 22.799 14.1658 22.5514V13.4249H17.4308C17.6721 13.4249 17.8675 13.2241 17.8675 12.9763L17.8688 9.35937C17.8688 9.24036 17.8227 9.12638 17.7409 9.04215C17.6592 8.95793 17.5478 8.91055 17.4319 8.91055H14.1658V6.79439C14.1658 5.77728 14.4018 5.26094 15.6916 5.26094L17.5625 5.26025C17.8035 5.26025 17.9989 5.0593 17.9989 4.81166V1.45317C17.9989 1.20576 17.8038 1.00504 17.5629 1.00458Z" fill="white"/>
</g>
<g opacity="0.6">
<path d="M66.5 5.77233C65.7271 6.10027 64.8978 6.32267 64.0264 6.42196C64.9161 5.91181 65.5972 5.10263 65.92 4.1414C65.0854 4.61383 64.1642 4.95688 63.1826 5.14285C62.3966 4.33994 61.2785 3.83984 60.0384 3.83984C57.6593 3.83984 55.7303 5.68691 55.7303 7.9637C55.7303 8.2866 55.7683 8.60199 55.8418 8.90357C52.262 8.73141 49.0877 7.08917 46.9631 4.59372C46.5918 5.20189 46.3805 5.91053 46.3805 6.66697C46.3805 8.09814 47.1416 9.36093 48.2964 10.0997C47.5904 10.0771 46.9264 9.89116 46.3451 9.58205V9.63357C46.3451 11.6314 47.8306 13.2988 49.8002 13.6783C49.4394 13.7713 49.0588 13.8228 48.6651 13.8228C48.387 13.8228 48.1179 13.7964 47.8542 13.7461C48.4027 15.3859 49.9931 16.5783 51.8776 16.611C50.4039 17.7167 48.5457 18.3739 46.5275 18.3739C46.1798 18.3739 45.8372 18.3537 45.5 18.3173C47.4067 19.4896 49.6704 20.1732 52.1033 20.1732C60.028 20.1732 64.3597 13.8881 64.3597 8.43741L64.3453 7.90341C65.1917 7.32537 65.9239 6.59912 66.5 5.77233Z" fill="white"/>
</g>
<g opacity="0.6">
<path fill-rule="evenodd" clip-rule="evenodd" d="M109.39 4.11358C110.418 4.39044 111.229 5.20086 111.506 6.22899C112.02 8.10691 112 12.0213 112 12.0213C112 12.0213 112 15.9158 111.506 17.7939C111.229 18.8218 110.418 19.6324 109.39 19.9091C107.512 20.4035 100 20.4035 100 20.4035C100 20.4035 92.5073 20.4035 90.6096 19.8895C89.5815 19.6127 88.7711 18.802 88.4942 17.7741C88 15.9158 88 12.0015 88 12.0015C88 12.0015 88 8.10691 88.4942 6.22899C88.7709 5.20104 89.6013 4.37066 90.6094 4.09399C92.4875 3.59961 99.9998 3.59961 99.9998 3.59961C99.9998 3.59961 107.512 3.59961 109.39 4.11358ZM103.855 12.0016L97.6079 15.5996V8.40355L103.855 12.0016Z" fill="white"/>
</g>
<g opacity="0.6">
<path d="M141.633 15.1813L141.269 20.7653C141.789 20.7653 142.015 20.5213 142.285 20.2283L144.726 17.6833L149.785 21.7243C150.712 22.2883 151.366 21.9913 151.616 20.7933L154.937 3.8214L154.937 3.8204C155.232 2.3244 154.442 1.73941 153.538 2.1064L134.021 10.2574C132.689 10.8214 132.71 11.6314 133.795 11.9984L138.784 13.6913L150.374 5.78039C150.92 5.38639 151.416 5.60439 151.008 5.99839L141.633 15.1813Z" fill="white"/>
</g>
<g opacity="0.6">
<path d="M197.98 7.88005C197.934 6.81738 197.762 6.0868 197.516 5.45374C197.262 4.78176 196.871 4.18014 196.359 3.68002C195.859 3.1721 195.253 2.77743 194.589 2.52745C193.952 2.28127 193.226 2.10943 192.163 2.06257C191.092 2.01175 190.752 2 188.037 2C185.322 2 184.982 2.01175 183.915 2.05861C182.852 2.10546 182.122 2.27746 181.489 2.52348C180.817 2.77743 180.215 3.16814 179.715 3.68002C179.207 4.18014 178.813 4.78573 178.563 5.44992C178.316 6.0868 178.145 6.81341 178.098 7.87609C178.047 8.9467 178.035 9.28658 178.035 12.002C178.035 14.7173 178.047 15.0572 178.094 16.1239C178.141 17.1865 178.313 17.9171 178.559 18.5502C178.813 19.2221 179.207 19.8238 179.715 20.3239C180.215 20.8318 180.821 21.2265 181.485 21.4765C182.122 21.7226 182.849 21.8945 183.911 21.9413C184.978 21.9883 185.318 21.9999 188.033 21.9999C190.749 21.9999 191.088 21.9883 192.155 21.9413C193.218 21.8945 193.948 21.7226 194.581 21.4765C195.925 20.9568 196.988 19.8941 197.508 18.5502C197.754 17.9133 197.926 17.1865 197.973 16.1239C198.019 15.0572 198.031 14.7173 198.031 12.002C198.031 9.28658 198.027 8.9467 197.98 7.88005ZM196.179 16.0457C196.136 17.0225 195.972 17.5499 195.836 17.9015C195.499 18.7728 194.808 19.4643 193.937 19.8004C193.585 19.9372 193.054 20.1012 192.081 20.1441C191.026 20.1911 190.71 20.2027 188.041 20.2027C185.373 20.2027 185.052 20.1911 184.001 20.1441C183.024 20.1012 182.497 19.9372 182.145 19.8004C181.712 19.6402 181.317 19.3862 180.997 19.0541C180.665 18.7298 180.411 18.3391 180.25 17.9055C180.114 17.5539 179.95 17.0225 179.907 16.0497C179.86 14.9948 179.848 14.6783 179.848 12.0097C179.848 9.34122 179.86 9.02087 179.907 7.96995C179.95 6.99319 180.114 6.46575 180.25 6.11412C180.411 5.68038 180.665 5.28586 181.001 4.96536C181.325 4.63327 181.715 4.37931 182.149 4.21921C182.501 4.08247 183.032 3.9184 184.005 3.87537C185.06 3.82851 185.376 3.81676 188.045 3.81676C190.717 3.81676 191.034 3.82851 192.085 3.87537C193.062 3.9184 193.589 4.08247 193.941 4.21921C194.374 4.37931 194.769 4.63327 195.089 4.96536C195.421 5.28967 195.675 5.68038 195.836 6.11412C195.972 6.46575 196.136 6.99701 196.179 7.96995C196.226 9.02484 196.238 9.34122 196.238 12.0097C196.238 14.6783 196.226 14.9908 196.179 16.0457Z" fill="white"/>
<path d="M188.037 6.86423C185.201 6.86423 182.899 9.1654 182.899 12.002C182.899 14.8385 185.201 17.1397 188.037 17.1397C190.874 17.1397 193.175 14.8385 193.175 12.002C193.175 9.1654 190.874 6.86423 188.037 6.86423ZM188.037 15.3347C186.197 15.3347 184.704 13.8422 184.704 12.002C184.704 10.1617 186.197 8.66924 188.037 8.66924C189.877 8.66924 191.37 10.1617 191.37 12.002C191.37 13.8422 189.877 15.3347 188.037 15.3347Z" fill="white"/>
<path d="M194.578 6.6611C194.578 7.32346 194.04 7.86053 193.378 7.86053C192.716 7.86053 192.179 7.32346 192.179 6.6611C192.179 5.99858 192.716 5.46167 193.378 5.46167C194.04 5.46167 194.578 5.99858 194.578 6.6611Z" fill="white"/>
</g>
<g opacity="0.6">
<path d="M241.995 22L242 21.9992V14.6642C242 11.0758 241.228 8.31167 237.033 8.31167C235.016 8.31167 233.662 9.41833 233.11 10.4675H233.052V8.64667H229.074V21.9992H233.216V15.3875C233.216 13.6467 233.546 11.9633 235.702 11.9633C237.826 11.9633 237.858 13.95 237.858 15.4992V22H241.995Z" fill="white"/>
<path d="M222.33 8.6475H226.477V22H222.33V8.6475Z" fill="white"/>
<path d="M224.402 2C223.076 2 222 3.07583 222 4.40167C222 5.7275 223.076 6.82583 224.402 6.82583C225.727 6.82583 226.803 5.7275 226.803 4.40167C226.802 3.07583 225.727 2 224.402 2Z" fill="white"/>
</g>
</svg>
