<svg width="168" height="24" viewBox="0 0 168 24" fill="none" xmlns="http://www.w3.org/2000/svg">
<path d="M17.5629 1.00458L14.7857 1C11.6655 1 9.64912 3.12509 9.64912 6.41423V8.91055H6.85671C6.61541 8.91055 6.42001 9.1115 6.42001 9.35937V12.9763C6.42001 13.2241 6.61564 13.4249 6.85671 13.4249H9.64912V22.5514C9.64912 22.7993 9.84452 23 10.0858 23H13.7291C13.9704 23 14.1658 22.799 14.1658 22.5514V13.4249H17.4308C17.6721 13.4249 17.8675 13.2241 17.8675 12.9763L17.8688 9.35937C17.8688 9.24036 17.8227 9.12638 17.741 9.04215C17.6592 8.95793 17.5478 8.91055 17.4319 8.91055H14.1658V6.79439C14.1658 5.77728 14.4018 5.26094 15.6916 5.26094L17.5625 5.26025C17.8036 5.26025 17.999 5.0593 17.999 4.81166V1.45317C17.999 1.20576 17.8038 1.00504 17.5629 1.00458Z" fill="#787A80"/>
<g clip-path="url(#clip0_2492_17706)">
<path d="M60.3652 15.1437C60.3652 13.1724 59.486 11.7153 57.6697 11.1692C58.9949 10.4961 59.6861 9.47637 59.6861 7.8902C59.6861 4.76268 57.4937 4 54.9642 4H48V19.7027H55.1593C57.8437 19.7027 60.3652 18.3341 60.3652 15.1437ZM51.2466 6.68058H54.2931C55.4643 6.68058 56.5185 7.03045 56.5185 8.47475C56.5185 9.8081 55.6984 10.3446 54.5382 10.3446H51.2466V6.68058ZM51.2456 17.036V12.7116H54.7842C56.2135 12.7116 57.1176 13.3452 57.1176 14.9538C57.1176 16.54 56.0384 17.036 54.7172 17.036H51.2456Z" fill="#787A80"/>
<path d="M66.7993 20C69.3537 20 71.008 18.7765 71.8041 16.1759H69.2117C68.9326 17.1466 67.7824 17.6597 66.8903 17.6597C65.169 17.6597 64.2648 16.5877 64.2648 14.7658H71.9792C72.2232 11.1198 70.3189 8.01257 66.7983 8.01257C63.5387 8.01257 61.3263 10.6174 61.3263 14.0297C61.3263 17.5711 63.4227 20 66.7993 20ZM66.7073 10.3721C68.1825 10.3721 68.9246 11.2937 69.0487 12.8009H64.2688C64.3658 11.3065 65.299 10.3721 66.7073 10.3721Z" fill="#787A80"/>
<path d="M63.6701 4.82507H69.6591V6.37177H63.6701V4.82507Z" fill="#787A80"/>
</g>
<path d="M118.5 5.77233C117.727 6.10027 116.898 6.32267 116.026 6.42196C116.916 5.91181 117.597 5.10263 117.92 4.1414C117.085 4.61383 116.164 4.95688 115.183 5.14285C114.397 4.33994 113.279 3.83984 112.038 3.83984C109.659 3.83984 107.73 5.68691 107.73 7.9637C107.73 8.2866 107.768 8.60199 107.842 8.90357C104.262 8.73141 101.088 7.08917 98.9631 4.59372C98.5918 5.20189 98.3805 5.91053 98.3805 6.66697C98.3805 8.09814 99.1416 9.36093 100.296 10.0997C99.5904 10.0771 98.9264 9.89116 98.3451 9.58205V9.63357C98.3451 11.6314 99.8306 13.2988 101.8 13.6783C101.439 13.7713 101.059 13.8228 100.665 13.8228C100.387 13.8228 100.118 13.7964 99.8542 13.7461C100.403 15.3859 101.993 16.5783 103.878 16.611C102.404 17.7167 100.546 18.3739 98.5275 18.3739C98.1798 18.3739 97.8372 18.3537 97.5 18.3173C99.4067 19.4896 101.67 20.1732 104.103 20.1732C112.028 20.1732 116.36 13.8881 116.36 8.43741L116.345 7.90341C117.192 7.32537 117.924 6.59912 118.5 5.77233Z" fill="#787A80"/>
<path d="M165.995 22L166 21.9992V14.6642C166 11.0758 165.228 8.31167 161.033 8.31167C159.016 8.31167 157.662 9.41833 157.11 10.4675H157.052V8.64667H153.074V21.9992H157.216V15.3875C157.216 13.6467 157.546 11.9633 159.702 11.9633C161.826 11.9633 161.858 13.95 161.858 15.4992V22H165.995Z" fill="#FF3F3A"/>
<path d="M146.33 8.6475H150.477V22H146.33V8.6475Z" fill="#FF3F3A"/>
<path d="M148.402 2C147.076 2 146 3.07583 146 4.40167C146 5.7275 147.076 6.82583 148.402 6.82583C149.727 6.82583 150.803 5.7275 150.803 4.40167C150.802 3.07583 149.727 2 148.402 2Z" fill="#FF3F3A"/>
<defs>
<clipPath id="clip0_2492_17706">
<rect width="24" height="24" fill="white" transform="translate(48)"/>
</clipPath>
</defs>
</svg>
