<svg width="16" height="16" viewBox="0 0 16 16" fill="none" xmlns="http://www.w3.org/2000/svg">
<path fill-rule="evenodd" clip-rule="evenodd" d="M6.77953 1.46807C7.24269 0.399968 8.75741 0.399967 9.22057 1.46807L10.6216 4.69907L14.1275 5.03314C15.2864 5.14357 15.7545 6.58415 14.8818 7.3547L12.2419 9.68564L13.0075 13.1231C13.2606 14.2595 12.0352 15.1498 11.0327 14.5579L8.00005 12.7675L4.96742 14.5579C3.9649 15.1498 2.73947 14.2595 2.99258 13.1231L3.75822 9.68564L1.11831 7.35471C0.245612 6.58415 0.713684 5.14357 1.87263 5.03314L5.37845 4.69907L6.77953 1.46807ZM9.40113 5.22833L8.00005 1.99733L6.59898 5.22833C6.40621 5.67287 5.987 5.97744 5.50465 6.0234L1.99883 6.35747L4.63874 8.68841C5.00195 9.00911 5.16207 9.50192 5.05673 9.97487L4.29109 13.4123L7.32372 11.6219C7.74096 11.3756 8.25914 11.3756 8.67638 11.6219L11.709 13.4123L10.9434 9.97486C10.838 9.50192 10.9982 9.00911 11.3614 8.68841L14.0013 6.35747L10.4955 6.0234C10.0131 5.97744 9.59389 5.67286 9.40113 5.22833Z" fill="#FF3F3A"/>
</svg>
