<svg width="84" height="48" viewBox="0 0 84 48" fill="none" xmlns="http://www.w3.org/2000/svg">
<circle cx="60" cy="24" r="24" fill="#FF3F3A"/>
<path fill-rule="evenodd" clip-rule="evenodd" d="M62.7929 18.7929C63.1834 18.4024 63.8166 18.4024 64.2071 18.7929L68.7071 23.2929C69.0976 23.6834 69.0976 24.3166 68.7071 24.7071L64.2071 29.2071C63.8166 29.5976 63.1834 29.5976 62.7929 29.2071C62.4024 28.8166 62.4024 28.1834 62.7929 27.7929L65.5858 25H52C51.4477 25 51 24.5523 51 24C51 23.4477 51.4477 23 52 23H65.5858L62.7929 20.2071C62.4024 19.8166 62.4024 19.1834 62.7929 18.7929Z" fill="white"/>
<path fill-rule="evenodd" clip-rule="evenodd" d="M9.20711 29.2071C8.81658 29.5976 8.18342 29.5976 7.79289 29.2071L3.29289 24.7071C2.90237 24.3166 2.90237 23.6834 3.29289 23.2929L7.79289 18.7929C8.18342 18.4024 8.81658 18.4024 9.20711 18.7929C9.59763 19.1834 9.59763 19.8166 9.20711 20.2071L6.41421 23H20C20.5523 23 21 23.4477 21 24C21 24.5523 20.5523 25 20 25H6.41421L9.20711 27.7929C9.59763 28.1834 9.59763 28.8166 9.20711 29.2071Z" fill="#424551"/>
</svg>
