<svg width="1350" height="266" viewBox="0 0 1350 266" fill="none" xmlns="http://www.w3.org/2000/svg">
<g filter="url(#filter0_dddd_2234_10602)">
<rect x="60" width="1230" height="126" rx="4" fill="white"/>
<rect x="1114" y="32" width="136" height="44" rx="4" fill="url(#paint0_linear_2234_10602)"/>
<path d="M1146.06 48.878H1147.58C1147.74 48.878 1147.88 48.9177 1147.98 48.997C1148.08 49.0763 1148.16 49.179 1148.21 49.305L1150.59 55.479C1150.67 55.6797 1150.74 55.9013 1150.81 56.144C1150.89 56.382 1150.96 56.634 1151.02 56.9C1151.13 56.3633 1151.26 55.8897 1151.42 55.479L1153.8 49.305C1153.84 49.1977 1153.91 49.0997 1154.02 49.011C1154.13 48.9223 1154.26 48.878 1154.42 48.878H1155.94L1151.85 59H1150.15L1146.06 48.878ZM1159.24 51.818V59H1157.51V51.818H1159.24ZM1159.5 49.725C1159.5 49.8743 1159.47 50.0143 1159.4 50.145C1159.34 50.2757 1159.26 50.39 1159.16 50.488C1159.06 50.586 1158.95 50.6653 1158.81 50.726C1158.67 50.782 1158.53 50.81 1158.38 50.81C1158.23 50.81 1158.08 50.782 1157.95 50.726C1157.82 50.6653 1157.7 50.586 1157.61 50.488C1157.51 50.39 1157.43 50.2757 1157.37 50.145C1157.31 50.0143 1157.28 49.8743 1157.28 49.725C1157.28 49.571 1157.31 49.4263 1157.37 49.291C1157.43 49.1557 1157.51 49.039 1157.61 48.941C1157.7 48.843 1157.82 48.766 1157.95 48.71C1158.08 48.6493 1158.23 48.619 1158.38 48.619C1158.53 48.619 1158.67 48.6493 1158.81 48.71C1158.95 48.766 1159.06 48.843 1159.16 48.941C1159.26 49.039 1159.34 49.1557 1159.4 49.291C1159.47 49.4263 1159.5 49.571 1159.5 49.725ZM1164.66 51.706C1165.12 51.706 1165.53 51.7783 1165.91 51.923C1166.29 52.0677 1166.62 52.28 1166.9 52.56C1167.17 52.8353 1167.39 53.176 1167.54 53.582C1167.7 53.9833 1167.77 54.443 1167.77 54.961C1167.77 55.0917 1167.77 55.2013 1167.75 55.29C1167.74 55.374 1167.72 55.4417 1167.69 55.493C1167.66 55.5397 1167.62 55.5747 1167.57 55.598C1167.52 55.6167 1167.45 55.626 1167.37 55.626H1162.94C1162.99 56.3633 1163.19 56.9047 1163.53 57.25C1163.88 57.5953 1164.33 57.768 1164.9 57.768C1165.18 57.768 1165.42 57.7353 1165.62 57.67C1165.83 57.6047 1166.01 57.5323 1166.16 57.453C1166.31 57.3737 1166.44 57.3013 1166.55 57.236C1166.67 57.1707 1166.78 57.138 1166.89 57.138C1166.96 57.138 1167.02 57.152 1167.07 57.18C1167.12 57.208 1167.17 57.2477 1167.21 57.299L1167.71 57.929C1167.52 58.153 1167.3 58.342 1167.07 58.496C1166.83 58.6453 1166.58 58.7667 1166.32 58.86C1166.06 58.9487 1165.8 59.0117 1165.53 59.049C1165.26 59.0863 1165 59.105 1164.75 59.105C1164.25 59.105 1163.78 59.0233 1163.36 58.86C1162.93 58.692 1162.55 58.447 1162.24 58.125C1161.92 57.7983 1161.67 57.397 1161.49 56.921C1161.3 56.4403 1161.21 55.885 1161.21 55.255C1161.21 54.765 1161.29 54.3053 1161.45 53.876C1161.61 53.442 1161.84 53.0663 1162.13 52.749C1162.43 52.427 1162.79 52.1727 1163.22 51.986C1163.64 51.7993 1164.13 51.706 1164.66 51.706ZM1164.7 52.945C1164.2 52.945 1163.8 53.0873 1163.52 53.372C1163.23 53.6567 1163.05 54.0603 1162.97 54.583H1166.22C1166.22 54.359 1166.19 54.149 1166.13 53.953C1166.07 53.7523 1165.97 53.5773 1165.85 53.428C1165.72 53.2787 1165.56 53.162 1165.37 53.078C1165.18 52.9893 1164.96 52.945 1164.7 52.945ZM1168.8 51.818H1170.17C1170.3 51.818 1170.41 51.8483 1170.5 51.909C1170.59 51.9697 1170.65 52.0467 1170.67 52.14L1171.7 55.976C1171.75 56.186 1171.8 56.3913 1171.83 56.592C1171.87 56.7927 1171.9 56.9933 1171.94 57.194C1171.99 56.9933 1172.04 56.7927 1172.1 56.592C1172.16 56.3913 1172.22 56.186 1172.29 55.976L1173.48 52.126C1173.5 52.0327 1173.56 51.9557 1173.64 51.895C1173.73 51.8343 1173.83 51.804 1173.94 51.804H1174.7C1174.83 51.804 1174.93 51.8343 1175.02 51.895C1175.1 51.9557 1175.16 52.0327 1175.18 52.126L1176.36 56.046C1176.42 56.2467 1176.47 56.4427 1176.52 56.634C1176.57 56.8207 1176.62 57.0097 1176.67 57.201C1176.7 57.0003 1176.74 56.7997 1176.77 56.599C1176.81 56.3983 1176.87 56.1907 1176.93 55.976L1177.99 52.14C1178.01 52.0467 1178.07 51.9697 1178.16 51.909C1178.25 51.8483 1178.35 51.818 1178.47 51.818H1179.78L1177.5 59H1176.11C1175.96 59 1175.85 58.8973 1175.79 58.692L1174.49 54.541C1174.45 54.4057 1174.41 54.2703 1174.37 54.135C1174.34 53.995 1174.31 53.8573 1174.29 53.722C1174.26 53.862 1174.23 54.002 1174.2 54.142C1174.16 54.2773 1174.13 54.415 1174.08 54.555L1172.78 58.692C1172.71 58.8973 1172.58 59 1172.4 59H1171.07L1168.8 51.818ZM1184.46 59V51.818H1185.51C1185.74 51.818 1185.88 51.923 1185.95 52.133L1186.07 52.665C1186.19 52.525 1186.32 52.3967 1186.46 52.28C1186.6 52.1633 1186.75 52.063 1186.9 51.979C1187.06 51.895 1187.23 51.8297 1187.4 51.783C1187.59 51.7317 1187.78 51.706 1188 51.706C1188.45 51.706 1188.82 51.8297 1189.11 52.077C1189.41 52.3197 1189.62 52.644 1189.77 53.05C1189.88 52.812 1190.02 52.609 1190.19 52.441C1190.36 52.2683 1190.54 52.1283 1190.74 52.021C1190.94 51.9137 1191.16 51.8343 1191.38 51.783C1191.61 51.7317 1191.84 51.706 1192.07 51.706C1192.46 51.706 1192.81 51.7667 1193.12 51.888C1193.43 52.0093 1193.69 52.1867 1193.9 52.42C1194.11 52.6533 1194.27 52.938 1194.38 53.274C1194.49 53.61 1194.54 53.995 1194.54 54.429V59H1192.81V54.429C1192.81 53.9717 1192.71 53.6287 1192.51 53.4C1192.31 53.1667 1192.02 53.05 1191.63 53.05C1191.45 53.05 1191.29 53.0803 1191.13 53.141C1190.98 53.2017 1190.85 53.2903 1190.74 53.407C1190.62 53.519 1190.53 53.6613 1190.47 53.834C1190.4 54.0067 1190.37 54.205 1190.37 54.429V59H1188.64V54.429C1188.64 53.9483 1188.54 53.5983 1188.34 53.379C1188.15 53.1597 1187.87 53.05 1187.49 53.05C1187.24 53.05 1187.01 53.113 1186.79 53.239C1186.57 53.3603 1186.37 53.5283 1186.19 53.743V59H1184.46ZM1199.81 51.706C1200.34 51.706 1200.83 51.7923 1201.26 51.965C1201.7 52.1377 1202.08 52.3827 1202.38 52.7C1202.69 53.0173 1202.93 53.4047 1203.1 53.862C1203.27 54.3193 1203.35 54.8303 1203.35 55.395C1203.35 55.9643 1203.27 56.4777 1203.1 56.935C1202.93 57.3923 1202.69 57.782 1202.38 58.104C1202.08 58.426 1201.7 58.6733 1201.26 58.846C1200.83 59.0187 1200.34 59.105 1199.81 59.105C1199.27 59.105 1198.78 59.0187 1198.34 58.846C1197.91 58.6733 1197.53 58.426 1197.22 58.104C1196.91 57.782 1196.67 57.3923 1196.5 56.935C1196.33 56.4777 1196.24 55.9643 1196.24 55.395C1196.24 54.8303 1196.33 54.3193 1196.5 53.862C1196.67 53.4047 1196.91 53.0173 1197.22 52.7C1197.53 52.3827 1197.91 52.1377 1198.34 51.965C1198.78 51.7923 1199.27 51.706 1199.81 51.706ZM1199.81 57.775C1200.4 57.775 1200.85 57.5743 1201.13 57.173C1201.42 56.7717 1201.56 56.1837 1201.56 55.409C1201.56 54.6343 1201.42 54.044 1201.13 53.638C1200.85 53.232 1200.4 53.029 1199.81 53.029C1199.2 53.029 1198.75 53.2343 1198.46 53.645C1198.17 54.051 1198.03 54.639 1198.03 55.409C1198.03 56.179 1198.17 56.767 1198.46 57.173C1198.75 57.5743 1199.2 57.775 1199.81 57.775ZM1205.2 59V51.818H1206.21C1206.39 51.818 1206.51 51.8507 1206.58 51.916C1206.65 51.9813 1206.7 52.0933 1206.72 52.252L1206.83 53.12C1207.09 52.6767 1207.39 52.3267 1207.73 52.07C1208.08 51.8133 1208.47 51.685 1208.89 51.685C1209.25 51.685 1209.54 51.7667 1209.78 51.93L1209.55 53.225C1209.54 53.309 1209.51 53.3697 1209.46 53.407C1209.41 53.4397 1209.35 53.456 1209.27 53.456C1209.2 53.456 1209.11 53.4397 1208.99 53.407C1208.86 53.3743 1208.7 53.358 1208.5 53.358C1208.14 53.358 1207.84 53.4583 1207.58 53.659C1207.32 53.855 1207.1 54.1443 1206.93 54.527V59H1205.2ZM1214.38 51.706C1214.83 51.706 1215.25 51.7783 1215.63 51.923C1216.01 52.0677 1216.34 52.28 1216.61 52.56C1216.89 52.8353 1217.1 53.176 1217.26 53.582C1217.41 53.9833 1217.49 54.443 1217.49 54.961C1217.49 55.0917 1217.48 55.2013 1217.47 55.29C1217.46 55.374 1217.44 55.4417 1217.41 55.493C1217.38 55.5397 1217.34 55.5747 1217.29 55.598C1217.23 55.6167 1217.17 55.626 1217.09 55.626H1212.65C1212.7 56.3633 1212.9 56.9047 1213.25 57.25C1213.59 57.5953 1214.05 57.768 1214.62 57.768C1214.9 57.768 1215.14 57.7353 1215.34 57.67C1215.55 57.6047 1215.72 57.5323 1215.87 57.453C1216.03 57.3737 1216.16 57.3013 1216.27 57.236C1216.39 57.1707 1216.5 57.138 1216.61 57.138C1216.68 57.138 1216.74 57.152 1216.79 57.18C1216.84 57.208 1216.88 57.2477 1216.92 57.299L1217.43 57.929C1217.23 58.153 1217.02 58.342 1216.78 58.496C1216.54 58.6453 1216.29 58.7667 1216.03 58.86C1215.78 58.9487 1215.51 59.0117 1215.24 59.049C1214.98 59.0863 1214.72 59.105 1214.47 59.105C1213.97 59.105 1213.5 59.0233 1213.07 58.86C1212.64 58.692 1212.27 58.447 1211.95 58.125C1211.63 57.7983 1211.39 57.397 1211.2 56.921C1211.02 56.4403 1210.93 55.885 1210.93 55.255C1210.93 54.765 1211.01 54.3053 1211.17 53.876C1211.33 53.442 1211.55 53.0663 1211.85 52.749C1212.15 52.427 1212.51 52.1727 1212.93 51.986C1213.36 51.7993 1213.84 51.706 1214.38 51.706ZM1214.42 52.945C1213.91 52.945 1213.52 53.0873 1213.23 53.372C1212.95 53.6567 1212.77 54.0603 1212.69 54.583H1215.94C1215.94 54.359 1215.9 54.149 1215.84 53.953C1215.78 53.7523 1215.69 53.5773 1215.56 53.428C1215.44 53.2787 1215.28 53.162 1215.09 53.078C1214.9 52.9893 1214.67 52.945 1214.42 52.945Z" fill="white"/>
<g clip-path="url(#clip0_2234_10602)">
<path d="M318.46 55V40.54H323.45C324.397 40.54 325.203 40.63 325.87 40.81C326.543 40.99 327.093 41.2467 327.52 41.58C327.953 41.9133 328.27 42.3167 328.47 42.79C328.67 43.2633 328.77 43.7967 328.77 44.39C328.77 44.73 328.72 45.0567 328.62 45.37C328.52 45.6767 328.363 45.9667 328.15 46.24C327.943 46.5067 327.677 46.75 327.35 46.97C327.03 47.19 326.647 47.3767 326.2 47.53C328.187 47.9767 329.18 49.05 329.18 50.75C329.18 51.3633 329.063 51.93 328.83 52.45C328.597 52.97 328.257 53.42 327.81 53.8C327.363 54.1733 326.813 54.4667 326.16 54.68C325.507 54.8933 324.76 55 323.92 55H318.46ZM321.15 48.66V52.9H323.88C324.38 52.9 324.797 52.84 325.13 52.72C325.47 52.6 325.74 52.44 325.94 52.24C326.147 52.04 326.293 51.8067 326.38 51.54C326.473 51.2733 326.52 50.99 326.52 50.69C326.52 50.3767 326.47 50.0967 326.37 49.85C326.27 49.5967 326.113 49.3833 325.9 49.21C325.687 49.03 325.413 48.8933 325.08 48.8C324.747 48.7067 324.343 48.66 323.87 48.66H321.15ZM321.15 46.8H323.3C324.213 46.8 324.907 46.6333 325.38 46.3C325.853 45.9667 326.09 45.4367 326.09 44.71C326.09 43.9567 325.877 43.42 325.45 43.1C325.023 42.78 324.357 42.62 323.45 42.62H321.15V46.8ZM333.607 44.74V51.26C333.607 51.8867 333.751 52.3733 334.037 52.72C334.331 53.06 334.767 53.23 335.347 53.23C335.774 53.23 336.174 53.1367 336.547 52.95C336.921 52.7567 337.274 52.4933 337.607 52.16V44.74H340.077V55H338.567C338.247 55 338.037 54.85 337.937 54.55L337.767 53.73C337.554 53.9433 337.334 54.14 337.107 54.32C336.881 54.4933 336.637 54.6433 336.377 54.77C336.124 54.89 335.847 54.9833 335.547 55.05C335.254 55.1233 334.937 55.16 334.597 55.16C334.037 55.16 333.541 55.0667 333.107 54.88C332.681 54.6867 332.321 54.4167 332.027 54.07C331.734 53.7233 331.511 53.3133 331.357 52.84C331.211 52.36 331.137 51.8333 331.137 51.26V44.74H333.607ZM345.345 44.74V55H342.875V44.74H345.345ZM345.715 41.75C345.715 41.9633 345.671 42.1633 345.585 42.35C345.498 42.5367 345.381 42.7 345.235 42.84C345.095 42.98 344.928 43.0933 344.735 43.18C344.541 43.26 344.335 43.3 344.115 43.3C343.901 43.3 343.698 43.26 343.505 43.18C343.318 43.0933 343.155 42.98 343.015 42.84C342.875 42.7 342.761 42.5367 342.675 42.35C342.595 42.1633 342.555 41.9633 342.555 41.75C342.555 41.53 342.595 41.3233 342.675 41.13C342.761 40.9367 342.875 40.77 343.015 40.63C343.155 40.49 343.318 40.38 343.505 40.3C343.698 40.2133 343.901 40.17 344.115 40.17C344.335 40.17 344.541 40.2133 344.735 40.3C344.928 40.38 345.095 40.49 345.235 40.63C345.381 40.77 345.498 40.9367 345.585 41.13C345.671 41.3233 345.715 41.53 345.715 41.75ZM350.774 40.14V55H348.304V40.14H350.774ZM360.794 55C360.474 55 360.264 54.85 360.164 54.55L359.964 53.56C359.751 53.8 359.527 54.0167 359.294 54.21C359.061 54.4033 358.807 54.57 358.534 54.71C358.267 54.85 357.977 54.9567 357.664 55.03C357.357 55.11 357.024 55.15 356.664 55.15C356.104 55.15 355.591 55.0333 355.124 54.8C354.657 54.5667 354.254 54.23 353.914 53.79C353.581 53.3433 353.321 52.7933 353.134 52.14C352.954 51.4867 352.864 50.74 352.864 49.9C352.864 49.14 352.967 48.4333 353.174 47.78C353.381 47.1267 353.677 46.56 354.064 46.08C354.451 45.6 354.914 45.2267 355.454 44.96C355.994 44.6867 356.601 44.55 357.274 44.55C357.847 44.55 358.337 44.6433 358.744 44.83C359.151 45.01 359.514 45.2533 359.834 45.56V40.14H362.304V55H360.794ZM357.504 53.19C358.017 53.19 358.454 53.0833 358.814 52.87C359.174 52.6567 359.514 52.3533 359.834 51.96V47.36C359.554 47.02 359.247 46.78 358.914 46.64C358.587 46.5 358.234 46.43 357.854 46.43C357.481 46.43 357.141 46.5 356.834 46.64C356.534 46.78 356.277 46.9933 356.064 47.28C355.857 47.56 355.697 47.92 355.584 48.36C355.471 48.7933 355.414 49.3067 355.414 49.9C355.414 50.5 355.461 51.01 355.554 51.43C355.654 51.8433 355.794 52.1833 355.974 52.45C356.154 52.71 356.374 52.9 356.634 53.02C356.894 53.1333 357.184 53.19 357.504 53.19ZM367.61 44.74V55H365.14V44.74H367.61ZM367.98 41.75C367.98 41.9633 367.937 42.1633 367.85 42.35C367.763 42.5367 367.647 42.7 367.5 42.84C367.36 42.98 367.193 43.0933 367 43.18C366.807 43.26 366.6 43.3 366.38 43.3C366.167 43.3 365.963 43.26 365.77 43.18C365.583 43.0933 365.42 42.98 365.28 42.84C365.14 42.7 365.027 42.5367 364.94 42.35C364.86 42.1633 364.82 41.9633 364.82 41.75C364.82 41.53 364.86 41.3233 364.94 41.13C365.027 40.9367 365.14 40.77 365.28 40.63C365.42 40.49 365.583 40.38 365.77 40.3C365.963 40.2133 366.167 40.17 366.38 40.17C366.6 40.17 366.807 40.2133 367 40.3C367.193 40.38 367.36 40.49 367.5 40.63C367.647 40.77 367.763 40.9367 367.85 41.13C367.937 41.3233 367.98 41.53 367.98 41.75ZM370.41 55V44.74H371.92C372.24 44.74 372.45 44.89 372.55 45.19L372.72 46C372.927 45.7867 373.143 45.5933 373.37 45.42C373.603 45.2467 373.847 45.0967 374.1 44.97C374.36 44.8433 374.637 44.7467 374.93 44.68C375.223 44.6133 375.543 44.58 375.89 44.58C376.45 44.58 376.947 44.6767 377.38 44.87C377.813 45.0567 378.173 45.3233 378.46 45.67C378.753 46.01 378.973 46.42 379.12 46.9C379.273 47.3733 379.35 47.8967 379.35 48.47V55H376.88V48.47C376.88 47.8433 376.733 47.36 376.44 47.02C376.153 46.6733 375.72 46.5 375.14 46.5C374.713 46.5 374.313 46.5967 373.94 46.79C373.567 46.9833 373.213 47.2467 372.88 47.58V55H370.41ZM385.327 44.56C385.767 44.56 386.18 44.6067 386.567 44.7C386.954 44.7867 387.307 44.9167 387.627 45.09H390.577V46.01C390.577 46.1633 390.537 46.2833 390.457 46.37C390.377 46.4567 390.24 46.5167 390.047 46.55L389.127 46.72C389.194 46.8933 389.244 47.0767 389.277 47.27C389.317 47.4633 389.337 47.6667 389.337 47.88C389.337 48.3867 389.234 48.8467 389.027 49.26C388.827 49.6667 388.547 50.0133 388.187 50.3C387.834 50.5867 387.41 50.81 386.917 50.97C386.43 51.1233 385.9 51.2 385.327 51.2C384.94 51.2 384.564 51.1633 384.197 51.09C383.877 51.2833 383.717 51.5 383.717 51.74C383.717 51.9467 383.81 52.1 383.997 52.2C384.19 52.2933 384.44 52.36 384.747 52.4C385.06 52.44 385.414 52.4667 385.807 52.48C386.2 52.4867 386.604 52.5067 387.017 52.54C387.43 52.5733 387.834 52.6333 388.227 52.72C388.62 52.8 388.97 52.93 389.277 53.11C389.59 53.29 389.84 53.5367 390.027 53.85C390.22 54.1567 390.317 54.5533 390.317 55.04C390.317 55.4933 390.204 55.9333 389.977 56.36C389.757 56.7867 389.434 57.1667 389.007 57.5C388.587 57.8333 388.07 58.1 387.457 58.3C386.844 58.5067 386.144 58.61 385.357 58.61C384.577 58.61 383.9 58.5333 383.327 58.38C382.754 58.2333 382.277 58.0333 381.897 57.78C381.524 57.5333 381.244 57.2467 381.057 56.92C380.87 56.5933 380.777 56.2533 380.777 55.9C380.777 55.42 380.924 55.0167 381.217 54.69C381.51 54.3633 381.917 54.1033 382.437 53.91C382.184 53.77 381.98 53.5833 381.827 53.35C381.674 53.1167 381.597 52.8133 381.597 52.44C381.597 52.2867 381.624 52.13 381.677 51.97C381.73 51.8033 381.81 51.64 381.917 51.48C382.03 51.32 382.17 51.17 382.337 51.03C382.504 50.8833 382.7 50.7533 382.927 50.64C382.407 50.36 381.997 49.9867 381.697 49.52C381.404 49.0533 381.257 48.5067 381.257 47.88C381.257 47.3733 381.357 46.9167 381.557 46.51C381.764 46.0967 382.047 45.7467 382.407 45.46C382.774 45.1667 383.204 44.9433 383.697 44.79C384.197 44.6367 384.74 44.56 385.327 44.56ZM388.037 55.46C388.037 55.26 387.977 55.0967 387.857 54.97C387.737 54.8433 387.574 54.7467 387.367 54.68C387.16 54.6067 386.917 54.5533 386.637 54.52C386.364 54.4867 386.07 54.4633 385.757 54.45C385.45 54.43 385.13 54.4133 384.797 54.4C384.47 54.38 384.154 54.35 383.847 54.31C383.567 54.4633 383.34 54.6467 383.167 54.86C383 55.0667 382.917 55.3067 382.917 55.58C382.917 55.76 382.96 55.9267 383.047 56.08C383.14 56.24 383.284 56.3767 383.477 56.49C383.677 56.6033 383.934 56.69 384.247 56.75C384.56 56.8167 384.944 56.85 385.397 56.85C385.857 56.85 386.254 56.8133 386.587 56.74C386.92 56.6733 387.194 56.5767 387.407 56.45C387.627 56.33 387.787 56.1833 387.887 56.01C387.987 55.8433 388.037 55.66 388.037 55.46ZM385.327 49.62C385.634 49.62 385.9 49.58 386.127 49.5C386.354 49.4133 386.54 49.2967 386.687 49.15C386.84 49.0033 386.954 48.8267 387.027 48.62C387.107 48.4133 387.147 48.1867 387.147 47.94C387.147 47.4333 386.994 47.0333 386.687 46.74C386.387 46.44 385.934 46.29 385.327 46.29C384.72 46.29 384.264 46.44 383.957 46.74C383.657 47.0333 383.507 47.4333 383.507 47.94C383.507 48.18 383.544 48.4033 383.617 48.61C383.697 48.8167 383.81 48.9967 383.957 49.15C384.11 49.2967 384.3 49.4133 384.527 49.5C384.76 49.58 385.027 49.62 385.327 49.62ZM404.036 55H402.926C402.692 55 402.509 54.9667 402.376 54.9C402.242 54.8267 402.142 54.6833 402.076 54.47L401.856 53.74C401.596 53.9733 401.339 54.18 401.086 54.36C400.839 54.5333 400.582 54.68 400.316 54.8C400.049 54.92 399.766 55.01 399.466 55.07C399.166 55.13 398.832 55.16 398.466 55.16C398.032 55.16 397.632 55.1033 397.266 54.99C396.899 54.87 396.582 54.6933 396.316 54.46C396.056 54.2267 395.852 53.9367 395.706 53.59C395.559 53.2433 395.486 52.84 395.486 52.38C395.486 51.9933 395.586 51.6133 395.786 51.24C395.992 50.86 396.332 50.52 396.806 50.22C397.279 49.9133 397.909 49.66 398.696 49.46C399.482 49.26 400.459 49.1467 401.626 49.12V48.52C401.626 47.8333 401.479 47.3267 401.186 47C400.899 46.6667 400.479 46.5 399.926 46.5C399.526 46.5 399.192 46.5467 398.926 46.64C398.659 46.7333 398.426 46.84 398.226 46.96C398.032 47.0733 397.852 47.1767 397.686 47.27C397.519 47.3633 397.336 47.41 397.136 47.41C396.969 47.41 396.826 47.3667 396.706 47.28C396.586 47.1933 396.489 47.0867 396.416 46.96L395.966 46.17C397.146 45.09 398.569 44.55 400.236 44.55C400.836 44.55 401.369 44.65 401.836 44.85C402.309 45.0433 402.709 45.3167 403.036 45.67C403.362 46.0167 403.609 46.4333 403.776 46.92C403.949 47.4067 404.036 47.94 404.036 48.52V55ZM399.236 53.46C399.489 53.46 399.722 53.4367 399.936 53.39C400.149 53.3433 400.349 53.2733 400.536 53.18C400.729 53.0867 400.912 52.9733 401.086 52.84C401.266 52.7 401.446 52.5367 401.626 52.35V50.62C400.906 50.6533 400.302 50.7167 399.816 50.81C399.336 50.8967 398.949 51.01 398.656 51.15C398.362 51.29 398.152 51.4533 398.026 51.64C397.906 51.8267 397.846 52.03 397.846 52.25C397.846 52.6833 397.972 52.9933 398.226 53.18C398.486 53.3667 398.822 53.46 399.236 53.46ZM417.542 46.91C417.468 47.0033 417.395 47.0767 417.322 47.13C417.255 47.1833 417.155 47.21 417.022 47.21C416.895 47.21 416.772 47.1733 416.652 47.1C416.532 47.02 416.388 46.9333 416.222 46.84C416.055 46.74 415.855 46.6533 415.622 46.58C415.395 46.5 415.112 46.46 414.772 46.46C414.338 46.46 413.958 46.54 413.632 46.7C413.305 46.8533 413.032 47.0767 412.812 47.37C412.598 47.6633 412.438 48.02 412.332 48.44C412.225 48.8533 412.172 49.3233 412.172 49.85C412.172 50.3967 412.228 50.8833 412.342 51.31C412.462 51.7367 412.632 52.0967 412.852 52.39C413.072 52.6767 413.338 52.8967 413.652 53.05C413.965 53.1967 414.318 53.27 414.712 53.27C415.105 53.27 415.422 53.2233 415.662 53.13C415.908 53.03 416.115 52.9233 416.282 52.81C416.448 52.69 416.592 52.5833 416.712 52.49C416.838 52.39 416.978 52.34 417.132 52.34C417.332 52.34 417.482 52.4167 417.582 52.57L418.292 53.47C418.018 53.79 417.722 54.06 417.402 54.28C417.082 54.4933 416.748 54.6667 416.402 54.8C416.062 54.9267 415.708 55.0167 415.342 55.07C414.975 55.1233 414.612 55.15 414.252 55.15C413.618 55.15 413.022 55.0333 412.462 54.8C411.902 54.56 411.412 54.2133 410.992 53.76C410.578 53.3067 410.248 52.7533 410.002 52.1C409.762 51.44 409.642 50.69 409.642 49.85C409.642 49.0967 409.748 48.4 409.962 47.76C410.182 47.1133 410.502 46.5567 410.922 46.09C411.342 45.6167 411.862 45.2467 412.482 44.98C413.102 44.7133 413.815 44.58 414.622 44.58C415.388 44.58 416.058 44.7033 416.632 44.95C417.212 45.1967 417.732 45.55 418.192 46.01L417.542 46.91ZM422.123 44.74V51.26C422.123 51.8867 422.266 52.3733 422.553 52.72C422.846 53.06 423.283 53.23 423.863 53.23C424.29 53.23 424.69 53.1367 425.063 52.95C425.436 52.7567 425.79 52.4933 426.123 52.16V44.74H428.593V55H427.083C426.763 55 426.553 54.85 426.453 54.55L426.283 53.73C426.07 53.9433 425.85 54.14 425.623 54.32C425.396 54.4933 425.153 54.6433 424.893 54.77C424.64 54.89 424.363 54.9833 424.063 55.05C423.77 55.1233 423.453 55.16 423.113 55.16C422.553 55.16 422.056 55.0667 421.623 54.88C421.196 54.6867 420.836 54.4167 420.543 54.07C420.25 53.7233 420.026 53.3133 419.873 52.84C419.726 52.36 419.653 51.8333 419.653 51.26V44.74H422.123ZM437.32 46.74C437.253 46.8467 437.183 46.9233 437.11 46.97C437.037 47.01 436.943 47.03 436.83 47.03C436.71 47.03 436.58 46.9967 436.44 46.93C436.307 46.8633 436.15 46.79 435.97 46.71C435.79 46.6233 435.583 46.5467 435.35 46.48C435.123 46.4133 434.853 46.38 434.54 46.38C434.053 46.38 433.67 46.4833 433.39 46.69C433.11 46.8967 432.97 47.1667 432.97 47.5C432.97 47.72 433.04 47.9067 433.18 48.06C433.327 48.2067 433.517 48.3367 433.75 48.45C433.99 48.5633 434.26 48.6667 434.56 48.76C434.86 48.8467 435.167 48.9433 435.48 49.05C435.793 49.1567 436.1 49.28 436.4 49.42C436.7 49.5533 436.967 49.7267 437.2 49.94C437.44 50.1467 437.63 50.3967 437.77 50.69C437.917 50.9833 437.99 51.3367 437.99 51.75C437.99 52.2433 437.9 52.7 437.72 53.12C437.54 53.5333 437.277 53.8933 436.93 54.2C436.583 54.5 436.153 54.7367 435.64 54.91C435.133 55.0767 434.55 55.16 433.89 55.16C433.537 55.16 433.19 55.1267 432.85 55.06C432.517 55 432.193 54.9133 431.88 54.8C431.573 54.6867 431.287 54.5533 431.02 54.4C430.76 54.2467 430.53 54.08 430.33 53.9L430.9 52.96C430.973 52.8467 431.06 52.76 431.16 52.7C431.26 52.64 431.387 52.61 431.54 52.61C431.693 52.61 431.837 52.6533 431.97 52.74C432.11 52.8267 432.27 52.92 432.45 53.02C432.63 53.12 432.84 53.2133 433.08 53.3C433.327 53.3867 433.637 53.43 434.01 53.43C434.303 53.43 434.553 53.3967 434.76 53.33C434.973 53.2567 435.147 53.1633 435.28 53.05C435.42 52.9367 435.52 52.8067 435.58 52.66C435.647 52.5067 435.68 52.35 435.68 52.19C435.68 51.95 435.607 51.7533 435.46 51.6C435.32 51.4467 435.13 51.3133 434.89 51.2C434.657 51.0867 434.387 50.9867 434.08 50.9C433.78 50.8067 433.47 50.7067 433.15 50.6C432.837 50.4933 432.527 50.37 432.22 50.23C431.92 50.0833 431.65 49.9 431.41 49.68C431.177 49.46 430.987 49.19 430.84 48.87C430.7 48.55 430.63 48.1633 430.63 47.71C430.63 47.29 430.713 46.89 430.88 46.51C431.047 46.13 431.29 45.8 431.61 45.52C431.937 45.2333 432.34 45.0067 432.82 44.84C433.307 44.6667 433.867 44.58 434.5 44.58C435.207 44.58 435.85 44.6967 436.43 44.93C437.01 45.1633 437.493 45.47 437.88 45.85L437.32 46.74ZM443.331 55.16C442.444 55.16 441.761 54.91 441.281 54.41C440.801 53.9033 440.561 53.2067 440.561 52.32V46.59H439.521C439.387 46.59 439.271 46.5467 439.171 46.46C439.077 46.3733 439.031 46.2433 439.031 46.07V45.09L440.681 44.82L441.201 42.02C441.227 41.8867 441.287 41.7833 441.381 41.71C441.481 41.6367 441.604 41.6 441.751 41.6H443.031V44.83H445.731V46.59H443.031V52.15C443.031 52.47 443.111 52.72 443.271 52.9C443.431 53.08 443.644 53.17 443.911 53.17C444.064 53.17 444.191 53.1533 444.291 53.12C444.397 53.08 444.487 53.04 444.561 53C444.641 52.96 444.711 52.9233 444.771 52.89C444.831 52.85 444.891 52.83 444.951 52.83C445.024 52.83 445.084 52.85 445.131 52.89C445.177 52.9233 445.227 52.9767 445.281 53.05L446.021 54.25C445.661 54.55 445.247 54.7767 444.781 54.93C444.314 55.0833 443.831 55.16 443.331 55.16ZM452.075 44.58C452.842 44.58 453.535 44.7033 454.155 44.95C454.782 45.1967 455.315 45.5467 455.755 46C456.195 46.4533 456.535 47.0067 456.775 47.66C457.015 48.3133 457.135 49.0433 457.135 49.85C457.135 50.6633 457.015 51.3967 456.775 52.05C456.535 52.7033 456.195 53.26 455.755 53.72C455.315 54.18 454.782 54.5333 454.155 54.78C453.535 55.0267 452.842 55.15 452.075 55.15C451.308 55.15 450.612 55.0267 449.985 54.78C449.358 54.5333 448.822 54.18 448.375 53.72C447.935 53.26 447.592 52.7033 447.345 52.05C447.105 51.3967 446.985 50.6633 446.985 49.85C446.985 49.0433 447.105 48.3133 447.345 47.66C447.592 47.0067 447.935 46.4533 448.375 46C448.822 45.5467 449.358 45.1967 449.985 44.95C450.612 44.7033 451.308 44.58 452.075 44.58ZM452.075 53.25C452.928 53.25 453.558 52.9633 453.965 52.39C454.378 51.8167 454.585 50.9767 454.585 49.87C454.585 48.7633 454.378 47.92 453.965 47.34C453.558 46.76 452.928 46.47 452.075 46.47C451.208 46.47 450.568 46.7633 450.155 47.35C449.742 47.93 449.535 48.77 449.535 49.87C449.535 50.97 449.742 51.81 450.155 52.39C450.568 52.9633 451.208 53.25 452.075 53.25ZM459.062 55V44.74H460.572C460.892 44.74 461.102 44.89 461.202 45.19L461.362 45.95C461.542 45.75 461.729 45.5667 461.922 45.4C462.122 45.2333 462.332 45.09 462.552 44.97C462.779 44.85 463.019 44.7567 463.272 44.69C463.532 44.6167 463.816 44.58 464.122 44.58C464.769 44.58 465.299 44.7567 465.712 45.11C466.132 45.4567 466.446 45.92 466.652 46.5C466.812 46.16 467.012 45.87 467.252 45.63C467.492 45.3833 467.756 45.1833 468.042 45.03C468.329 44.8767 468.632 44.7633 468.952 44.69C469.279 44.6167 469.606 44.58 469.932 44.58C470.499 44.58 471.002 44.6667 471.442 44.84C471.882 45.0133 472.252 45.2667 472.552 45.6C472.852 45.9333 473.079 46.34 473.232 46.82C473.392 47.3 473.472 47.85 473.472 48.47V55H471.002V48.47C471.002 47.8167 470.859 47.3267 470.572 47C470.286 46.6667 469.866 46.5 469.312 46.5C469.059 46.5 468.822 46.5433 468.602 46.63C468.389 46.7167 468.199 46.8433 468.032 47.01C467.872 47.17 467.746 47.3733 467.652 47.62C467.559 47.8667 467.512 48.15 467.512 48.47V55H465.032V48.47C465.032 47.7833 464.892 47.2833 464.612 46.97C464.339 46.6567 463.932 46.5 463.392 46.5C463.039 46.5 462.706 46.59 462.392 46.77C462.086 46.9433 461.799 47.1833 461.532 47.49V55H459.062ZM480.138 44.58C480.785 44.58 481.378 44.6833 481.918 44.89C482.465 45.0967 482.935 45.4 483.328 45.8C483.721 46.1933 484.028 46.68 484.248 47.26C484.468 47.8333 484.578 48.49 484.578 49.23C484.578 49.4167 484.568 49.5733 484.548 49.7C484.535 49.82 484.505 49.9167 484.458 49.99C484.418 50.0567 484.361 50.1067 484.288 50.14C484.215 50.1667 484.121 50.18 484.008 50.18H477.668C477.741 51.2333 478.025 52.0067 478.518 52.5C479.011 52.9933 479.665 53.24 480.478 53.24C480.878 53.24 481.221 53.1933 481.508 53.1C481.801 53.0067 482.055 52.9033 482.268 52.79C482.488 52.6767 482.678 52.5733 482.838 52.48C483.005 52.3867 483.165 52.34 483.318 52.34C483.418 52.34 483.505 52.36 483.578 52.4C483.651 52.44 483.715 52.4967 483.768 52.57L484.488 53.47C484.215 53.79 483.908 54.06 483.568 54.28C483.228 54.4933 482.871 54.6667 482.498 54.8C482.131 54.9267 481.755 55.0167 481.368 55.07C480.988 55.1233 480.618 55.15 480.258 55.15C479.545 55.15 478.881 55.0333 478.268 54.8C477.655 54.56 477.121 54.21 476.668 53.75C476.215 53.2833 475.858 52.71 475.598 52.03C475.338 51.3433 475.208 50.55 475.208 49.65C475.208 48.95 475.321 48.2933 475.548 47.68C475.775 47.06 476.098 46.5233 476.518 46.07C476.945 45.61 477.461 45.2467 478.068 44.98C478.681 44.7133 479.371 44.58 480.138 44.58ZM480.188 46.35C479.468 46.35 478.905 46.5533 478.498 46.96C478.091 47.3667 477.831 47.9433 477.718 48.69H482.358C482.358 48.37 482.315 48.07 482.228 47.79C482.141 47.5033 482.008 47.2533 481.828 47.04C481.648 46.8267 481.421 46.66 481.148 46.54C480.875 46.4133 480.555 46.35 480.188 46.35ZM486.582 55V44.74H488.032C488.285 44.74 488.462 44.7867 488.562 44.88C488.662 44.9733 488.728 45.1333 488.762 45.36L488.912 46.6C489.278 45.9667 489.708 45.4667 490.202 45.1C490.695 44.7333 491.248 44.55 491.862 44.55C492.368 44.55 492.788 44.6667 493.122 44.9L492.802 46.75C492.782 46.87 492.738 46.9567 492.672 47.01C492.605 47.0567 492.515 47.08 492.402 47.08C492.302 47.08 492.165 47.0567 491.992 47.01C491.818 46.9633 491.588 46.94 491.302 46.94C490.788 46.94 490.348 47.0833 489.982 47.37C489.615 47.65 489.305 48.0633 489.052 48.61V55H486.582ZM504.703 46.74C504.636 46.8467 504.566 46.9233 504.493 46.97C504.42 47.01 504.326 47.03 504.213 47.03C504.093 47.03 503.963 46.9967 503.823 46.93C503.69 46.8633 503.533 46.79 503.353 46.71C503.173 46.6233 502.966 46.5467 502.733 46.48C502.506 46.4133 502.236 46.38 501.923 46.38C501.436 46.38 501.053 46.4833 500.773 46.69C500.493 46.8967 500.353 47.1667 500.353 47.5C500.353 47.72 500.423 47.9067 500.563 48.06C500.71 48.2067 500.9 48.3367 501.133 48.45C501.373 48.5633 501.643 48.6667 501.943 48.76C502.243 48.8467 502.55 48.9433 502.863 49.05C503.176 49.1567 503.483 49.28 503.783 49.42C504.083 49.5533 504.35 49.7267 504.583 49.94C504.823 50.1467 505.013 50.3967 505.153 50.69C505.3 50.9833 505.373 51.3367 505.373 51.75C505.373 52.2433 505.283 52.7 505.103 53.12C504.923 53.5333 504.66 53.8933 504.313 54.2C503.966 54.5 503.536 54.7367 503.023 54.91C502.516 55.0767 501.933 55.16 501.273 55.16C500.92 55.16 500.573 55.1267 500.233 55.06C499.9 55 499.576 54.9133 499.263 54.8C498.956 54.6867 498.67 54.5533 498.403 54.4C498.143 54.2467 497.913 54.08 497.713 53.9L498.283 52.96C498.356 52.8467 498.443 52.76 498.543 52.7C498.643 52.64 498.77 52.61 498.923 52.61C499.076 52.61 499.22 52.6533 499.353 52.74C499.493 52.8267 499.653 52.92 499.833 53.02C500.013 53.12 500.223 53.2133 500.463 53.3C500.71 53.3867 501.02 53.43 501.393 53.43C501.686 53.43 501.936 53.3967 502.143 53.33C502.356 53.2567 502.53 53.1633 502.663 53.05C502.803 52.9367 502.903 52.8067 502.963 52.66C503.03 52.5067 503.063 52.35 503.063 52.19C503.063 51.95 502.99 51.7533 502.843 51.6C502.703 51.4467 502.513 51.3133 502.273 51.2C502.04 51.0867 501.77 50.9867 501.463 50.9C501.163 50.8067 500.853 50.7067 500.533 50.6C500.22 50.4933 499.91 50.37 499.603 50.23C499.303 50.0833 499.033 49.9 498.793 49.68C498.56 49.46 498.37 49.19 498.223 48.87C498.083 48.55 498.013 48.1633 498.013 47.71C498.013 47.29 498.096 46.89 498.263 46.51C498.43 46.13 498.673 45.8 498.993 45.52C499.32 45.2333 499.723 45.0067 500.203 44.84C500.69 44.6667 501.25 44.58 501.883 44.58C502.59 44.58 503.233 44.6967 503.813 44.93C504.393 45.1633 504.876 45.47 505.263 45.85L504.703 46.74ZM511.583 44.58C512.23 44.58 512.823 44.6833 513.363 44.89C513.91 45.0967 514.38 45.4 514.773 45.8C515.167 46.1933 515.473 46.68 515.693 47.26C515.913 47.8333 516.023 48.49 516.023 49.23C516.023 49.4167 516.013 49.5733 515.993 49.7C515.98 49.82 515.95 49.9167 515.903 49.99C515.863 50.0567 515.807 50.1067 515.733 50.14C515.66 50.1667 515.567 50.18 515.453 50.18H509.113C509.187 51.2333 509.47 52.0067 509.963 52.5C510.457 52.9933 511.11 53.24 511.923 53.24C512.323 53.24 512.667 53.1933 512.953 53.1C513.247 53.0067 513.5 52.9033 513.713 52.79C513.933 52.6767 514.123 52.5733 514.283 52.48C514.45 52.3867 514.61 52.34 514.763 52.34C514.863 52.34 514.95 52.36 515.023 52.4C515.097 52.44 515.16 52.4967 515.213 52.57L515.933 53.47C515.66 53.79 515.353 54.06 515.013 54.28C514.673 54.4933 514.317 54.6667 513.943 54.8C513.577 54.9267 513.2 55.0167 512.813 55.07C512.433 55.1233 512.063 55.15 511.703 55.15C510.99 55.15 510.327 55.0333 509.713 54.8C509.1 54.56 508.567 54.21 508.113 53.75C507.66 53.2833 507.303 52.71 507.043 52.03C506.783 51.3433 506.653 50.55 506.653 49.65C506.653 48.95 506.767 48.2933 506.993 47.68C507.22 47.06 507.543 46.5233 507.963 46.07C508.39 45.61 508.907 45.2467 509.513 44.98C510.127 44.7133 510.817 44.58 511.583 44.58ZM511.633 46.35C510.913 46.35 510.35 46.5533 509.943 46.96C509.537 47.3667 509.277 47.9433 509.163 48.69H513.803C513.803 48.37 513.76 48.07 513.673 47.79C513.587 47.5033 513.453 47.2533 513.273 47.04C513.093 46.8267 512.867 46.66 512.593 46.54C512.32 46.4133 512 46.35 511.633 46.35ZM518.027 55V44.74H519.477C519.73 44.74 519.907 44.7867 520.007 44.88C520.107 44.9733 520.174 45.1333 520.207 45.36L520.357 46.6C520.724 45.9667 521.154 45.4667 521.647 45.1C522.14 44.7333 522.694 44.55 523.307 44.55C523.814 44.55 524.234 44.6667 524.567 44.9L524.247 46.75C524.227 46.87 524.184 46.9567 524.117 47.01C524.05 47.0567 523.96 47.08 523.847 47.08C523.747 47.08 523.61 47.0567 523.437 47.01C523.264 46.9633 523.034 46.94 522.747 46.94C522.234 46.94 521.794 47.0833 521.427 47.37C521.06 47.65 520.75 48.0633 520.497 48.61V55H518.027ZM531.331 55H529.091L525.011 44.74H527.061C527.241 44.74 527.391 44.7833 527.511 44.87C527.638 44.9567 527.724 45.0667 527.771 45.2L529.751 50.68C529.864 51 529.958 51.3133 530.031 51.62C530.111 51.9267 530.181 52.2333 530.241 52.54C530.301 52.2333 530.368 51.9267 530.441 51.62C530.521 51.3133 530.621 51 530.741 50.68L532.771 45.2C532.818 45.0667 532.901 44.9567 533.021 44.87C533.141 44.7833 533.284 44.74 533.451 44.74H535.401L531.331 55ZM539.485 44.74V55H537.015V44.74H539.485ZM539.855 41.75C539.855 41.9633 539.812 42.1633 539.725 42.35C539.638 42.5367 539.522 42.7 539.375 42.84C539.235 42.98 539.068 43.0933 538.875 43.18C538.682 43.26 538.475 43.3 538.255 43.3C538.042 43.3 537.838 43.26 537.645 43.18C537.458 43.0933 537.295 42.98 537.155 42.84C537.015 42.7 536.902 42.5367 536.815 42.35C536.735 42.1633 536.695 41.9633 536.695 41.75C536.695 41.53 536.735 41.3233 536.815 41.13C536.902 40.9367 537.015 40.77 537.155 40.63C537.295 40.49 537.458 40.38 537.645 40.3C537.838 40.2133 538.042 40.17 538.255 40.17C538.475 40.17 538.682 40.2133 538.875 40.3C539.068 40.38 539.235 40.49 539.375 40.63C539.522 40.77 539.638 40.9367 539.725 41.13C539.812 41.3233 539.855 41.53 539.855 41.75ZM549.495 46.91C549.422 47.0033 549.348 47.0767 549.275 47.13C549.208 47.1833 549.108 47.21 548.975 47.21C548.848 47.21 548.725 47.1733 548.605 47.1C548.485 47.02 548.342 46.9333 548.175 46.84C548.008 46.74 547.808 46.6533 547.575 46.58C547.348 46.5 547.065 46.46 546.725 46.46C546.292 46.46 545.912 46.54 545.585 46.7C545.258 46.8533 544.985 47.0767 544.765 47.37C544.552 47.6633 544.392 48.02 544.285 48.44C544.178 48.8533 544.125 49.3233 544.125 49.85C544.125 50.3967 544.182 50.8833 544.295 51.31C544.415 51.7367 544.585 52.0967 544.805 52.39C545.025 52.6767 545.292 52.8967 545.605 53.05C545.918 53.1967 546.272 53.27 546.665 53.27C547.058 53.27 547.375 53.2233 547.615 53.13C547.862 53.03 548.068 52.9233 548.235 52.81C548.402 52.69 548.545 52.5833 548.665 52.49C548.792 52.39 548.932 52.34 549.085 52.34C549.285 52.34 549.435 52.4167 549.535 52.57L550.245 53.47C549.972 53.79 549.675 54.06 549.355 54.28C549.035 54.4933 548.702 54.6667 548.355 54.8C548.015 54.9267 547.662 55.0167 547.295 55.07C546.928 55.1233 546.565 55.15 546.205 55.15C545.572 55.15 544.975 55.0333 544.415 54.8C543.855 54.56 543.365 54.2133 542.945 53.76C542.532 53.3067 542.202 52.7533 541.955 52.1C541.715 51.44 541.595 50.69 541.595 49.85C541.595 49.0967 541.702 48.4 541.915 47.76C542.135 47.1133 542.455 46.5567 542.875 46.09C543.295 45.6167 543.815 45.2467 544.435 44.98C545.055 44.7133 545.768 44.58 546.575 44.58C547.342 44.58 548.012 44.7033 548.585 44.95C549.165 45.1967 549.685 45.55 550.145 46.01L549.495 46.91ZM556.056 44.58C556.703 44.58 557.296 44.6833 557.836 44.89C558.383 45.0967 558.853 45.4 559.246 45.8C559.639 46.1933 559.946 46.68 560.166 47.26C560.386 47.8333 560.496 48.49 560.496 49.23C560.496 49.4167 560.486 49.5733 560.466 49.7C560.453 49.82 560.423 49.9167 560.376 49.99C560.336 50.0567 560.279 50.1067 560.206 50.14C560.133 50.1667 560.039 50.18 559.926 50.18H553.586C553.659 51.2333 553.943 52.0067 554.436 52.5C554.929 52.9933 555.583 53.24 556.396 53.24C556.796 53.24 557.139 53.1933 557.426 53.1C557.719 53.0067 557.973 52.9033 558.186 52.79C558.406 52.6767 558.596 52.5733 558.756 52.48C558.923 52.3867 559.083 52.34 559.236 52.34C559.336 52.34 559.423 52.36 559.496 52.4C559.569 52.44 559.633 52.4967 559.686 52.57L560.406 53.47C560.133 53.79 559.826 54.06 559.486 54.28C559.146 54.4933 558.789 54.6667 558.416 54.8C558.049 54.9267 557.673 55.0167 557.286 55.07C556.906 55.1233 556.536 55.15 556.176 55.15C555.463 55.15 554.799 55.0333 554.186 54.8C553.573 54.56 553.039 54.21 552.586 53.75C552.133 53.2833 551.776 52.71 551.516 52.03C551.256 51.3433 551.126 50.55 551.126 49.65C551.126 48.95 551.239 48.2933 551.466 47.68C551.693 47.06 552.016 46.5233 552.436 46.07C552.863 45.61 553.379 45.2467 553.986 44.98C554.599 44.7133 555.289 44.58 556.056 44.58ZM556.106 46.35C555.386 46.35 554.823 46.5533 554.416 46.96C554.009 47.3667 553.749 47.9433 553.636 48.69H558.276C558.276 48.37 558.233 48.07 558.146 47.79C558.059 47.5033 557.926 47.2533 557.746 47.04C557.566 46.8267 557.339 46.66 557.066 46.54C556.793 46.4133 556.473 46.35 556.106 46.35ZM573.587 55C573.267 55 573.057 54.85 572.957 54.55L572.757 53.56C572.544 53.8 572.32 54.0167 572.087 54.21C571.854 54.4033 571.6 54.57 571.327 54.71C571.06 54.85 570.77 54.9567 570.457 55.03C570.15 55.11 569.817 55.15 569.457 55.15C568.897 55.15 568.384 55.0333 567.917 54.8C567.45 54.5667 567.047 54.23 566.707 53.79C566.374 53.3433 566.114 52.7933 565.927 52.14C565.747 51.4867 565.657 50.74 565.657 49.9C565.657 49.14 565.76 48.4333 565.967 47.78C566.174 47.1267 566.47 46.56 566.857 46.08C567.244 45.6 567.707 45.2267 568.247 44.96C568.787 44.6867 569.394 44.55 570.067 44.55C570.64 44.55 571.13 44.6433 571.537 44.83C571.944 45.01 572.307 45.2533 572.627 45.56V40.14H575.097V55H573.587ZM570.297 53.19C570.81 53.19 571.247 53.0833 571.607 52.87C571.967 52.6567 572.307 52.3533 572.627 51.96V47.36C572.347 47.02 572.04 46.78 571.707 46.64C571.38 46.5 571.027 46.43 570.647 46.43C570.274 46.43 569.934 46.5 569.627 46.64C569.327 46.78 569.07 46.9933 568.857 47.28C568.65 47.56 568.49 47.92 568.377 48.36C568.264 48.7933 568.207 49.3067 568.207 49.9C568.207 50.5 568.254 51.01 568.347 51.43C568.447 51.8433 568.587 52.1833 568.767 52.45C568.947 52.71 569.167 52.9 569.427 53.02C569.687 53.1333 569.977 53.19 570.297 53.19ZM582.013 44.58C582.66 44.58 583.253 44.6833 583.793 44.89C584.34 45.0967 584.81 45.4 585.203 45.8C585.596 46.1933 585.903 46.68 586.123 47.26C586.343 47.8333 586.453 48.49 586.453 49.23C586.453 49.4167 586.443 49.5733 586.423 49.7C586.41 49.82 586.38 49.9167 586.333 49.99C586.293 50.0567 586.236 50.1067 586.163 50.14C586.09 50.1667 585.996 50.18 585.883 50.18H579.543C579.616 51.2333 579.9 52.0067 580.393 52.5C580.886 52.9933 581.54 53.24 582.353 53.24C582.753 53.24 583.096 53.1933 583.383 53.1C583.676 53.0067 583.93 52.9033 584.143 52.79C584.363 52.6767 584.553 52.5733 584.713 52.48C584.88 52.3867 585.04 52.34 585.193 52.34C585.293 52.34 585.38 52.36 585.453 52.4C585.526 52.44 585.59 52.4967 585.643 52.57L586.363 53.47C586.09 53.79 585.783 54.06 585.443 54.28C585.103 54.4933 584.746 54.6667 584.373 54.8C584.006 54.9267 583.63 55.0167 583.243 55.07C582.863 55.1233 582.493 55.15 582.133 55.15C581.42 55.15 580.756 55.0333 580.143 54.8C579.53 54.56 578.996 54.21 578.543 53.75C578.09 53.2833 577.733 52.71 577.473 52.03C577.213 51.3433 577.083 50.55 577.083 49.65C577.083 48.95 577.196 48.2933 577.423 47.68C577.65 47.06 577.973 46.5233 578.393 46.07C578.82 45.61 579.336 45.2467 579.943 44.98C580.556 44.7133 581.246 44.58 582.013 44.58ZM582.063 46.35C581.343 46.35 580.78 46.5533 580.373 46.96C579.966 47.3667 579.706 47.9433 579.593 48.69H584.233C584.233 48.37 584.19 48.07 584.103 47.79C584.016 47.5033 583.883 47.2533 583.703 47.04C583.523 46.8267 583.296 46.66 583.023 46.54C582.75 46.4133 582.43 46.35 582.063 46.35ZM588.457 58.35V44.74H589.967C590.127 44.74 590.263 44.7767 590.377 44.85C590.49 44.9233 590.563 45.0367 590.597 45.19L590.797 46.14C591.21 45.6667 591.683 45.2833 592.217 44.99C592.757 44.6967 593.387 44.55 594.107 44.55C594.667 44.55 595.177 44.6667 595.637 44.9C596.103 45.1333 596.503 45.4733 596.837 45.92C597.177 46.36 597.437 46.9067 597.617 47.56C597.803 48.2067 597.897 48.95 597.897 49.79C597.897 50.5567 597.793 51.2667 597.587 51.92C597.38 52.5733 597.083 53.14 596.697 53.62C596.317 54.1 595.853 54.4767 595.307 54.75C594.767 55.0167 594.16 55.15 593.487 55.15C592.907 55.15 592.413 55.0633 592.007 54.89C591.607 54.71 591.247 54.4633 590.927 54.15V58.35H588.457ZM593.257 46.5C592.743 46.5 592.303 46.61 591.937 46.83C591.577 47.0433 591.24 47.3467 590.927 47.74V52.34C591.207 52.6867 591.51 52.93 591.837 53.07C592.17 53.2033 592.527 53.27 592.907 53.27C593.28 53.27 593.617 53.2 593.917 53.06C594.223 52.92 594.48 52.7067 594.687 52.42C594.9 52.1333 595.063 51.7733 595.177 51.34C595.29 50.9 595.347 50.3833 595.347 49.79C595.347 49.19 595.297 48.6833 595.197 48.27C595.103 47.85 594.967 47.51 594.787 47.25C594.607 46.99 594.387 46.8 594.127 46.68C593.873 46.56 593.583 46.5 593.257 46.5ZM607.805 55H606.695C606.462 55 606.279 54.9667 606.145 54.9C606.012 54.8267 605.912 54.6833 605.845 54.47L605.625 53.74C605.365 53.9733 605.109 54.18 604.855 54.36C604.609 54.5333 604.352 54.68 604.085 54.8C603.819 54.92 603.535 55.01 603.235 55.07C602.935 55.13 602.602 55.16 602.235 55.16C601.802 55.16 601.402 55.1033 601.035 54.99C600.669 54.87 600.352 54.6933 600.085 54.46C599.825 54.2267 599.622 53.9367 599.475 53.59C599.329 53.2433 599.255 52.84 599.255 52.38C599.255 51.9933 599.355 51.6133 599.555 51.24C599.762 50.86 600.102 50.52 600.575 50.22C601.049 49.9133 601.679 49.66 602.465 49.46C603.252 49.26 604.229 49.1467 605.395 49.12V48.52C605.395 47.8333 605.249 47.3267 604.955 47C604.669 46.6667 604.249 46.5 603.695 46.5C603.295 46.5 602.962 46.5467 602.695 46.64C602.429 46.7333 602.195 46.84 601.995 46.96C601.802 47.0733 601.622 47.1767 601.455 47.27C601.289 47.3633 601.105 47.41 600.905 47.41C600.739 47.41 600.595 47.3667 600.475 47.28C600.355 47.1933 600.259 47.0867 600.185 46.96L599.735 46.17C600.915 45.09 602.339 44.55 604.005 44.55C604.605 44.55 605.139 44.65 605.605 44.85C606.079 45.0433 606.479 45.3167 606.805 45.67C607.132 46.0167 607.379 46.4333 607.545 46.92C607.719 47.4067 607.805 47.94 607.805 48.52V55ZM603.005 53.46C603.259 53.46 603.492 53.4367 603.705 53.39C603.919 53.3433 604.119 53.2733 604.305 53.18C604.499 53.0867 604.682 52.9733 604.855 52.84C605.035 52.7 605.215 52.5367 605.395 52.35V50.62C604.675 50.6533 604.072 50.7167 603.585 50.81C603.105 50.8967 602.719 51.01 602.425 51.15C602.132 51.29 601.922 51.4533 601.795 51.64C601.675 51.8267 601.615 52.03 601.615 52.25C601.615 52.6833 601.742 52.9933 601.995 53.18C602.255 53.3667 602.592 53.46 603.005 53.46ZM610.234 55V44.74H611.684C611.937 44.74 612.114 44.7867 612.214 44.88C612.314 44.9733 612.381 45.1333 612.414 45.36L612.564 46.6C612.931 45.9667 613.361 45.4667 613.854 45.1C614.347 44.7333 614.901 44.55 615.514 44.55C616.021 44.55 616.441 44.6667 616.774 44.9L616.454 46.75C616.434 46.87 616.391 46.9567 616.324 47.01C616.257 47.0567 616.167 47.08 616.054 47.08C615.954 47.08 615.817 47.0567 615.644 47.01C615.471 46.9633 615.241 46.94 614.954 46.94C614.441 46.94 614.001 47.0833 613.634 47.37C613.267 47.65 612.957 48.0633 612.704 48.61V55H610.234ZM621.768 55.16C620.881 55.16 620.198 54.91 619.718 54.41C619.238 53.9033 618.998 53.2067 618.998 52.32V46.59H617.958C617.825 46.59 617.708 46.5467 617.608 46.46C617.515 46.3733 617.468 46.2433 617.468 46.07V45.09L619.118 44.82L619.638 42.02C619.665 41.8867 619.725 41.7833 619.818 41.71C619.918 41.6367 620.041 41.6 620.188 41.6H621.468V44.83H624.168V46.59H621.468V52.15C621.468 52.47 621.548 52.72 621.708 52.9C621.868 53.08 622.081 53.17 622.348 53.17C622.501 53.17 622.628 53.1533 622.728 53.12C622.835 53.08 622.925 53.04 622.998 53C623.078 52.96 623.148 52.9233 623.208 52.89C623.268 52.85 623.328 52.83 623.388 52.83C623.461 52.83 623.521 52.85 623.568 52.89C623.615 52.9233 623.665 52.9767 623.718 53.05L624.458 54.25C624.098 54.55 623.685 54.7767 623.218 54.93C622.751 55.0833 622.268 55.16 621.768 55.16ZM626.132 55V44.74H627.643C627.963 44.74 628.173 44.89 628.273 45.19L628.433 45.95C628.613 45.75 628.799 45.5667 628.993 45.4C629.193 45.2333 629.403 45.09 629.623 44.97C629.849 44.85 630.089 44.7567 630.343 44.69C630.603 44.6167 630.886 44.58 631.193 44.58C631.839 44.58 632.369 44.7567 632.783 45.11C633.203 45.4567 633.516 45.92 633.723 46.5C633.883 46.16 634.083 45.87 634.323 45.63C634.563 45.3833 634.826 45.1833 635.113 45.03C635.399 44.8767 635.703 44.7633 636.023 44.69C636.349 44.6167 636.676 44.58 637.003 44.58C637.569 44.58 638.073 44.6667 638.513 44.84C638.953 45.0133 639.323 45.2667 639.623 45.6C639.923 45.9333 640.149 46.34 640.303 46.82C640.463 47.3 640.543 47.85 640.543 48.47V55H638.073V48.47C638.073 47.8167 637.929 47.3267 637.643 47C637.356 46.6667 636.936 46.5 636.383 46.5C636.129 46.5 635.893 46.5433 635.673 46.63C635.459 46.7167 635.269 46.8433 635.103 47.01C634.943 47.17 634.816 47.3733 634.723 47.62C634.629 47.8667 634.583 48.15 634.583 48.47V55H632.103V48.47C632.103 47.7833 631.963 47.2833 631.683 46.97C631.409 46.6567 631.003 46.5 630.462 46.5C630.109 46.5 629.776 46.59 629.463 46.77C629.156 46.9433 628.869 47.1833 628.603 47.49V55H626.132ZM647.208 44.58C647.855 44.58 648.448 44.6833 648.988 44.89C649.535 45.0967 650.005 45.4 650.398 45.8C650.792 46.1933 651.098 46.68 651.318 47.26C651.538 47.8333 651.648 48.49 651.648 49.23C651.648 49.4167 651.638 49.5733 651.618 49.7C651.605 49.82 651.575 49.9167 651.528 49.99C651.488 50.0567 651.432 50.1067 651.358 50.14C651.285 50.1667 651.192 50.18 651.078 50.18H644.738C644.812 51.2333 645.095 52.0067 645.588 52.5C646.082 52.9933 646.735 53.24 647.548 53.24C647.948 53.24 648.292 53.1933 648.578 53.1C648.872 53.0067 649.125 52.9033 649.338 52.79C649.558 52.6767 649.748 52.5733 649.908 52.48C650.075 52.3867 650.235 52.34 650.388 52.34C650.488 52.34 650.575 52.36 650.648 52.4C650.722 52.44 650.785 52.4967 650.838 52.57L651.558 53.47C651.285 53.79 650.978 54.06 650.638 54.28C650.298 54.4933 649.942 54.6667 649.568 54.8C649.202 54.9267 648.825 55.0167 648.438 55.07C648.058 55.1233 647.688 55.15 647.328 55.15C646.615 55.15 645.952 55.0333 645.338 54.8C644.725 54.56 644.192 54.21 643.738 53.75C643.285 53.2833 642.928 52.71 642.668 52.03C642.408 51.3433 642.278 50.55 642.278 49.65C642.278 48.95 642.392 48.2933 642.618 47.68C642.845 47.06 643.168 46.5233 643.588 46.07C644.015 45.61 644.532 45.2467 645.138 44.98C645.752 44.7133 646.442 44.58 647.208 44.58ZM647.258 46.35C646.538 46.35 645.975 46.5533 645.568 46.96C645.162 47.3667 644.902 47.9433 644.788 48.69H649.428C649.428 48.37 649.385 48.07 649.298 47.79C649.212 47.5033 649.078 47.2533 648.898 47.04C648.718 46.8267 648.492 46.66 648.218 46.54C647.945 46.4133 647.625 46.35 647.258 46.35ZM653.652 55V44.74H655.162C655.482 44.74 655.692 44.89 655.792 45.19L655.962 46C656.169 45.7867 656.385 45.5933 656.612 45.42C656.845 45.2467 657.089 45.0967 657.342 44.97C657.602 44.8433 657.879 44.7467 658.172 44.68C658.465 44.6133 658.785 44.58 659.132 44.58C659.692 44.58 660.189 44.6767 660.622 44.87C661.055 45.0567 661.415 45.3233 661.702 45.67C661.995 46.01 662.215 46.42 662.362 46.9C662.515 47.3733 662.592 47.8967 662.592 48.47V55H660.122V48.47C660.122 47.8433 659.975 47.36 659.682 47.02C659.395 46.6733 658.962 46.5 658.382 46.5C657.955 46.5 657.555 46.5967 657.182 46.79C656.809 46.9833 656.455 47.2467 656.122 47.58V55H653.652ZM668.389 55.16C667.503 55.16 666.819 54.91 666.339 54.41C665.859 53.9033 665.619 53.2067 665.619 52.32V46.59H664.579C664.446 46.59 664.329 46.5467 664.229 46.46C664.136 46.3733 664.089 46.2433 664.089 46.07V45.09L665.739 44.82L666.259 42.02C666.286 41.8867 666.346 41.7833 666.439 41.71C666.539 41.6367 666.663 41.6 666.809 41.6H668.089V44.83H670.789V46.59H668.089V52.15C668.089 52.47 668.169 52.72 668.329 52.9C668.489 53.08 668.703 53.17 668.969 53.17C669.123 53.17 669.249 53.1533 669.349 53.12C669.456 53.08 669.546 53.04 669.619 53C669.699 52.96 669.769 52.9233 669.829 52.89C669.889 52.85 669.949 52.83 670.009 52.83C670.083 52.83 670.143 52.85 670.189 52.89C670.236 52.9233 670.286 52.9767 670.339 53.05L671.079 54.25C670.719 54.55 670.306 54.7767 669.839 54.93C669.373 55.0833 668.889 55.16 668.389 55.16ZM672.164 53.64C672.164 53.4333 672.2 53.2367 672.274 53.05C672.354 52.8633 672.46 52.7033 672.594 52.57C672.734 52.4367 672.897 52.33 673.084 52.25C673.27 52.17 673.47 52.13 673.684 52.13C673.89 52.13 674.087 52.17 674.274 52.25C674.46 52.33 674.62 52.4367 674.754 52.57C674.887 52.7033 674.994 52.8633 675.074 53.05C675.154 53.2367 675.194 53.4333 675.194 53.64C675.194 53.8533 675.154 54.0533 675.074 54.24C674.994 54.42 674.887 54.5767 674.754 54.71C674.62 54.8433 674.46 54.9467 674.274 55.02C674.087 55.1 673.89 55.14 673.684 55.14C673.47 55.14 673.27 55.1 673.084 55.02C672.897 54.9467 672.734 54.8433 672.594 54.71C672.46 54.5767 672.354 54.42 672.274 54.24C672.2 54.0533 672.164 53.8533 672.164 53.64ZM681.253 55V40.54H686.243C687.19 40.54 687.996 40.63 688.663 40.81C689.336 40.99 689.886 41.2467 690.313 41.58C690.746 41.9133 691.063 42.3167 691.263 42.79C691.463 43.2633 691.563 43.7967 691.563 44.39C691.563 44.73 691.513 45.0567 691.413 45.37C691.313 45.6767 691.156 45.9667 690.943 46.24C690.736 46.5067 690.47 46.75 690.143 46.97C689.823 47.19 689.44 47.3767 688.993 47.53C690.98 47.9767 691.973 49.05 691.973 50.75C691.973 51.3633 691.856 51.93 691.623 52.45C691.39 52.97 691.05 53.42 690.603 53.8C690.156 54.1733 689.606 54.4667 688.953 54.68C688.3 54.8933 687.553 55 686.713 55H681.253ZM683.943 48.66V52.9H686.673C687.173 52.9 687.59 52.84 687.923 52.72C688.263 52.6 688.533 52.44 688.733 52.24C688.94 52.04 689.086 51.8067 689.173 51.54C689.266 51.2733 689.313 50.99 689.313 50.69C689.313 50.3767 689.263 50.0967 689.163 49.85C689.063 49.5967 688.906 49.3833 688.693 49.21C688.48 49.03 688.206 48.8933 687.873 48.8C687.54 48.7067 687.136 48.66 686.663 48.66H683.943ZM683.943 46.8H686.093C687.006 46.8 687.7 46.6333 688.173 46.3C688.646 45.9667 688.883 45.4367 688.883 44.71C688.883 43.9567 688.67 43.42 688.243 43.1C687.816 42.78 687.15 42.62 686.243 42.62H683.943V46.8ZM698.38 44.58C699.027 44.58 699.62 44.6833 700.16 44.89C700.707 45.0967 701.177 45.4 701.57 45.8C701.964 46.1933 702.27 46.68 702.49 47.26C702.71 47.8333 702.82 48.49 702.82 49.23C702.82 49.4167 702.81 49.5733 702.79 49.7C702.777 49.82 702.747 49.9167 702.7 49.99C702.66 50.0567 702.604 50.1067 702.53 50.14C702.457 50.1667 702.364 50.18 702.25 50.18H695.91C695.984 51.2333 696.267 52.0067 696.76 52.5C697.254 52.9933 697.907 53.24 698.72 53.24C699.12 53.24 699.464 53.1933 699.75 53.1C700.044 53.0067 700.297 52.9033 700.51 52.79C700.73 52.6767 700.92 52.5733 701.08 52.48C701.247 52.3867 701.407 52.34 701.56 52.34C701.66 52.34 701.747 52.36 701.82 52.4C701.894 52.44 701.957 52.4967 702.01 52.57L702.73 53.47C702.457 53.79 702.15 54.06 701.81 54.28C701.47 54.4933 701.114 54.6667 700.74 54.8C700.374 54.9267 699.997 55.0167 699.61 55.07C699.23 55.1233 698.86 55.15 698.5 55.15C697.787 55.15 697.124 55.0333 696.51 54.8C695.897 54.56 695.364 54.21 694.91 53.75C694.457 53.2833 694.1 52.71 693.84 52.03C693.58 51.3433 693.45 50.55 693.45 49.65C693.45 48.95 693.564 48.2933 693.79 47.68C694.017 47.06 694.34 46.5233 694.76 46.07C695.187 45.61 695.704 45.2467 696.31 44.98C696.924 44.7133 697.614 44.58 698.38 44.58ZM698.43 46.35C697.71 46.35 697.147 46.5533 696.74 46.96C696.334 47.3667 696.074 47.9433 695.96 48.69H700.6C700.6 48.37 700.557 48.07 700.47 47.79C700.384 47.5033 700.25 47.2533 700.07 47.04C699.89 46.8267 699.664 46.66 699.39 46.54C699.117 46.4133 698.797 46.35 698.43 46.35ZM710.914 46.74C710.847 46.8467 710.777 46.9233 710.704 46.97C710.631 47.01 710.537 47.03 710.424 47.03C710.304 47.03 710.174 46.9967 710.034 46.93C709.901 46.8633 709.744 46.79 709.564 46.71C709.384 46.6233 709.177 46.5467 708.944 46.48C708.717 46.4133 708.447 46.38 708.134 46.38C707.647 46.38 707.264 46.4833 706.984 46.69C706.704 46.8967 706.564 47.1667 706.564 47.5C706.564 47.72 706.634 47.9067 706.774 48.06C706.921 48.2067 707.111 48.3367 707.344 48.45C707.584 48.5633 707.854 48.6667 708.154 48.76C708.454 48.8467 708.761 48.9433 709.074 49.05C709.387 49.1567 709.694 49.28 709.994 49.42C710.294 49.5533 710.561 49.7267 710.794 49.94C711.034 50.1467 711.224 50.3967 711.364 50.69C711.511 50.9833 711.584 51.3367 711.584 51.75C711.584 52.2433 711.494 52.7 711.314 53.12C711.134 53.5333 710.871 53.8933 710.524 54.2C710.177 54.5 709.747 54.7367 709.234 54.91C708.727 55.0767 708.144 55.16 707.484 55.16C707.131 55.16 706.784 55.1267 706.444 55.06C706.111 55 705.787 54.9133 705.474 54.8C705.167 54.6867 704.881 54.5533 704.614 54.4C704.354 54.2467 704.124 54.08 703.924 53.9L704.494 52.96C704.567 52.8467 704.654 52.76 704.754 52.7C704.854 52.64 704.981 52.61 705.134 52.61C705.287 52.61 705.431 52.6533 705.564 52.74C705.704 52.8267 705.864 52.92 706.044 53.02C706.224 53.12 706.434 53.2133 706.674 53.3C706.921 53.3867 707.231 53.43 707.604 53.43C707.897 53.43 708.147 53.3967 708.354 53.33C708.567 53.2567 708.741 53.1633 708.874 53.05C709.014 52.9367 709.114 52.8067 709.174 52.66C709.241 52.5067 709.274 52.35 709.274 52.19C709.274 51.95 709.201 51.7533 709.054 51.6C708.914 51.4467 708.724 51.3133 708.484 51.2C708.251 51.0867 707.981 50.9867 707.674 50.9C707.374 50.8067 707.064 50.7067 706.744 50.6C706.431 50.4933 706.121 50.37 705.814 50.23C705.514 50.0833 705.244 49.9 705.004 49.68C704.771 49.46 704.581 49.19 704.434 48.87C704.294 48.55 704.224 48.1633 704.224 47.71C704.224 47.29 704.307 46.89 704.474 46.51C704.641 46.13 704.884 45.8 705.204 45.52C705.531 45.2333 705.934 45.0067 706.414 44.84C706.901 44.6667 707.461 44.58 708.094 44.58C708.801 44.58 709.444 44.6967 710.024 44.93C710.604 45.1633 711.087 45.47 711.474 45.85L710.914 46.74ZM716.924 55.16C716.038 55.16 715.354 54.91 714.874 54.41C714.394 53.9033 714.154 53.2067 714.154 52.32V46.59H713.114C712.981 46.59 712.864 46.5467 712.764 46.46C712.671 46.3733 712.624 46.2433 712.624 46.07V45.09L714.274 44.82L714.794 42.02C714.821 41.8867 714.881 41.7833 714.974 41.71C715.074 41.6367 715.198 41.6 715.344 41.6H716.624V44.83H719.324V46.59H716.624V52.15C716.624 52.47 716.704 52.72 716.864 52.9C717.024 53.08 717.238 53.17 717.504 53.17C717.658 53.17 717.784 53.1533 717.884 53.12C717.991 53.08 718.081 53.04 718.154 53C718.234 52.96 718.304 52.9233 718.364 52.89C718.424 52.85 718.484 52.83 718.544 52.83C718.618 52.83 718.678 52.85 718.724 52.89C718.771 52.9233 718.821 52.9767 718.874 53.05L719.614 54.25C719.254 54.55 718.841 54.7767 718.374 54.93C717.908 55.0833 717.424 55.16 716.924 55.16ZM728.076 49.91V55H725.386V40.54H730.096C731.063 40.54 731.899 40.6533 732.606 40.88C733.313 41.1067 733.896 41.4233 734.356 41.83C734.816 42.2367 735.156 42.7233 735.376 43.29C735.596 43.8567 735.706 44.4767 735.706 45.15C735.706 45.85 735.589 46.4933 735.356 47.08C735.123 47.66 734.773 48.16 734.306 48.58C733.839 49 733.256 49.3267 732.556 49.56C731.856 49.7933 731.036 49.91 730.096 49.91H728.076ZM728.076 47.81H730.096C730.589 47.81 731.019 47.75 731.386 47.63C731.753 47.5033 732.056 47.3267 732.296 47.1C732.536 46.8667 732.716 46.5867 732.836 46.26C732.956 45.9267 733.016 45.5567 733.016 45.15C733.016 44.7633 732.956 44.4133 732.836 44.1C732.716 43.7867 732.536 43.52 732.296 43.3C732.056 43.08 731.753 42.9133 731.386 42.8C731.019 42.68 730.589 42.62 730.096 42.62H728.076V47.81ZM737.656 55V44.74H739.106C739.359 44.74 739.536 44.7867 739.636 44.88C739.736 44.9733 739.803 45.1333 739.836 45.36L739.986 46.6C740.353 45.9667 740.783 45.4667 741.276 45.1C741.769 44.7333 742.323 44.55 742.936 44.55C743.443 44.55 743.863 44.6667 744.196 44.9L743.876 46.75C743.856 46.87 743.813 46.9567 743.746 47.01C743.679 47.0567 743.589 47.08 743.476 47.08C743.376 47.08 743.239 47.0567 743.066 47.01C742.893 46.9633 742.663 46.94 742.376 46.94C741.863 46.94 741.423 47.0833 741.056 47.37C740.689 47.65 740.379 48.0633 740.126 48.61V55H737.656ZM753.567 55H752.457C752.224 55 752.04 54.9667 751.907 54.9C751.774 54.8267 751.674 54.6833 751.607 54.47L751.387 53.74C751.127 53.9733 750.87 54.18 750.617 54.36C750.37 54.5333 750.114 54.68 749.847 54.8C749.58 54.92 749.297 55.01 748.997 55.07C748.697 55.13 748.364 55.16 747.997 55.16C747.564 55.16 747.164 55.1033 746.797 54.99C746.43 54.87 746.114 54.6933 745.847 54.46C745.587 54.2267 745.384 53.9367 745.237 53.59C745.09 53.2433 745.017 52.84 745.017 52.38C745.017 51.9933 745.117 51.6133 745.317 51.24C745.524 50.86 745.864 50.52 746.337 50.22C746.81 49.9133 747.44 49.66 748.227 49.46C749.014 49.26 749.99 49.1467 751.157 49.12V48.52C751.157 47.8333 751.01 47.3267 750.717 47C750.43 46.6667 750.01 46.5 749.457 46.5C749.057 46.5 748.724 46.5467 748.457 46.64C748.19 46.7333 747.957 46.84 747.757 46.96C747.564 47.0733 747.384 47.1767 747.217 47.27C747.05 47.3633 746.867 47.41 746.667 47.41C746.5 47.41 746.357 47.3667 746.237 47.28C746.117 47.1933 746.02 47.0867 745.947 46.96L745.497 46.17C746.677 45.09 748.1 44.55 749.767 44.55C750.367 44.55 750.9 44.65 751.367 44.85C751.84 45.0433 752.24 45.3167 752.567 45.67C752.894 46.0167 753.14 46.4333 753.307 46.92C753.48 47.4067 753.567 47.94 753.567 48.52V55ZM748.767 53.46C749.02 53.46 749.254 53.4367 749.467 53.39C749.68 53.3433 749.88 53.2733 750.067 53.18C750.26 53.0867 750.444 52.9733 750.617 52.84C750.797 52.7 750.977 52.5367 751.157 52.35V50.62C750.437 50.6533 749.834 50.7167 749.347 50.81C748.867 50.8967 748.48 51.01 748.187 51.15C747.894 51.29 747.684 51.4533 747.557 51.64C747.437 51.8267 747.377 52.03 747.377 52.25C747.377 52.6833 747.504 52.9933 747.757 53.18C748.017 53.3667 748.354 53.46 748.767 53.46ZM763.206 46.91C763.132 47.0033 763.059 47.0767 762.986 47.13C762.919 47.1833 762.819 47.21 762.686 47.21C762.559 47.21 762.436 47.1733 762.316 47.1C762.196 47.02 762.052 46.9333 761.886 46.84C761.719 46.74 761.519 46.6533 761.286 46.58C761.059 46.5 760.776 46.46 760.436 46.46C760.002 46.46 759.622 46.54 759.296 46.7C758.969 46.8533 758.696 47.0767 758.476 47.37C758.262 47.6633 758.102 48.02 757.996 48.44C757.889 48.8533 757.836 49.3233 757.836 49.85C757.836 50.3967 757.892 50.8833 758.006 51.31C758.126 51.7367 758.296 52.0967 758.516 52.39C758.736 52.6767 759.002 52.8967 759.316 53.05C759.629 53.1967 759.982 53.27 760.376 53.27C760.769 53.27 761.086 53.2233 761.326 53.13C761.572 53.03 761.779 52.9233 761.946 52.81C762.112 52.69 762.256 52.5833 762.376 52.49C762.502 52.39 762.642 52.34 762.796 52.34C762.996 52.34 763.146 52.4167 763.246 52.57L763.956 53.47C763.682 53.79 763.386 54.06 763.066 54.28C762.746 54.4933 762.412 54.6667 762.066 54.8C761.726 54.9267 761.372 55.0167 761.006 55.07C760.639 55.1233 760.276 55.15 759.916 55.15C759.282 55.15 758.686 55.0333 758.126 54.8C757.566 54.56 757.076 54.2133 756.656 53.76C756.242 53.3067 755.912 52.7533 755.666 52.1C755.426 51.44 755.306 50.69 755.306 49.85C755.306 49.0967 755.412 48.4 755.626 47.76C755.846 47.1133 756.166 46.5567 756.586 46.09C757.006 45.6167 757.526 45.2467 758.146 44.98C758.766 44.7133 759.479 44.58 760.286 44.58C761.052 44.58 761.722 44.7033 762.296 44.95C762.876 45.1967 763.396 45.55 763.856 46.01L763.206 46.91ZM768.897 55.16C768.01 55.16 767.327 54.91 766.847 54.41C766.367 53.9033 766.127 53.2067 766.127 52.32V46.59H765.087C764.954 46.59 764.837 46.5467 764.737 46.46C764.644 46.3733 764.597 46.2433 764.597 46.07V45.09L766.247 44.82L766.767 42.02C766.794 41.8867 766.854 41.7833 766.947 41.71C767.047 41.6367 767.17 41.6 767.317 41.6H768.597V44.83H771.297V46.59H768.597V52.15C768.597 52.47 768.677 52.72 768.837 52.9C768.997 53.08 769.21 53.17 769.477 53.17C769.63 53.17 769.757 53.1533 769.857 53.12C769.964 53.08 770.054 53.04 770.127 53C770.207 52.96 770.277 52.9233 770.337 52.89C770.397 52.85 770.457 52.83 770.517 52.83C770.59 52.83 770.65 52.85 770.697 52.89C770.744 52.9233 770.794 52.9767 770.847 53.05L771.587 54.25C771.227 54.55 770.814 54.7767 770.347 54.93C769.88 55.0833 769.397 55.16 768.897 55.16ZM775.891 44.74V55H773.421V44.74H775.891ZM776.261 41.75C776.261 41.9633 776.218 42.1633 776.131 42.35C776.045 42.5367 775.928 42.7 775.781 42.84C775.641 42.98 775.475 43.0933 775.281 43.18C775.088 43.26 774.881 43.3 774.661 43.3C774.448 43.3 774.245 43.26 774.051 43.18C773.865 43.0933 773.701 42.98 773.561 42.84C773.421 42.7 773.308 42.5367 773.221 42.35C773.141 42.1633 773.101 41.9633 773.101 41.75C773.101 41.53 773.141 41.3233 773.221 41.13C773.308 40.9367 773.421 40.77 773.561 40.63C773.701 40.49 773.865 40.38 774.051 40.3C774.245 40.2133 774.448 40.17 774.661 40.17C774.881 40.17 775.088 40.2133 775.281 40.3C775.475 40.38 775.641 40.49 775.781 40.63C775.928 40.77 776.045 40.9367 776.131 41.13C776.218 41.3233 776.261 41.53 776.261 41.75ZM785.901 46.91C785.828 47.0033 785.754 47.0767 785.681 47.13C785.614 47.1833 785.514 47.21 785.381 47.21C785.254 47.21 785.131 47.1733 785.011 47.1C784.891 47.02 784.748 46.9333 784.581 46.84C784.414 46.74 784.214 46.6533 783.981 46.58C783.754 46.5 783.471 46.46 783.131 46.46C782.698 46.46 782.318 46.54 781.991 46.7C781.664 46.8533 781.391 47.0767 781.171 47.37C780.958 47.6633 780.798 48.02 780.691 48.44C780.584 48.8533 780.531 49.3233 780.531 49.85C780.531 50.3967 780.588 50.8833 780.701 51.31C780.821 51.7367 780.991 52.0967 781.211 52.39C781.431 52.6767 781.698 52.8967 782.011 53.05C782.324 53.1967 782.678 53.27 783.071 53.27C783.464 53.27 783.781 53.2233 784.021 53.13C784.268 53.03 784.474 52.9233 784.641 52.81C784.808 52.69 784.951 52.5833 785.071 52.49C785.198 52.39 785.338 52.34 785.491 52.34C785.691 52.34 785.841 52.4167 785.941 52.57L786.651 53.47C786.378 53.79 786.081 54.06 785.761 54.28C785.441 54.4933 785.108 54.6667 784.761 54.8C784.421 54.9267 784.068 55.0167 783.701 55.07C783.334 55.1233 782.971 55.15 782.611 55.15C781.978 55.15 781.381 55.0333 780.821 54.8C780.261 54.56 779.771 54.2133 779.351 53.76C778.938 53.3067 778.608 52.7533 778.361 52.1C778.121 51.44 778.001 50.69 778.001 49.85C778.001 49.0967 778.108 48.4 778.321 47.76C778.541 47.1133 778.861 46.5567 779.281 46.09C779.701 45.6167 780.221 45.2467 780.841 44.98C781.461 44.7133 782.174 44.58 782.981 44.58C783.748 44.58 784.418 44.7033 784.991 44.95C785.571 45.1967 786.091 45.55 786.551 46.01L785.901 46.91ZM792.462 44.58C793.109 44.58 793.702 44.6833 794.242 44.89C794.789 45.0967 795.259 45.4 795.652 45.8C796.046 46.1933 796.352 46.68 796.572 47.26C796.792 47.8333 796.902 48.49 796.902 49.23C796.902 49.4167 796.892 49.5733 796.872 49.7C796.859 49.82 796.829 49.9167 796.782 49.99C796.742 50.0567 796.686 50.1067 796.612 50.14C796.539 50.1667 796.446 50.18 796.332 50.18H789.992C790.066 51.2333 790.349 52.0067 790.842 52.5C791.336 52.9933 791.989 53.24 792.802 53.24C793.202 53.24 793.546 53.1933 793.832 53.1C794.126 53.0067 794.379 52.9033 794.592 52.79C794.812 52.6767 795.002 52.5733 795.162 52.48C795.329 52.3867 795.489 52.34 795.642 52.34C795.742 52.34 795.829 52.36 795.902 52.4C795.976 52.44 796.039 52.4967 796.092 52.57L796.812 53.47C796.539 53.79 796.232 54.06 795.892 54.28C795.552 54.4933 795.196 54.6667 794.822 54.8C794.456 54.9267 794.079 55.0167 793.692 55.07C793.312 55.1233 792.942 55.15 792.582 55.15C791.869 55.15 791.206 55.0333 790.592 54.8C789.979 54.56 789.446 54.21 788.992 53.75C788.539 53.2833 788.182 52.71 787.922 52.03C787.662 51.3433 787.532 50.55 787.532 49.65C787.532 48.95 787.646 48.2933 787.872 47.68C788.099 47.06 788.422 46.5233 788.842 46.07C789.269 45.61 789.786 45.2467 790.392 44.98C791.006 44.7133 791.696 44.58 792.462 44.58ZM792.512 46.35C791.792 46.35 791.229 46.5533 790.822 46.96C790.416 47.3667 790.156 47.9433 790.042 48.69H794.682C794.682 48.37 794.639 48.07 794.552 47.79C794.466 47.5033 794.332 47.2533 794.152 47.04C793.972 46.8267 793.746 46.66 793.472 46.54C793.199 46.4133 792.879 46.35 792.512 46.35ZM804.996 46.74C804.929 46.8467 804.859 46.9233 804.786 46.97C804.713 47.01 804.619 47.03 804.506 47.03C804.386 47.03 804.256 46.9967 804.116 46.93C803.983 46.8633 803.826 46.79 803.646 46.71C803.466 46.6233 803.259 46.5467 803.026 46.48C802.799 46.4133 802.529 46.38 802.216 46.38C801.729 46.38 801.346 46.4833 801.066 46.69C800.786 46.8967 800.646 47.1667 800.646 47.5C800.646 47.72 800.716 47.9067 800.856 48.06C801.003 48.2067 801.193 48.3367 801.426 48.45C801.666 48.5633 801.936 48.6667 802.236 48.76C802.536 48.8467 802.843 48.9433 803.156 49.05C803.469 49.1567 803.776 49.28 804.076 49.42C804.376 49.5533 804.643 49.7267 804.876 49.94C805.116 50.1467 805.306 50.3967 805.446 50.69C805.593 50.9833 805.666 51.3367 805.666 51.75C805.666 52.2433 805.576 52.7 805.396 53.12C805.216 53.5333 804.953 53.8933 804.606 54.2C804.259 54.5 803.829 54.7367 803.316 54.91C802.809 55.0767 802.226 55.16 801.566 55.16C801.213 55.16 800.866 55.1267 800.526 55.06C800.193 55 799.869 54.9133 799.556 54.8C799.249 54.6867 798.963 54.5533 798.696 54.4C798.436 54.2467 798.206 54.08 798.006 53.9L798.576 52.96C798.649 52.8467 798.736 52.76 798.836 52.7C798.936 52.64 799.063 52.61 799.216 52.61C799.369 52.61 799.513 52.6533 799.646 52.74C799.786 52.8267 799.946 52.92 800.126 53.02C800.306 53.12 800.516 53.2133 800.756 53.3C801.003 53.3867 801.313 53.43 801.686 53.43C801.979 53.43 802.229 53.3967 802.436 53.33C802.649 53.2567 802.823 53.1633 802.956 53.05C803.096 52.9367 803.196 52.8067 803.256 52.66C803.323 52.5067 803.356 52.35 803.356 52.19C803.356 51.95 803.283 51.7533 803.136 51.6C802.996 51.4467 802.806 51.3133 802.566 51.2C802.333 51.0867 802.063 50.9867 801.756 50.9C801.456 50.8067 801.146 50.7067 800.826 50.6C800.513 50.4933 800.203 50.37 799.896 50.23C799.596 50.0833 799.326 49.9 799.086 49.68C798.853 49.46 798.663 49.19 798.516 48.87C798.376 48.55 798.306 48.1633 798.306 47.71C798.306 47.29 798.389 46.89 798.556 46.51C798.723 46.13 798.966 45.8 799.286 45.52C799.613 45.2333 800.016 45.0067 800.496 44.84C800.983 44.6667 801.543 44.58 802.176 44.58C802.883 44.58 803.526 44.6967 804.106 44.93C804.686 45.1633 805.169 45.47 805.556 45.85L804.996 46.74ZM807.046 53.64C807.046 53.4333 807.083 53.2367 807.156 53.05C807.236 52.8633 807.343 52.7033 807.476 52.57C807.616 52.4367 807.78 52.33 807.966 52.25C808.153 52.17 808.353 52.13 808.566 52.13C808.773 52.13 808.97 52.17 809.156 52.25C809.343 52.33 809.503 52.4367 809.636 52.57C809.77 52.7033 809.876 52.8633 809.956 53.05C810.036 53.2367 810.076 53.4333 810.076 53.64C810.076 53.8533 810.036 54.0533 809.956 54.24C809.876 54.42 809.77 54.5767 809.636 54.71C809.503 54.8433 809.343 54.9467 809.156 55.02C808.97 55.1 808.773 55.14 808.566 55.14C808.353 55.14 808.153 55.1 807.966 55.02C807.78 54.9467 807.616 54.8433 807.476 54.71C807.343 54.5767 807.236 54.42 807.156 54.24C807.083 54.0533 807.046 53.8533 807.046 53.64Z" fill="#1E212C"/>
<path d="M329.04 79.272C329.04 80.1307 328.904 80.92 328.632 81.64C328.36 82.3547 327.976 82.9707 327.48 83.488C326.984 84.0053 326.387 84.408 325.688 84.696C324.995 84.9787 324.227 85.12 323.384 85.12C322.541 85.12 321.773 84.9787 321.08 84.696C320.387 84.408 319.792 84.0053 319.296 83.488C318.8 82.9707 318.416 82.3547 318.144 81.64C317.872 80.92 317.736 80.1307 317.736 79.272C317.736 78.4133 317.872 77.6267 318.144 76.912C318.416 76.192 318.8 75.5733 319.296 75.056C319.792 74.5333 320.387 74.128 321.08 73.84C321.773 73.552 322.541 73.408 323.384 73.408C324.227 73.408 324.995 73.552 325.688 73.84C326.387 74.128 326.984 74.5333 327.48 75.056C327.976 75.5733 328.36 76.192 328.632 76.912C328.904 77.6267 329.04 78.4133 329.04 79.272ZM327.448 79.272C327.448 78.568 327.352 77.936 327.16 77.376C326.968 76.816 326.696 76.344 326.344 75.96C325.992 75.5707 325.565 75.272 325.064 75.064C324.563 74.856 324.003 74.752 323.384 74.752C322.771 74.752 322.213 74.856 321.712 75.064C321.211 75.272 320.781 75.5707 320.424 75.96C320.072 76.344 319.8 76.816 319.608 77.376C319.416 77.936 319.32 78.568 319.32 79.272C319.32 79.976 319.416 80.608 319.608 81.168C319.8 81.7227 320.072 82.1947 320.424 82.584C320.781 82.968 321.211 83.264 321.712 83.472C322.213 83.6747 322.771 83.776 323.384 83.776C324.003 83.776 324.563 83.6747 325.064 83.472C325.565 83.264 325.992 82.968 326.344 82.584C326.696 82.1947 326.968 81.7227 327.16 81.168C327.352 80.608 327.448 79.976 327.448 79.272ZM330.934 85V76.896H331.782C331.984 76.896 332.112 76.9947 332.166 77.192L332.278 78.072C332.63 77.6827 333.022 77.368 333.454 77.128C333.891 76.888 334.395 76.768 334.966 76.768C335.408 76.768 335.798 76.8427 336.134 76.992C336.475 77.136 336.758 77.344 336.982 77.616C337.211 77.8827 337.384 78.2053 337.502 78.584C337.619 78.9627 337.678 79.3813 337.678 79.84V85H336.254V79.84C336.254 79.2267 336.112 78.752 335.83 78.416C335.552 78.0747 335.126 77.904 334.55 77.904C334.128 77.904 333.734 78.0053 333.366 78.208C333.003 78.4107 332.667 78.6853 332.358 79.032V85H330.934ZM341.408 76.896V85H339.984V76.896H341.408ZM341.728 74.352C341.728 74.4907 341.699 74.6213 341.64 74.744C341.587 74.8613 341.512 74.968 341.416 75.064C341.326 75.1547 341.219 75.2267 341.096 75.28C340.974 75.3333 340.843 75.36 340.704 75.36C340.566 75.36 340.435 75.3333 340.312 75.28C340.195 75.2267 340.088 75.1547 339.992 75.064C339.902 74.968 339.83 74.8613 339.776 74.744C339.723 74.6213 339.696 74.4907 339.696 74.352C339.696 74.2133 339.723 74.0827 339.776 73.96C339.83 73.832 339.902 73.7227 339.992 73.632C340.088 73.536 340.195 73.4613 340.312 73.408C340.435 73.3547 340.566 73.328 340.704 73.328C340.843 73.328 340.974 73.3547 341.096 73.408C341.219 73.4613 341.326 73.536 341.416 73.632C341.512 73.7227 341.587 73.832 341.64 73.96C341.699 74.0827 341.728 74.2133 341.728 74.352ZM343.918 85V76.896H344.766C344.969 76.896 345.097 76.9947 345.15 77.192L345.262 78.072C345.614 77.6827 346.006 77.368 346.438 77.128C346.875 76.888 347.379 76.768 347.95 76.768C348.393 76.768 348.782 76.8427 349.118 76.992C349.459 77.136 349.742 77.344 349.966 77.616C350.195 77.8827 350.369 78.2053 350.486 78.584C350.603 78.9627 350.662 79.3813 350.662 79.84V85H349.238V79.84C349.238 79.2267 349.097 78.752 348.814 78.416C348.537 78.0747 348.11 77.904 347.534 77.904C347.113 77.904 346.718 78.0053 346.35 78.208C345.987 78.4107 345.651 78.6853 345.342 79.032V85H343.918ZM356.017 76.768C356.502 76.768 356.95 76.8507 357.361 77.016C357.771 77.176 358.126 77.4107 358.425 77.72C358.723 78.024 358.955 78.4027 359.121 78.856C359.291 79.304 359.377 79.816 359.377 80.392C359.377 80.616 359.353 80.7653 359.305 80.84C359.257 80.9147 359.166 80.952 359.033 80.952H353.641C353.651 81.464 353.721 81.9093 353.849 82.288C353.977 82.6667 354.153 82.984 354.377 83.24C354.601 83.4907 354.867 83.68 355.177 83.808C355.486 83.9307 355.833 83.992 356.217 83.992C356.574 83.992 356.881 83.952 357.137 83.872C357.398 83.7867 357.622 83.696 357.809 83.6C357.995 83.504 358.15 83.416 358.273 83.336C358.401 83.2507 358.51 83.208 358.601 83.208C358.718 83.208 358.809 83.2533 358.873 83.344L359.273 83.864C359.097 84.0773 358.886 84.264 358.641 84.424C358.395 84.5787 358.131 84.7067 357.849 84.808C357.571 84.9093 357.283 84.984 356.985 85.032C356.686 85.0853 356.39 85.112 356.097 85.112C355.537 85.112 355.019 85.0187 354.545 84.832C354.075 84.64 353.667 84.3627 353.321 84C352.979 83.632 352.713 83.1787 352.521 82.64C352.329 82.1013 352.233 81.4827 352.233 80.784C352.233 80.2187 352.318 79.6907 352.489 79.2C352.665 78.7093 352.915 78.2853 353.241 77.928C353.566 77.5653 353.963 77.2827 354.433 77.08C354.902 76.872 355.43 76.768 356.017 76.768ZM356.049 77.816C355.361 77.816 354.819 78.016 354.425 78.416C354.03 78.8107 353.785 79.36 353.689 80.064H358.097C358.097 79.7333 358.051 79.432 357.961 79.16C357.87 78.8827 357.737 78.6453 357.561 78.448C357.385 78.2453 357.169 78.0907 356.913 77.984C356.662 77.872 356.374 77.816 356.049 77.816ZM365.877 73.216V85H364.453V73.216H365.877ZM371.595 76.768C372.08 76.768 372.528 76.8507 372.939 77.016C373.349 77.176 373.704 77.4107 374.003 77.72C374.301 78.024 374.533 78.4027 374.699 78.856C374.869 79.304 374.955 79.816 374.955 80.392C374.955 80.616 374.931 80.7653 374.883 80.84C374.835 80.9147 374.744 80.952 374.611 80.952H369.219C369.229 81.464 369.299 81.9093 369.427 82.288C369.555 82.6667 369.731 82.984 369.955 83.24C370.179 83.4907 370.445 83.68 370.755 83.808C371.064 83.9307 371.411 83.992 371.795 83.992C372.152 83.992 372.459 83.952 372.715 83.872C372.976 83.7867 373.2 83.696 373.387 83.6C373.573 83.504 373.728 83.416 373.851 83.336C373.979 83.2507 374.088 83.208 374.179 83.208C374.296 83.208 374.387 83.2533 374.451 83.344L374.851 83.864C374.675 84.0773 374.464 84.264 374.219 84.424C373.973 84.5787 373.709 84.7067 373.427 84.808C373.149 84.9093 372.861 84.984 372.563 85.032C372.264 85.0853 371.968 85.112 371.675 85.112C371.115 85.112 370.597 85.0187 370.123 84.832C369.653 84.64 369.245 84.3627 368.899 84C368.557 83.632 368.291 83.1787 368.099 82.64C367.907 82.1013 367.811 81.4827 367.811 80.784C367.811 80.2187 367.896 79.6907 368.067 79.2C368.243 78.7093 368.493 78.2853 368.819 77.928C369.144 77.5653 369.541 77.2827 370.011 77.08C370.48 76.872 371.008 76.768 371.595 76.768ZM371.627 77.816C370.939 77.816 370.397 78.016 370.003 78.416C369.608 78.8107 369.363 79.36 369.267 80.064H373.675C373.675 79.7333 373.629 79.432 373.539 79.16C373.448 78.8827 373.315 78.6453 373.139 78.448C372.963 78.2453 372.747 78.0907 372.491 77.984C372.24 77.872 371.952 77.816 371.627 77.816ZM382.305 78.336C382.263 78.3947 382.22 78.44 382.177 78.472C382.135 78.504 382.073 78.52 381.993 78.52C381.913 78.52 381.825 78.488 381.729 78.424C381.639 78.3547 381.521 78.28 381.377 78.2C381.233 78.12 381.057 78.048 380.849 77.984C380.647 77.9147 380.396 77.88 380.097 77.88C379.703 77.88 379.353 77.952 379.049 78.096C378.745 78.2347 378.489 78.4373 378.281 78.704C378.079 78.9707 377.924 79.2933 377.817 79.672C377.716 80.0507 377.665 80.4747 377.665 80.944C377.665 81.4347 377.721 81.872 377.833 82.256C377.945 82.6347 378.103 82.9547 378.305 83.216C378.508 83.472 378.753 83.6693 379.041 83.808C379.335 83.9413 379.663 84.008 380.025 84.008C380.372 84.008 380.657 83.968 380.881 83.888C381.105 83.8027 381.292 83.7093 381.441 83.608C381.591 83.5067 381.713 83.416 381.809 83.336C381.905 83.2507 382.001 83.208 382.097 83.208C382.22 83.208 382.311 83.2533 382.369 83.344L382.769 83.864C382.417 84.296 381.977 84.6133 381.449 84.816C380.921 85.0133 380.364 85.112 379.777 85.112C379.271 85.112 378.799 85.0187 378.361 84.832C377.929 84.6453 377.553 84.376 377.233 84.024C376.913 83.6667 376.66 83.2293 376.473 82.712C376.292 82.1947 376.201 81.6053 376.201 80.944C376.201 80.3413 376.284 79.784 376.449 79.272C376.62 78.76 376.865 78.32 377.185 77.952C377.511 77.5787 377.911 77.288 378.385 77.08C378.86 76.872 379.404 76.768 380.017 76.768C380.583 76.768 381.084 76.8613 381.521 77.048C381.959 77.2293 382.345 77.488 382.681 77.824L382.305 78.336ZM386.702 85.128C386.062 85.128 385.569 84.9493 385.222 84.592C384.881 84.2347 384.71 83.72 384.71 83.048V78.088H383.734C383.649 78.088 383.577 78.064 383.518 78.016C383.459 77.9627 383.43 77.8827 383.43 77.776V77.208L384.758 77.04L385.086 74.536C385.097 74.456 385.131 74.392 385.19 74.344C385.249 74.2907 385.323 74.264 385.414 74.264H386.134V77.056H388.454V78.088H386.134V82.952C386.134 83.2933 386.217 83.5467 386.382 83.712C386.547 83.8773 386.761 83.96 387.022 83.96C387.171 83.96 387.299 83.9413 387.406 83.904C387.518 83.8613 387.614 83.816 387.694 83.768C387.774 83.72 387.841 83.6773 387.894 83.64C387.953 83.5973 388.003 83.576 388.046 83.576C388.121 83.576 388.187 83.6213 388.246 83.712L388.662 84.392C388.417 84.6213 388.121 84.8027 387.774 84.936C387.427 85.064 387.07 85.128 386.702 85.128ZM391.447 76.896V82.064C391.447 82.6773 391.588 83.152 391.871 83.488C392.154 83.824 392.58 83.992 393.151 83.992C393.567 83.992 393.959 83.8933 394.327 83.696C394.695 83.4987 395.034 83.224 395.343 82.872V76.896H396.767V85H395.919C395.716 85 395.588 84.9013 395.535 84.704L395.423 83.832C395.071 84.2213 394.676 84.536 394.239 84.776C393.802 85.0107 393.3 85.128 392.735 85.128C392.292 85.128 391.9 85.056 391.559 84.912C391.223 84.7627 390.94 84.5547 390.711 84.288C390.482 84.0213 390.308 83.6987 390.191 83.32C390.079 82.9413 390.023 82.5227 390.023 82.064V76.896H391.447ZM399.106 85V76.896H399.922C400.076 76.896 400.183 76.9253 400.242 76.984C400.3 77.0427 400.34 77.144 400.362 77.288L400.458 78.552C400.735 77.9867 401.076 77.5467 401.482 77.232C401.892 76.912 402.372 76.752 402.922 76.752C403.146 76.752 403.348 76.7787 403.53 76.832C403.711 76.88 403.879 76.9493 404.034 77.04L403.85 78.104C403.812 78.2373 403.73 78.304 403.602 78.304C403.527 78.304 403.412 78.28 403.258 78.232C403.103 78.1787 402.887 78.152 402.61 78.152C402.114 78.152 401.698 78.296 401.362 78.584C401.031 78.872 400.754 79.2907 400.53 79.84V85H399.106ZM408.767 76.768C409.252 76.768 409.7 76.8507 410.111 77.016C410.521 77.176 410.876 77.4107 411.175 77.72C411.473 78.024 411.705 78.4027 411.871 78.856C412.041 79.304 412.127 79.816 412.127 80.392C412.127 80.616 412.103 80.7653 412.055 80.84C412.007 80.9147 411.916 80.952 411.783 80.952H406.391C406.401 81.464 406.471 81.9093 406.599 82.288C406.727 82.6667 406.903 82.984 407.127 83.24C407.351 83.4907 407.617 83.68 407.927 83.808C408.236 83.9307 408.583 83.992 408.967 83.992C409.324 83.992 409.631 83.952 409.887 83.872C410.148 83.7867 410.372 83.696 410.559 83.6C410.745 83.504 410.9 83.416 411.023 83.336C411.151 83.2507 411.26 83.208 411.351 83.208C411.468 83.208 411.559 83.2533 411.623 83.344L412.023 83.864C411.847 84.0773 411.636 84.264 411.391 84.424C411.145 84.5787 410.881 84.7067 410.599 84.808C410.321 84.9093 410.033 84.984 409.735 85.032C409.436 85.0853 409.14 85.112 408.847 85.112C408.287 85.112 407.769 85.0187 407.295 84.832C406.825 84.64 406.417 84.3627 406.071 84C405.729 83.632 405.463 83.1787 405.271 82.64C405.079 82.1013 404.983 81.4827 404.983 80.784C404.983 80.2187 405.068 79.6907 405.239 79.2C405.415 78.7093 405.665 78.2853 405.991 77.928C406.316 77.5653 406.713 77.2827 407.183 77.08C407.652 76.872 408.18 76.768 408.767 76.768ZM408.799 77.816C408.111 77.816 407.569 78.016 407.175 78.416C406.78 78.8107 406.535 79.36 406.439 80.064H410.847C410.847 79.7333 410.801 79.432 410.711 79.16C410.62 78.8827 410.487 78.6453 410.311 78.448C410.135 78.2453 409.919 78.0907 409.663 77.984C409.412 77.872 409.124 77.816 408.799 77.816Z" fill="#787A80"/>
</g>
<g clip-path="url(#clip1_2234_10602)">
<path d="M114.448 46.648C116.176 46.648 117.728 46.904 119.104 47.416C120.496 47.912 121.68 48.608 122.656 49.504C123.632 50.4 124.376 51.472 124.888 52.72C125.416 53.952 125.68 55.312 125.68 56.8C125.68 58.08 125.496 59.264 125.128 60.352C124.776 61.44 124.288 62.48 123.664 63.472C123.04 64.448 122.312 65.4 121.48 66.328C120.664 67.24 119.792 68.168 118.864 69.112L112.024 76.12C112.904 75.864 113.768 75.664 114.616 75.52C115.48 75.36 116.288 75.28 117.04 75.28H123.568C124.368 75.28 125 75.504 125.464 75.952C125.928 76.384 126.16 76.96 126.16 77.68V82H101.584V79.6C101.584 79.136 101.68 78.64 101.872 78.112C102.064 77.584 102.4 77.104 102.88 76.672L112.96 66.52C113.824 65.656 114.576 64.832 115.216 64.048C115.856 63.264 116.384 62.496 116.8 61.744C117.216 60.976 117.528 60.216 117.736 59.464C117.944 58.696 118.048 57.888 118.048 57.04C118.048 55.648 117.712 54.584 117.04 53.848C116.384 53.096 115.376 52.72 114.016 52.72C113.456 52.72 112.944 52.8 112.48 52.96C112.016 53.12 111.6 53.336 111.232 53.608C110.864 53.88 110.544 54.2 110.272 54.568C110.016 54.936 109.808 55.336 109.648 55.768C109.392 56.488 109.064 57.008 108.664 57.328C108.28 57.648 107.752 57.808 107.08 57.808C106.92 57.808 106.744 57.8 106.552 57.784C106.376 57.768 106.192 57.744 106 57.712L102.064 57.016C102.32 55.272 102.808 53.752 103.528 52.456C104.264 51.16 105.168 50.08 106.24 49.216C107.328 48.352 108.568 47.712 109.96 47.296C111.352 46.864 112.848 46.648 114.448 46.648ZM152.268 68.416H155.868V72.592C155.868 72.96 155.74 73.28 155.484 73.552C155.244 73.824 154.892 73.96 154.428 73.96H152.268V82H145.788V73.96H131.724C131.26 73.96 130.836 73.816 130.452 73.528C130.084 73.24 129.852 72.88 129.756 72.448L128.988 68.776L145.164 47.032H152.268V68.416ZM145.788 59.296C145.788 58.736 145.804 58.136 145.836 57.496C145.884 56.84 145.948 56.168 146.028 55.48L136.788 68.416H145.788V59.296Z" fill="#FF3F3A"/>
<path d="M184.28 49.86C184.28 50.6733 184.18 51.4067 183.98 52.06C183.78 52.7133 183.48 53.27 183.08 53.73C182.687 54.19 182.193 54.5433 181.6 54.79C181.007 55.0367 180.317 55.16 179.53 55.16C179.17 55.16 178.817 55.1367 178.47 55.09C178.123 55.05 177.76 54.9833 177.38 54.89L177.52 53.29C177.533 53.1433 177.587 53.0267 177.68 52.94C177.78 52.8467 177.923 52.8 178.11 52.8C178.223 52.8 178.37 52.8233 178.55 52.87C178.737 52.9167 178.97 52.94 179.25 52.94C179.63 52.94 179.967 52.8867 180.26 52.78C180.553 52.6667 180.797 52.49 180.99 52.25C181.19 52.01 181.34 51.7 181.44 51.32C181.54 50.9333 181.59 50.4667 181.59 49.92V40.54H184.28V49.86ZM189.31 44.74V51.26C189.31 51.8867 189.454 52.3733 189.74 52.72C190.034 53.06 190.47 53.23 191.05 53.23C191.477 53.23 191.877 53.1367 192.25 52.95C192.624 52.7567 192.977 52.4933 193.31 52.16V44.74H195.78V55H194.27C193.95 55 193.74 54.85 193.64 54.55L193.47 53.73C193.257 53.9433 193.037 54.14 192.81 54.32C192.584 54.4933 192.34 54.6433 192.08 54.77C191.827 54.89 191.55 54.9833 191.25 55.05C190.957 55.1233 190.64 55.16 190.3 55.16C189.74 55.16 189.244 55.0667 188.81 54.88C188.384 54.6867 188.024 54.4167 187.73 54.07C187.437 53.7233 187.214 53.3133 187.06 52.84C186.914 52.36 186.84 51.8333 186.84 51.26V44.74H189.31ZM201.048 40.14V55H198.578V40.14H201.048ZM207.487 57.82C207.414 57.9933 207.317 58.1233 207.197 58.21C207.084 58.3033 206.907 58.35 206.667 58.35H204.827L206.747 54.24L202.597 44.74H204.757C204.957 44.74 205.111 44.7867 205.217 44.88C205.324 44.9733 205.404 45.08 205.457 45.2L207.647 50.52C207.721 50.6933 207.784 50.8733 207.837 51.06C207.891 51.2467 207.937 51.4333 207.977 51.62C208.031 51.4267 208.087 51.24 208.147 51.06C208.214 50.88 208.284 50.6967 208.357 50.51L210.417 45.2C210.471 45.0667 210.557 44.9567 210.677 44.87C210.804 44.7833 210.944 44.74 211.097 44.74H213.077L207.487 57.82Z" fill="#1E212C"/>
<path d="M179.296 83.912H181.76V76.096C181.76 75.8613 181.768 75.624 181.784 75.384L179.736 77.136C179.683 77.1787 179.629 77.2107 179.576 77.232C179.523 77.248 179.472 77.256 179.424 77.256C179.344 77.256 179.272 77.24 179.208 77.208C179.144 77.1707 179.096 77.128 179.064 77.08L178.616 76.464L182.024 73.512H183.184V83.912H185.44V85H179.296V83.912ZM188.577 83.912H191.041V76.096C191.041 75.8613 191.049 75.624 191.065 75.384L189.017 77.136C188.964 77.1787 188.911 77.2107 188.857 77.232C188.804 77.248 188.753 77.256 188.705 77.256C188.625 77.256 188.553 77.24 188.489 77.208C188.425 77.1707 188.377 77.128 188.345 77.08L187.897 76.464L191.305 73.512H192.465V83.912H194.721V85H188.577V83.912ZM196.587 84.12C196.587 83.9813 196.611 83.8507 196.659 83.728C196.712 83.6053 196.781 83.4987 196.867 83.408C196.957 83.3173 197.064 83.2453 197.187 83.192C197.309 83.1387 197.44 83.112 197.579 83.112C197.717 83.112 197.848 83.1387 197.971 83.192C198.093 83.2453 198.2 83.3173 198.291 83.408C198.381 83.4987 198.451 83.6053 198.499 83.728C198.552 83.8507 198.579 83.9813 198.579 84.12C198.579 84.264 198.552 84.3973 198.499 84.52C198.451 84.6373 198.381 84.7413 198.291 84.832C198.2 84.9227 198.093 84.992 197.971 85.04C197.848 85.0933 197.717 85.12 197.579 85.12C197.44 85.12 197.309 85.0933 197.187 85.04C197.064 84.992 196.957 84.9227 196.867 84.832C196.781 84.7413 196.712 84.6373 196.659 84.52C196.611 84.3973 196.587 84.264 196.587 84.12ZM196.587 78.12C196.587 77.9813 196.611 77.8507 196.659 77.728C196.712 77.6053 196.781 77.4987 196.867 77.408C196.957 77.3173 197.064 77.2453 197.187 77.192C197.309 77.1387 197.44 77.112 197.579 77.112C197.717 77.112 197.848 77.1387 197.971 77.192C198.093 77.2453 198.2 77.3173 198.291 77.408C198.381 77.4987 198.451 77.6053 198.499 77.728C198.552 77.8507 198.579 77.9813 198.579 78.12C198.579 78.264 198.552 78.3973 198.499 78.52C198.451 78.6373 198.381 78.7413 198.291 78.832C198.2 78.9227 198.093 78.9947 197.971 79.048C197.848 79.096 197.717 79.12 197.579 79.12C197.44 79.12 197.309 79.096 197.187 79.048C197.064 78.9947 196.957 78.9227 196.867 78.832C196.781 78.7413 196.712 78.6373 196.659 78.52C196.611 78.3973 196.587 78.264 196.587 78.12ZM208.394 79.272C208.394 80.2747 208.284 81.144 208.066 81.88C207.852 82.6107 207.559 83.216 207.186 83.696C206.812 84.176 206.37 84.5333 205.858 84.768C205.351 85.0027 204.807 85.12 204.226 85.12C203.639 85.12 203.092 85.0027 202.586 84.768C202.084 84.5333 201.647 84.176 201.274 83.696C200.9 83.216 200.607 82.6107 200.394 81.88C200.18 81.144 200.074 80.2747 200.074 79.272C200.074 78.2693 200.18 77.4 200.394 76.664C200.607 75.928 200.9 75.32 201.274 74.84C201.647 74.3547 202.084 73.9947 202.586 73.76C203.092 73.5253 203.639 73.408 204.226 73.408C204.807 73.408 205.351 73.5253 205.858 73.76C206.37 73.9947 206.812 74.3547 207.186 74.84C207.559 75.32 207.852 75.928 208.066 76.664C208.284 77.4 208.394 78.2693 208.394 79.272ZM206.914 79.272C206.914 78.3973 206.839 77.664 206.69 77.072C206.546 76.4747 206.348 75.9947 206.098 75.632C205.852 75.2693 205.567 75.0107 205.242 74.856C204.916 74.696 204.578 74.616 204.226 74.616C203.874 74.616 203.535 74.696 203.21 74.856C202.884 75.0107 202.599 75.2693 202.354 75.632C202.108 75.9947 201.911 76.4747 201.762 77.072C201.618 77.664 201.546 78.3973 201.546 79.272C201.546 80.1467 201.618 80.88 201.762 81.472C201.911 82.064 202.108 82.5413 202.354 82.904C202.599 83.2667 202.884 83.528 203.21 83.688C203.535 83.8427 203.874 83.92 204.226 83.92C204.578 83.92 204.916 83.8427 205.242 83.688C205.567 83.528 205.852 83.2667 206.098 82.904C206.348 82.5413 206.546 82.064 206.69 81.472C206.839 80.88 206.914 80.1467 206.914 79.272ZM217.675 79.272C217.675 80.2747 217.566 81.144 217.347 81.88C217.134 82.6107 216.84 83.216 216.467 83.696C216.094 84.176 215.651 84.5333 215.139 84.768C214.632 85.0027 214.088 85.12 213.507 85.12C212.92 85.12 212.374 85.0027 211.867 84.768C211.366 84.5333 210.928 84.176 210.555 83.696C210.182 83.216 209.888 82.6107 209.675 81.88C209.462 81.144 209.355 80.2747 209.355 79.272C209.355 78.2693 209.462 77.4 209.675 76.664C209.888 75.928 210.182 75.32 210.555 74.84C210.928 74.3547 211.366 73.9947 211.867 73.76C212.374 73.5253 212.92 73.408 213.507 73.408C214.088 73.408 214.632 73.5253 215.139 73.76C215.651 73.9947 216.094 74.3547 216.467 74.84C216.84 75.32 217.134 75.928 217.347 76.664C217.566 77.4 217.675 78.2693 217.675 79.272ZM216.195 79.272C216.195 78.3973 216.12 77.664 215.971 77.072C215.827 76.4747 215.63 75.9947 215.379 75.632C215.134 75.2693 214.848 75.0107 214.523 74.856C214.198 74.696 213.859 74.616 213.507 74.616C213.155 74.616 212.816 74.696 212.491 74.856C212.166 75.0107 211.88 75.2693 211.635 75.632C211.39 75.9947 211.192 76.4747 211.043 77.072C210.899 77.664 210.827 78.3973 210.827 79.272C210.827 80.1467 210.899 80.88 211.043 81.472C211.192 82.064 211.39 82.5413 211.635 82.904C211.88 83.2667 212.166 83.528 212.491 83.688C212.816 83.8427 213.155 83.92 213.507 83.92C213.859 83.92 214.198 83.8427 214.523 83.688C214.848 83.528 215.134 83.2667 215.379 82.904C215.63 82.5413 215.827 82.064 215.971 81.472C216.12 80.88 216.195 80.1467 216.195 79.272ZM222.498 79.76H228.898V80.8H222.498V79.76ZM235.53 83.912H237.994V76.096C237.994 75.8613 238.002 75.624 238.018 75.384L235.97 77.136C235.917 77.1787 235.864 77.2107 235.81 77.232C235.757 77.248 235.706 77.256 235.658 77.256C235.578 77.256 235.506 77.24 235.442 77.208C235.378 77.1707 235.33 77.128 235.298 77.08L234.85 76.464L238.258 73.512H239.418V83.912H241.674V85H235.53V83.912ZM247.324 73.408C247.809 73.408 248.262 73.48 248.684 73.624C249.105 73.768 249.468 73.9787 249.772 74.256C250.081 74.528 250.324 74.8613 250.5 75.256C250.676 75.6507 250.764 76.0987 250.764 76.6C250.764 77.0267 250.7 77.4213 250.572 77.784C250.444 78.1467 250.27 78.496 250.052 78.832C249.833 79.1627 249.58 79.4853 249.292 79.8C249.009 80.1093 248.708 80.4267 248.388 80.752L245.372 83.84C245.585 83.7813 245.801 83.736 246.02 83.704C246.238 83.6667 246.449 83.648 246.652 83.648H250.492C250.646 83.648 250.769 83.6933 250.86 83.784C250.95 83.8747 250.996 83.992 250.996 84.136V85H243.348V84.512C243.348 84.4107 243.366 84.3067 243.404 84.2C243.446 84.0933 243.513 83.9947 243.604 83.904L247.276 80.216C247.58 79.9067 247.857 79.6107 248.108 79.328C248.358 79.04 248.572 78.752 248.748 78.464C248.929 78.176 249.068 77.8853 249.164 77.592C249.26 77.2933 249.308 76.976 249.308 76.64C249.308 76.304 249.254 76.0107 249.148 75.76C249.041 75.504 248.894 75.2933 248.708 75.128C248.521 74.9627 248.302 74.84 248.052 74.76C247.801 74.6747 247.532 74.632 247.244 74.632C246.956 74.632 246.689 74.6747 246.444 74.76C246.198 74.8453 245.98 74.9653 245.788 75.12C245.601 75.2693 245.441 75.448 245.308 75.656C245.18 75.864 245.089 76.0933 245.036 76.344C244.993 76.4987 244.929 76.6107 244.844 76.68C244.758 76.7493 244.646 76.784 244.508 76.784C244.481 76.784 244.452 76.784 244.42 76.784C244.393 76.7787 244.361 76.7733 244.324 76.768L243.58 76.64C243.654 76.1173 243.798 75.656 244.012 75.256C244.225 74.8507 244.494 74.512 244.82 74.24C245.15 73.968 245.526 73.7627 245.948 73.624C246.374 73.48 246.833 73.408 247.324 73.408ZM252.821 84.12C252.821 83.9813 252.845 83.8507 252.893 83.728C252.946 83.6053 253.016 83.4987 253.101 83.408C253.192 83.3173 253.298 83.2453 253.421 83.192C253.544 83.1387 253.674 83.112 253.813 83.112C253.952 83.112 254.082 83.1387 254.205 83.192C254.328 83.2453 254.434 83.3173 254.525 83.408C254.616 83.4987 254.685 83.6053 254.733 83.728C254.786 83.8507 254.813 83.9813 254.813 84.12C254.813 84.264 254.786 84.3973 254.733 84.52C254.685 84.6373 254.616 84.7413 254.525 84.832C254.434 84.9227 254.328 84.992 254.205 85.04C254.082 85.0933 253.952 85.12 253.813 85.12C253.674 85.12 253.544 85.0933 253.421 85.04C253.298 84.992 253.192 84.9227 253.101 84.832C253.016 84.7413 252.946 84.6373 252.893 84.52C252.845 84.3973 252.821 84.264 252.821 84.12ZM252.821 78.12C252.821 77.9813 252.845 77.8507 252.893 77.728C252.946 77.6053 253.016 77.4987 253.101 77.408C253.192 77.3173 253.298 77.2453 253.421 77.192C253.544 77.1387 253.674 77.112 253.813 77.112C253.952 77.112 254.082 77.1387 254.205 77.192C254.328 77.2453 254.434 77.3173 254.525 77.408C254.616 77.4987 254.685 77.6053 254.733 77.728C254.786 77.8507 254.813 77.9813 254.813 78.12C254.813 78.264 254.786 78.3973 254.733 78.52C254.685 78.6373 254.616 78.7413 254.525 78.832C254.434 78.9227 254.328 78.9947 254.205 79.048C254.082 79.096 253.952 79.12 253.813 79.12C253.674 79.12 253.544 79.096 253.421 79.048C253.298 78.9947 253.192 78.9227 253.101 78.832C253.016 78.7413 252.946 78.6373 252.893 78.52C252.845 78.3973 252.821 78.264 252.821 78.12ZM260.788 73.408C261.273 73.408 261.721 73.4773 262.132 73.616C262.543 73.7547 262.895 73.952 263.188 74.208C263.487 74.464 263.719 74.7733 263.884 75.136C264.049 75.4987 264.132 75.9013 264.132 76.344C264.132 76.7067 264.084 77.032 263.988 77.32C263.897 77.6027 263.764 77.8533 263.588 78.072C263.417 78.2853 263.209 78.4667 262.964 78.616C262.719 78.7653 262.444 78.8853 262.14 78.976C262.887 79.1733 263.447 79.504 263.82 79.968C264.199 80.432 264.388 81.0133 264.388 81.712C264.388 82.24 264.287 82.7147 264.084 83.136C263.887 83.5573 263.615 83.9173 263.268 84.216C262.921 84.5093 262.516 84.736 262.052 84.896C261.593 85.0507 261.1 85.128 260.572 85.128C259.964 85.128 259.444 85.0533 259.012 84.904C258.58 84.7493 258.215 84.5387 257.916 84.272C257.617 84.0053 257.372 83.6907 257.18 83.328C256.988 82.96 256.825 82.5627 256.692 82.136L257.3 81.88C257.412 81.832 257.524 81.808 257.636 81.808C257.743 81.808 257.836 81.832 257.916 81.88C258.001 81.9227 258.065 81.992 258.108 82.088C258.119 82.1093 258.129 82.1333 258.14 82.16C258.151 82.1813 258.161 82.2053 258.172 82.232C258.247 82.3867 258.337 82.5627 258.444 82.76C258.551 82.952 258.695 83.1333 258.876 83.304C259.057 83.4747 259.281 83.6187 259.548 83.736C259.82 83.8533 260.156 83.912 260.556 83.912C260.956 83.912 261.305 83.848 261.604 83.72C261.908 83.5867 262.159 83.416 262.356 83.208C262.559 83 262.711 82.768 262.812 82.512C262.913 82.256 262.964 82.0027 262.964 81.752C262.964 81.4427 262.921 81.16 262.836 80.904C262.756 80.648 262.607 80.4267 262.388 80.24C262.175 80.0533 261.876 79.9067 261.492 79.8C261.113 79.6933 260.625 79.64 260.028 79.64V78.608C260.513 78.6027 260.927 78.5493 261.268 78.448C261.615 78.3467 261.897 78.208 262.116 78.032C262.335 77.856 262.492 77.6453 262.588 77.4C262.689 77.1547 262.74 76.8827 262.74 76.584C262.74 76.2533 262.687 75.9653 262.58 75.72C262.479 75.4747 262.337 75.272 262.156 75.112C261.975 74.952 261.759 74.832 261.508 74.752C261.263 74.672 260.996 74.632 260.708 74.632C260.42 74.632 260.153 74.6747 259.908 74.76C259.663 74.8453 259.444 74.9653 259.252 75.12C259.065 75.2693 258.908 75.4507 258.78 75.664C258.652 75.872 258.556 76.0987 258.492 76.344C258.449 76.4987 258.385 76.6107 258.3 76.68C258.215 76.7493 258.105 76.784 257.972 76.784C257.945 76.784 257.916 76.784 257.884 76.784C257.857 76.7787 257.825 76.7733 257.788 76.768L257.044 76.64C257.119 76.1173 257.263 75.656 257.476 75.256C257.689 74.8507 257.959 74.512 258.284 74.24C258.615 73.968 258.991 73.7627 259.412 73.624C259.839 73.48 260.297 73.408 260.788 73.408ZM273.909 79.272C273.909 80.2747 273.8 81.144 273.581 81.88C273.368 82.6107 273.075 83.216 272.701 83.696C272.328 84.176 271.885 84.5333 271.373 84.768C270.867 85.0027 270.323 85.12 269.741 85.12C269.155 85.12 268.608 85.0027 268.101 84.768C267.6 84.5333 267.163 84.176 266.789 83.696C266.416 83.216 266.123 82.6107 265.909 81.88C265.696 81.144 265.589 80.2747 265.589 79.272C265.589 78.2693 265.696 77.4 265.909 76.664C266.123 75.928 266.416 75.32 266.789 74.84C267.163 74.3547 267.6 73.9947 268.101 73.76C268.608 73.5253 269.155 73.408 269.741 73.408C270.323 73.408 270.867 73.5253 271.373 73.76C271.885 73.9947 272.328 74.3547 272.701 74.84C273.075 75.32 273.368 75.928 273.581 76.664C273.8 77.4 273.909 78.2693 273.909 79.272ZM272.429 79.272C272.429 78.3973 272.355 77.664 272.205 77.072C272.061 76.4747 271.864 75.9947 271.613 75.632C271.368 75.2693 271.083 75.0107 270.757 74.856C270.432 74.696 270.093 74.616 269.741 74.616C269.389 74.616 269.051 74.696 268.725 74.856C268.4 75.0107 268.115 75.2693 267.869 75.632C267.624 75.9947 267.427 76.4747 267.277 77.072C267.133 77.664 267.061 78.3973 267.061 79.272C267.061 80.1467 267.133 80.88 267.277 81.472C267.427 82.064 267.624 82.5413 267.869 82.904C268.115 83.2667 268.4 83.528 268.725 83.688C269.051 83.8427 269.389 83.92 269.741 83.92C270.093 83.92 270.432 83.8427 270.757 83.688C271.083 83.528 271.368 83.2667 271.613 82.904C271.864 82.5413 272.061 82.064 272.205 81.472C272.355 80.88 272.429 80.1467 272.429 79.272Z" fill="#787A80"/>
</g>
</g>
<defs>
<filter id="filter0_dddd_2234_10602" x="0" y="0" width="1350" height="266" filterUnits="userSpaceOnUse" color-interpolation-filters="sRGB">
<feFlood flood-opacity="0" result="BackgroundImageFix"/>
<feColorMatrix in="SourceAlpha" type="matrix" values="0 0 0 0 0 0 0 0 0 0 0 0 0 0 0 0 0 0 127 0" result="hardAlpha"/>
<feMorphology radius="4" operator="erode" in="SourceAlpha" result="effect1_dropShadow_2234_10602"/>
<feOffset dy="4"/>
<feGaussianBlur stdDeviation="2"/>
<feColorMatrix type="matrix" values="0 0 0 0 0.117647 0 0 0 0 0.129412 0 0 0 0 0.172549 0 0 0 0.05 0"/>
<feBlend mode="normal" in2="BackgroundImageFix" result="effect1_dropShadow_2234_10602"/>
<feColorMatrix in="SourceAlpha" type="matrix" values="0 0 0 0 0 0 0 0 0 0 0 0 0 0 0 0 0 0 127 0" result="hardAlpha"/>
<feMorphology radius="6" operator="erode" in="SourceAlpha" result="effect2_dropShadow_2234_10602"/>
<feOffset dy="12"/>
<feGaussianBlur stdDeviation="5"/>
<feColorMatrix type="matrix" values="0 0 0 0 1 0 0 0 0 0.247059 0 0 0 0 0.227451 0 0 0 0.08 0"/>
<feBlend mode="normal" in2="effect1_dropShadow_2234_10602" result="effect2_dropShadow_2234_10602"/>
<feColorMatrix in="SourceAlpha" type="matrix" values="0 0 0 0 0 0 0 0 0 0 0 0 0 0 0 0 0 0 127 0" result="hardAlpha"/>
<feMorphology radius="10" operator="erode" in="SourceAlpha" result="effect3_dropShadow_2234_10602"/>
<feOffset dy="30"/>
<feGaussianBlur stdDeviation="12"/>
<feColorMatrix type="matrix" values="0 0 0 0 1 0 0 0 0 0.247059 0 0 0 0 0.227451 0 0 0 0.1 0"/>
<feBlend mode="normal" in2="effect2_dropShadow_2234_10602" result="effect3_dropShadow_2234_10602"/>
<feColorMatrix in="SourceAlpha" type="matrix" values="0 0 0 0 0 0 0 0 0 0 0 0 0 0 0 0 0 0 127 0" result="hardAlpha"/>
<feMorphology radius="20" operator="erode" in="SourceAlpha" result="effect4_dropShadow_2234_10602"/>
<feOffset dy="80"/>
<feGaussianBlur stdDeviation="40"/>
<feColorMatrix type="matrix" values="0 0 0 0 1 0 0 0 0 0.247059 0 0 0 0 0.227451 0 0 0 0.16 0"/>
<feBlend mode="normal" in2="effect3_dropShadow_2234_10602" result="effect4_dropShadow_2234_10602"/>
<feBlend mode="normal" in="SourceGraphic" in2="effect4_dropShadow_2234_10602" result="shape"/>
</filter>
<linearGradient id="paint0_linear_2234_10602" x1="1114" y1="76" x2="1156.49" y2="-12.7636" gradientUnits="userSpaceOnUse">
<stop stop-color="#FF3F3A"/>
<stop offset="1" stop-color="#F75E05"/>
</linearGradient>
<clipPath id="clip0_2234_10602">
<rect width="757" height="60" fill="white" transform="translate(317 32)"/>
</clipPath>
<clipPath id="clip1_2234_10602">
<rect width="177" height="62" fill="white" transform="translate(100 32)"/>
</clipPath>
</defs>
</svg>
