<svg width="172" height="84" viewBox="0 0 172 84" fill="none" xmlns="http://www.w3.org/2000/svg">
<circle opacity="0.12" cx="42" cy="42" r="42" fill="#FF3F3A"/>
<circle cx="42" cy="42" r="26" fill="#FF3F3A"/>
<path d="M48.5 41.134C49.1667 41.5189 49.1667 42.4811 48.5 42.866L39.5 48.0622C38.8333 48.4471 38 47.966 38 47.1962L38 36.8038C38 36.034 38.8333 35.5529 39.5 35.9378L48.5 41.134Z" fill="white"/>
<path d="M86.968 44.437V48H85.085V37.878H88.382C89.0587 37.878 89.6443 37.9573 90.139 38.116C90.6337 38.2747 91.042 38.4963 91.364 38.781C91.686 39.0657 91.924 39.4063 92.078 39.803C92.232 40.1997 92.309 40.6337 92.309 41.105C92.309 41.595 92.2273 42.0453 92.064 42.456C91.9007 42.862 91.6557 43.212 91.329 43.506C91.0023 43.8 90.594 44.0287 90.104 44.192C89.614 44.3553 89.04 44.437 88.382 44.437H86.968ZM86.968 42.967H88.382C88.7273 42.967 89.0283 42.925 89.285 42.841C89.5417 42.7523 89.754 42.6287 89.922 42.47C90.09 42.3067 90.216 42.1107 90.3 41.882C90.384 41.6487 90.426 41.3897 90.426 41.105C90.426 40.8343 90.384 40.5893 90.3 40.37C90.216 40.1507 90.09 39.964 89.922 39.81C89.754 39.656 89.5417 39.5393 89.285 39.46C89.0283 39.376 88.7273 39.334 88.382 39.334H86.968V42.967ZM95.515 37.598V48H93.786V37.598H95.515ZM103.103 48H102.326C102.162 48 102.034 47.9767 101.941 47.93C101.847 47.8787 101.777 47.7783 101.731 47.629L101.577 47.118C101.395 47.2813 101.215 47.426 101.038 47.552C100.865 47.6733 100.685 47.776 100.499 47.86C100.312 47.944 100.114 48.007 99.9038 48.049C99.6938 48.091 99.4604 48.112 99.2038 48.112C98.9004 48.112 98.6204 48.0723 98.3638 47.993C98.1071 47.909 97.8854 47.7853 97.6988 47.622C97.5168 47.4587 97.3744 47.2557 97.2718 47.013C97.1691 46.7703 97.1178 46.488 97.1178 46.166C97.1178 45.8953 97.1878 45.6293 97.3278 45.368C97.4724 45.102 97.7104 44.864 98.0418 44.654C98.3731 44.4393 98.8141 44.262 99.3648 44.122C99.9154 43.982 100.599 43.9027 101.416 43.884V43.464C101.416 42.9833 101.313 42.6287 101.108 42.4C100.907 42.1667 100.613 42.05 100.226 42.05C99.9458 42.05 99.7124 42.0827 99.5258 42.148C99.3391 42.2133 99.1758 42.288 99.0358 42.372C98.9004 42.4513 98.7744 42.5237 98.6578 42.589C98.5411 42.6543 98.4128 42.687 98.2728 42.687C98.1561 42.687 98.0558 42.6567 97.9718 42.596C97.8878 42.5353 97.8201 42.4607 97.7688 42.372L97.4538 41.819C98.2798 41.063 99.2761 40.685 100.443 40.685C100.863 40.685 101.236 40.755 101.563 40.895C101.894 41.0303 102.174 41.2217 102.403 41.469C102.631 41.7117 102.804 42.0033 102.921 42.344C103.042 42.6847 103.103 43.058 103.103 43.464V48ZM99.7428 46.922C99.9201 46.922 100.083 46.9057 100.233 46.873C100.382 46.8403 100.522 46.7913 100.653 46.726C100.788 46.6607 100.916 46.5813 101.038 46.488C101.164 46.39 101.29 46.2757 101.416 46.145V44.934C100.912 44.9573 100.489 45.0017 100.149 45.067C99.8128 45.1277 99.5421 45.207 99.3368 45.305C99.1314 45.403 98.9844 45.5173 98.8958 45.648C98.8118 45.7787 98.7698 45.921 98.7698 46.075C98.7698 46.3783 98.8584 46.5953 99.0358 46.726C99.2178 46.8567 99.4534 46.922 99.7428 46.922ZM107.105 49.974C107.053 50.0953 106.986 50.1863 106.902 50.247C106.822 50.3123 106.699 50.345 106.531 50.345H105.243L106.587 47.468L103.682 40.818H105.194C105.334 40.818 105.441 40.8507 105.516 40.916C105.59 40.9813 105.646 41.056 105.684 41.14L107.217 44.864C107.268 44.9853 107.312 45.1113 107.35 45.242C107.387 45.3727 107.42 45.5033 107.448 45.634C107.485 45.4987 107.525 45.368 107.567 45.242C107.613 45.116 107.662 44.9877 107.714 44.857L109.156 41.14C109.193 41.0467 109.254 40.9697 109.338 40.909C109.426 40.8483 109.524 40.818 109.632 40.818H111.018L107.105 49.974ZM118.992 42.218C118.945 42.2927 118.896 42.3463 118.845 42.379C118.793 42.407 118.728 42.421 118.649 42.421C118.565 42.421 118.474 42.3977 118.376 42.351C118.282 42.3043 118.173 42.253 118.047 42.197C117.921 42.1363 117.776 42.0827 117.613 42.036C117.454 41.9893 117.265 41.966 117.046 41.966C116.705 41.966 116.437 42.0383 116.241 42.183C116.045 42.3277 115.947 42.5167 115.947 42.75C115.947 42.904 115.996 43.0347 116.094 43.142C116.196 43.2447 116.329 43.3357 116.493 43.415C116.661 43.4943 116.85 43.5667 117.06 43.632C117.27 43.6927 117.484 43.7603 117.704 43.835C117.923 43.9097 118.138 43.996 118.348 44.094C118.558 44.1873 118.744 44.3087 118.908 44.458C119.076 44.6027 119.209 44.7777 119.307 44.983C119.409 45.1883 119.461 45.4357 119.461 45.725C119.461 46.0703 119.398 46.39 119.272 46.684C119.146 46.9733 118.961 47.2253 118.719 47.44C118.476 47.65 118.175 47.8157 117.816 47.937C117.461 48.0537 117.053 48.112 116.591 48.112C116.343 48.112 116.101 48.0887 115.863 48.042C115.629 48 115.403 47.9393 115.184 47.86C114.969 47.7807 114.768 47.6873 114.582 47.58C114.4 47.4727 114.239 47.356 114.099 47.23L114.498 46.572C114.549 46.4927 114.61 46.432 114.68 46.39C114.75 46.348 114.838 46.327 114.946 46.327C115.053 46.327 115.153 46.3573 115.247 46.418C115.345 46.4787 115.457 46.544 115.583 46.614C115.709 46.684 115.856 46.7493 116.024 46.81C116.196 46.8707 116.413 46.901 116.675 46.901C116.88 46.901 117.055 46.8777 117.2 46.831C117.349 46.7797 117.47 46.7143 117.564 46.635C117.662 46.5557 117.732 46.4647 117.774 46.362C117.82 46.2547 117.844 46.145 117.844 46.033C117.844 45.865 117.792 45.7273 117.69 45.62C117.592 45.5127 117.459 45.4193 117.291 45.34C117.127 45.2607 116.938 45.1907 116.724 45.13C116.514 45.0647 116.297 44.9947 116.073 44.92C115.853 44.8453 115.636 44.759 115.422 44.661C115.212 44.5583 115.023 44.43 114.855 44.276C114.691 44.122 114.558 43.933 114.456 43.709C114.358 43.485 114.309 43.2143 114.309 42.897C114.309 42.603 114.367 42.323 114.484 42.057C114.6 41.791 114.771 41.56 114.995 41.364C115.223 41.1633 115.506 41.0047 115.842 40.888C116.182 40.7667 116.574 40.706 117.018 40.706C117.512 40.706 117.963 40.7877 118.369 40.951C118.775 41.1143 119.113 41.329 119.384 41.595L118.992 42.218ZM120.84 48V37.598H122.569V41.595C122.849 41.329 123.157 41.1143 123.493 40.951C123.829 40.7877 124.223 40.706 124.676 40.706C125.068 40.706 125.416 40.7737 125.719 40.909C126.022 41.0397 126.274 41.2263 126.475 41.469C126.68 41.707 126.834 41.994 126.937 42.33C127.044 42.6613 127.098 43.0277 127.098 43.429V48H125.369V43.429C125.369 42.9903 125.266 42.652 125.061 42.414C124.86 42.1713 124.557 42.05 124.151 42.05C123.852 42.05 123.572 42.1177 123.311 42.253C123.05 42.3883 122.802 42.5727 122.569 42.806V48H120.84ZM131.863 40.706C132.4 40.706 132.885 40.7923 133.319 40.965C133.758 41.1377 134.131 41.3827 134.439 41.7C134.747 42.0173 134.985 42.4047 135.153 42.862C135.321 43.3193 135.405 43.8303 135.405 44.395C135.405 44.9643 135.321 45.4777 135.153 45.935C134.985 46.3923 134.747 46.782 134.439 47.104C134.131 47.426 133.758 47.6733 133.319 47.846C132.885 48.0187 132.4 48.105 131.863 48.105C131.326 48.105 130.839 48.0187 130.4 47.846C129.961 47.6733 129.586 47.426 129.273 47.104C128.965 46.782 128.725 46.3923 128.552 45.935C128.384 45.4777 128.3 44.9643 128.3 44.395C128.3 43.8303 128.384 43.3193 128.552 42.862C128.725 42.4047 128.965 42.0173 129.273 41.7C129.586 41.3827 129.961 41.1377 130.4 40.965C130.839 40.7923 131.326 40.706 131.863 40.706ZM131.863 46.775C132.46 46.775 132.901 46.5743 133.186 46.173C133.475 45.7717 133.62 45.1837 133.62 44.409C133.62 43.6343 133.475 43.044 133.186 42.638C132.901 42.232 132.46 42.029 131.863 42.029C131.256 42.029 130.808 42.2343 130.519 42.645C130.23 43.051 130.085 43.639 130.085 44.409C130.085 45.179 130.23 45.767 130.519 46.173C130.808 46.5743 131.256 46.775 131.863 46.775ZM135.879 40.818H137.251C137.382 40.818 137.491 40.8483 137.58 40.909C137.669 40.9697 137.725 41.0467 137.748 41.14L138.777 44.976C138.833 45.186 138.877 45.3913 138.91 45.592C138.947 45.7927 138.982 45.9933 139.015 46.194C139.066 45.9933 139.12 45.7927 139.176 45.592C139.237 45.3913 139.3 45.186 139.365 44.976L140.555 41.126C140.583 41.0327 140.639 40.9557 140.723 40.895C140.807 40.8343 140.905 40.804 141.017 40.804H141.78C141.906 40.804 142.011 40.8343 142.095 40.895C142.179 40.9557 142.235 41.0327 142.263 41.126L143.439 45.046C143.5 45.2467 143.553 45.4427 143.6 45.634C143.651 45.8207 143.7 46.0097 143.747 46.201C143.78 46.0003 143.815 45.7997 143.852 45.599C143.894 45.3983 143.945 45.1907 144.006 44.976L145.07 41.14C145.093 41.0467 145.149 40.9697 145.238 40.909C145.327 40.8483 145.429 40.818 145.546 40.818H146.855L144.58 48H143.187C143.038 48 142.93 47.8973 142.865 47.692L141.57 43.541C141.528 43.4057 141.488 43.2703 141.451 43.135C141.418 42.995 141.39 42.8573 141.367 42.722C141.339 42.862 141.309 43.002 141.276 43.142C141.243 43.2773 141.206 43.415 141.164 43.555L139.855 47.692C139.79 47.8973 139.664 48 139.477 48H138.154L135.879 40.818ZM147.828 48V40.818H148.843C149.021 40.818 149.144 40.8507 149.214 40.916C149.284 40.9813 149.331 41.0933 149.354 41.252L149.459 42.12C149.716 41.6767 150.017 41.3267 150.362 41.07C150.708 40.8133 151.095 40.685 151.524 40.685C151.879 40.685 152.173 40.7667 152.406 40.93L152.182 42.225C152.168 42.309 152.138 42.3697 152.091 42.407C152.045 42.4397 151.982 42.456 151.902 42.456C151.832 42.456 151.737 42.4397 151.615 42.407C151.494 42.3743 151.333 42.358 151.132 42.358C150.773 42.358 150.465 42.4583 150.208 42.659C149.952 42.855 149.735 43.1443 149.557 43.527V48H147.828ZM156.511 40.706C156.964 40.706 157.379 40.7783 157.757 40.923C158.14 41.0677 158.469 41.28 158.744 41.56C159.019 41.8353 159.234 42.176 159.388 42.582C159.542 42.9833 159.619 43.443 159.619 43.961C159.619 44.0917 159.612 44.2013 159.598 44.29C159.589 44.374 159.568 44.4417 159.535 44.493C159.507 44.5397 159.467 44.5747 159.416 44.598C159.365 44.6167 159.299 44.626 159.22 44.626H154.782C154.833 45.3633 155.032 45.9047 155.377 46.25C155.722 46.5953 156.18 46.768 156.749 46.768C157.029 46.768 157.269 46.7353 157.47 46.67C157.675 46.6047 157.853 46.5323 158.002 46.453C158.156 46.3737 158.289 46.3013 158.401 46.236C158.518 46.1707 158.63 46.138 158.737 46.138C158.807 46.138 158.868 46.152 158.919 46.18C158.97 46.208 159.015 46.2477 159.052 46.299L159.556 46.929C159.365 47.153 159.15 47.342 158.912 47.496C158.674 47.6453 158.424 47.7667 158.163 47.86C157.906 47.9487 157.643 48.0117 157.372 48.049C157.106 48.0863 156.847 48.105 156.595 48.105C156.096 48.105 155.631 48.0233 155.202 47.86C154.773 47.692 154.399 47.447 154.082 47.125C153.765 46.7983 153.515 46.397 153.333 45.921C153.151 45.4403 153.06 44.885 153.06 44.255C153.06 43.765 153.139 43.3053 153.298 42.876C153.457 42.442 153.683 42.0663 153.977 41.749C154.276 41.427 154.637 41.1727 155.062 40.986C155.491 40.7993 155.974 40.706 156.511 40.706ZM156.546 41.945C156.042 41.945 155.648 42.0873 155.363 42.372C155.078 42.6567 154.896 43.0603 154.817 43.583H158.065C158.065 43.359 158.035 43.149 157.974 42.953C157.913 42.7523 157.82 42.5773 157.694 42.428C157.568 42.2787 157.409 42.162 157.218 42.078C157.027 41.9893 156.803 41.945 156.546 41.945ZM163.99 40.706C164.442 40.706 164.858 40.7783 165.236 40.923C165.618 41.0677 165.947 41.28 166.223 41.56C166.498 41.8353 166.713 42.176 166.867 42.582C167.021 42.9833 167.098 43.443 167.098 43.961C167.098 44.0917 167.091 44.2013 167.077 44.29C167.067 44.374 167.046 44.4417 167.014 44.493C166.986 44.5397 166.946 44.5747 166.895 44.598C166.843 44.6167 166.778 44.626 166.699 44.626H162.261C162.312 45.3633 162.51 45.9047 162.856 46.25C163.201 46.5953 163.658 46.768 164.228 46.768C164.508 46.768 164.748 46.7353 164.949 46.67C165.154 46.6047 165.331 46.5323 165.481 46.453C165.635 46.3737 165.768 46.3013 165.88 46.236C165.996 46.1707 166.108 46.138 166.216 46.138C166.286 46.138 166.346 46.152 166.398 46.18C166.449 46.208 166.493 46.2477 166.531 46.299L167.035 46.929C166.843 47.153 166.629 47.342 166.391 47.496C166.153 47.6453 165.903 47.7667 165.642 47.86C165.385 47.9487 165.121 48.0117 164.851 48.049C164.585 48.0863 164.326 48.105 164.074 48.105C163.574 48.105 163.11 48.0233 162.681 47.86C162.251 47.692 161.878 47.447 161.561 47.125C161.243 46.7983 160.994 46.397 160.812 45.921C160.63 45.4403 160.539 44.885 160.539 44.255C160.539 43.765 160.618 43.3053 160.777 42.876C160.935 42.442 161.162 42.0663 161.456 41.749C161.754 41.427 162.116 41.1727 162.541 40.986C162.97 40.7993 163.453 40.706 163.99 40.706ZM164.025 41.945C163.521 41.945 163.126 42.0873 162.842 42.372C162.557 42.6567 162.375 43.0603 162.296 43.583H165.544C165.544 43.359 165.513 43.149 165.453 42.953C165.392 42.7523 165.299 42.5773 165.173 42.428C165.047 42.2787 164.888 42.162 164.697 42.078C164.505 41.9893 164.281 41.945 164.025 41.945ZM170.341 37.598V48H168.612V37.598H170.341Z" fill="#1E212C"/>
</svg>
